<?xml version="1.0" encoding="utf-8"?>
<!-- Generator: Adobe Illustrator 25.1.0, SVG Export Plug-In . SVG Version: 6.00 Build 0)  -->
<svg version="1.1" id="icon" xmlns="http://www.w3.org/2000/svg" xmlns:xlink="http://www.w3.org/1999/xlink" x="0px" y="0px"
	 width="24px" height="17.1px" viewBox="0 0 24 17.1" style="enable-background:new 0 0 24 17.1;" xml:space="preserve">
<style type="text/css">
	.st0{fill:#FFFFFF;}
</style>
<path class="st0" d="M23.5,6.9l-5.7-2.5l-2.2-3.7l-0.1-0.1C15.2,0.2,14.7,0,14.2,0H7.3C6.7,0,6.2,0.3,5.9,0.8L3,5.1H0.9
	C0.4,5.1,0,5.5,0,6v7.7c0,0.5,0.4,0.9,0.9,0.9h1.8c0.5,1.8,2.4,2.9,4.2,2.4c1.2-0.3,2.1-1.2,2.4-2.4h5.4c0.5,1.8,2.4,2.9,4.2,2.4
	c1.2-0.3,2.1-1.2,2.4-2.4h1.8c0.5,0,0.9-0.4,0.9-0.9v-6C24,7.4,23.8,7.1,23.5,6.9z M6,15.4c-0.9,0-1.7-0.8-1.7-1.7S5.1,12,6,12
	s1.7,0.8,1.7,1.7S6.9,15.4,6,15.4z M18,15.4c-0.9,0-1.7-0.8-1.7-1.7S17.1,12,18,12s1.7,0.8,1.7,1.7S18.9,15.4,18,15.4z M22.3,12.9
	h-1c-0.5-1.8-2.4-2.9-4.2-2.4c-1.2,0.3-2.1,1.2-2.4,2.4H9.3C8.8,11,6.9,10,5.1,10.4c-1.2,0.3-2.1,1.2-2.4,2.4h-1v-6h1.7
	c0.3,0,0.6-0.1,0.7-0.4l3.2-4.8h6.9l2.3,3.9c0.1,0.2,0.2,0.3,0.4,0.4l5.5,2.3V12.9z"/>
</svg>
