<?xml version="1.0" encoding="utf-8"?>
<!-- Generator: Adobe Illustrator 25.1.0, SVG Export Plug-In . SVG Version: 6.00 Build 0)  -->
<svg version="1.1" id="icon" xmlns="http://www.w3.org/2000/svg" xmlns:xlink="http://www.w3.org/1999/xlink" x="0px" y="0px"
	 width="24px" height="24px" viewBox="0 0 24 24" style="enable-background:new 0 0 24 24;" xml:space="preserve">
<style type="text/css">
	.st0{fill:#FFFFFF;}
</style>
<rect x="18.9" y="16.3" class="st0" width="1.7" height="4.3"/>
<rect x="15.4" y="12" class="st0" width="1.7" height="8.6"/>
<path class="st0" d="M7.7,20.6c-2.4,0-4.3-1.9-4.3-4.3h1.7c0,1.4,1.2,2.6,2.6,2.6s2.6-1.2,2.6-2.6c0-1.4-1.2-2.6-2.6-2.6V12
	c2.4,0,4.3,1.9,4.3,4.3S10.1,20.6,7.7,20.6z"/>
<path class="st0" d="M22.3,0H1.7C0.8,0,0,0.8,0,1.7v20.6C0,23.2,0.8,24,1.7,24h20.6c0.9,0,1.7-0.8,1.7-1.7V1.7C24,0.8,23.2,0,22.3,0
	z M22.3,7.7h-12v-6h12V7.7z M8.6,1.7v6H1.7v-6H8.6z M1.7,22.3V9.4h20.6l0,12.9H1.7z"/>
</svg>
