<?xml version="1.0" encoding="utf-8"?>
<!-- Generator: Adobe Illustrator 25.1.0, SVG Export Plug-In . SVG Version: 6.00 Build 0)  -->
<svg version="1.1" id="Layer_5" xmlns="http://www.w3.org/2000/svg" xmlns:xlink="http://www.w3.org/1999/xlink" x="0px" y="0px"
	 width="512px" height="512px" viewBox="0 0 512 512" style="enable-background:new 0 0 512 512;" xml:space="preserve">
<style type="text/css">
	.st0{fill:url(#SVGID_1_);}
</style>
<linearGradient id="SVGID_1_" gradientUnits="userSpaceOnUse" x1="131.75" y1="473.5541" x2="131.75" y2="535.5541" gradientTransform="matrix(8 0 0 -8 -798 4292.4331)">
	<stop  offset="0" style="stop-color:#5E35B1"/>
	<stop  offset="1" style="stop-color:#F50057"/>
</linearGradient>
<path class="st0" d="M136,248v-16h16v16H136z M200,296v16h16v-16H200z M72,360v16h16v-16H72z M424,432c0-13.2,10.8-24,24-24
	s24,10.8,24,24s-10.8,24-24,24S424,445.2,424,432z M440,432c0,4.4,3.6,8,8,8s8-3.6,8-8s-3.6-8-8-8S440,427.6,440,432z M296,432
	c0-13.2,10.8-24,24-24s24,10.8,24,24s-10.8,24-24,24S296,445.2,296,432z M312,432c0,4.4,3.6,8,8,8s8-3.6,8-8s-3.6-8-8-8
	S312,427.6,312,432z M360,432c0-13.2,10.8-24,24-24s24,10.8,24,24s-10.8,24-24,24S360,445.2,360,432z M376,432c0,4.4,3.6,8,8,8
	s8-3.6,8-8s-3.6-8-8-8S376,427.6,376,432z M328,56h144V40H328V56z M360,88h112V72H360V88z M344,72h-16v16h16V72z M456,120h16v-16
	h-16V120z M328,120h112v-16H328V120z M504,48v64c0,22.1-17.9,40-40,40h-56v208h24c39.7,0,72,32.3,72,72s-32.3,72-72,72h-96
	c-37,0-67.5-28.1-71.5-64H48c-22.1,0-40-17.9-40-40V144c0-22.1,17.9-40,40-40h24V88c0-8.8,7.2-16,16-16h16c8.8,0,16,7.2,16,16v16h64
	V88c0-8.8,7.2-16,16-16h16c8.8,0,16,7.2,16,16v16h64V48c0-22.1,17.9-40,40-40h128C486.1,8,504,25.9,504,48z M200,136h16l0-48h-16
	V136z M88,136h16l0-48H88L88,136z M360,360v-16h-48v16H360z M184,328h48v-48h-48V328z M168,280h-48v48h48V280z M248,328h48v-48h-48
	V328z M312,328h48v-48h-48V328z M360,216h-48v48h48V216z M296,216h-48v48h48V216z M232,216h-48v48h48V216z M168,216h-48v48h48V216z
	 M104,216H56v48h48V216z M56,328h48v-48H56V328z M56,392h48v-48H56V392z M120,392h48v-48h-48V392z M184,392h48v-48h-48V392z
	 M248,392h16v-32h32v-16h-48V392z M432,376H280v56c0,30.9,25.1,56,56,56h96c30.9,0,56-25.1,56-56S462.9,376,432,376z M392,360V153.2
	l-64,36.6v-38.6c-15.6-3.2-27.9-15.6-31.1-31.2H232v16c0,8.8-7.2,16-16,16h-16c-8.8,0-16-7.2-16-16v-16h-64v16c0,8.8-7.2,16-16,16
	H88c-8.8,0-16-7.2-16-16v-16H48c-13.2,0-24,10.8-24,24v24h288v16H24v216c0,13.2,10.8,24,24,24h216v-16H56c-8.8,0-16-7.2-16-16V216
	c0-8.8,7.2-16,16-16h304c8.8,0,16,7.2,16,16v144H392z M488,48c0-13.2-10.8-24-24-24H336c-13.2,0-24,10.8-24,24v64
	c0,13.2,10.8,24,24,24h8v26.2l45.9-26.2H464c13.2,0,24-10.8,24-24V48z M344,248v-16h-16v16H344z"/>
</svg>
