<?xml version="1.0" encoding="utf-8"?>
<!-- Generator: Adobe Illustrator 25.1.0, SVG Export Plug-In . SVG Version: 6.00 Build 0)  -->
<svg version="1.1" id="Layer_5" xmlns="http://www.w3.org/2000/svg" xmlns:xlink="http://www.w3.org/1999/xlink" x="0px" y="0px"
	 width="512px" height="512px" viewBox="0 0 512 512" style="enable-background:new 0 0 512 512;" xml:space="preserve">
<style type="text/css">
	.st0{fill:url(#SVGID_1_);}
</style>
<linearGradient id="SVGID_1_" gradientUnits="userSpaceOnUse" x1="131.75" y1="473.5541" x2="131.75" y2="535.5541" gradientTransform="matrix(8 0 0 -8 -798 4292.4331)">
	<stop  offset="0" style="stop-color:#5E35B1"/>
	<stop  offset="1" style="stop-color:#F50057"/>
</linearGradient>
<path class="st0" d="M352,8H160c-48.5,0-88,39.5-88,88v72h-8c-13.2,0-24,10.8-24,24v16c0,13.2,10.8,24,24,24h8.9l26.2,222.5
	c3.3,28.2,27.2,49.5,55.6,49.5h202.6c28.4,0,52.3-21.3,55.6-49.5L439.1,232h8.9c13.2,0,24-10.8,24-24v-16c0-13.2-10.8-24-24-24h-8
	V96C440,47.5,400.5,8,352,8z M88,96c0-39.7,32.3-72,72-72h192c39.7,0,72,32.3,72,72v72h-32v-64c0-26.5-21.5-48-48-48H168
	c-26.5,0-48,21.5-48,48v64H88V96z M371.3,168l-45.7-45.7l-11.3,11.3l34.3,34.3h-89.4L328,99.3l48,48V168H371.3z M376,124.7l-48-48
	l-32,32V88H152v80h-16v-64c0-17.6,14.4-32,32-32h176c17.6,0,32,14.4,32,32V124.7z M168,104h112v20.7L236.7,168H168V104z M397,452.7
	c-2.4,20.1-19.4,35.3-39.7,35.3H154.7c-20.3,0-37.4-15.2-39.7-35.3L89,232h32.2l24.7,209.9c0.9,8.1,7.8,14.1,15.9,14.1h188.4
	c8.1,0,15-6.1,15.9-14.1L390.8,232H423L397,452.7z M137.3,232h237.4l-24.5,208H161.8L137.3,232z M456,192v16c0,4.4-3.6,8-8,8H64
	c-4.4,0-8-3.6-8-8v-16c0-4.4,3.6-8,8-8h384C452.4,184,456,187.6,456,192z M264,136h-80v-16h80V136z M327.5,327.5
	c0.3,2.8,0.5,5.7,0.5,8.5c0,34.9-25,64.1-58,70.6l8.6,13l-13.3,8.9l-19-28.4l19-28.4l13.3,8.9l-6,9c22.8-7.1,39.4-28.4,39.4-53.5
	c0-2.2-0.1-4.5-0.4-6.7L327.5,327.5z M227.6,287.7l-8.1-13.8c11-6.5,23.7-9.9,36.5-9.9c20.9,0,40.5,9.3,54.1,24.7l7-14.1l14.3,7.1
	l-15.2,30.6l-34.1-2.2l1-16l10.6,0.7c-10.2-9.3-23.6-14.8-37.8-14.8C246,280,236.2,282.7,227.6,287.7L227.6,287.7z M172.3,313.8
	l-1-16l34.1-2.2l15.2,30.6l-14.3,7.1l-4.7-9.6c-0.9,4-1.4,8.1-1.4,12.2c0,20.6,11.2,39.5,29.4,49.3l-7.6,14.1
	C198.5,386.7,184,362.5,184,336c0-7.9,1.5-15.7,4-23.2L172.3,313.8z"/>
</svg>
