<?xml version="1.0" encoding="utf-8"?>
<!-- Generator: Adobe Illustrator 25.1.0, SVG Export Plug-In . SVG Version: 6.00 Build 0)  -->
<svg version="1.1" id="_x33_0" xmlns="http://www.w3.org/2000/svg" xmlns:xlink="http://www.w3.org/1999/xlink" x="0px" y="0px"
	 width="512px" height="512px" viewBox="0 0 512 512" style="enable-background:new 0 0 512 512;" xml:space="preserve">
<style type="text/css">
	.st0{fill:url(#SVGID_1_);}
</style>
<linearGradient id="SVGID_1_" gradientUnits="userSpaceOnUse" x1="231.5" y1="69.75" x2="231.5" y2="7.75" gradientTransform="matrix(8 0 0 8 -1596 -54)">
	<stop  offset="0" style="stop-color:#5E35B1"/>
	<stop  offset="1" style="stop-color:#F50057"/>
</linearGradient>
<path class="st0" d="M480,216h-76.8c-15.6-15.3-33.8-27.3-54.2-35.4c-3.1-1.2-5-4.1-5-7.4v-6c18.2-3.7,32-19.9,32-39.2V71.6
	c9.1-1.9,16-9.9,16-19.6c0-4.3-1.4-8.6-4-12c-15-20-39-32-64-32h-11c-44.6,0-81,36.3-81,81c0,27.1,13.5,52.3,36,67.4l12,8v8.6
	c0,3.3-2.1,6.3-5.2,7.5l-17.3,6.5c-14.3,5.4-26.2,15.8-33.6,29.1h-28.8c-15.6-15.3-33.8-27.3-54.2-35.4c-3.1-1.2-5-4.1-5-7.4v-6
	c18.2-3.7,32-19.9,32-39.2V72c8.8,0,16-7.2,16-16c0-26.5-21.5-48-48-48h-30.2C60.7,8,24,44.7,24,89.8v114.8C13.9,216,8,231,8,246.8
	V408c0,8.8,7.2,16,16,16v64H8v16h496v-16h-16v-64c8.8,0,16-7.2,16-16V240C504,226.8,493.2,216,480,216L480,216z M488,240v72h-80v-80
	h72C484.4,232,488,235.6,488,240z M368,344h-64c-4.4,0-8-3.6-8-8v-8h80v8C376,340.4,372.4,344,368,344z M88,328h80v8
	c0,4.4-3.6,8-8,8H96c-4.4,0-8-3.6-8-8V328z M144,296c4.4,0,8,3.6,8,8s-3.6,8-8,8h-8v-16H144z M296,296h32v16h-32V296z M392,232v80
	h-16v-72c0-4.4,3.6-8,8-8H392z M352,312h-8v-16h8c4.4,0,8,3.6,8,8S356.4,312,352,312z M280,312h-80v-80h72c4.4,0,8,3.6,8,8V312z
	 M184,232v80h-16v-72c0-4.4,3.6-8,8-8H184z M184,336v-8h96v8c0,4.4-3.6,8-8,8h-89.5C183.4,341.5,184,338.8,184,336z M336,152h-24v16
	h16v5.2c0,5.6,2,10.8,5.3,15c-4.6,7.2-12.6,11.8-21.3,11.8c-8.8,0-16.9-4.7-21.4-12c3.4-4.2,5.4-9.5,5.4-15.1v-56.2L283.3,104
	c-2.1-2.1-3.3-5-3.3-8c0-4.4,3.6-8,8-8h8v-8c0-4.4,3.6-8,8-8h56v56C360,141.2,349.2,152,336,152z M276.9,143
	c-18.1-12.1-28.9-32.3-28.9-54c0-35.8,29.1-65,65-65h11c20,0,39.2,9.6,51.2,25.6c0.5,0.7,0.8,1.5,0.8,2.4c0,2.2-1.8,4-4,4h-68
	c-10.8,0-20,7.2-23,17c-9.8,3-17,12.2-17,23c0,7.3,2.8,14.2,8,19.3l8,8V145L276.9,143z M263.1,201.9l14-5.2
	c7.5,11.8,20.6,19.4,34.9,19.4c14.1,0,27.1-7.4,34.6-18.9c11.8,5.1,22.8,11.6,32.8,19.4c-11,2.2-19.4,11.9-19.4,23.5v41.5
	c-2.5-0.9-5.2-1.5-8-1.5h-56v-40c0-13.2-10.8-24-24-24h-28.5C248.7,209.8,255.3,204.8,263.1,201.9L263.1,201.9z M152,128
	c0,13.2-10.8,24-24,24h-24v16h16v5.2c0,5.6,2,10.8,5.3,15c-4.6,7.2-12.6,11.8-21.3,11.8c-9.2,0-17.7-5.1-22.1-13.1
	c3.8-5,6.1-11.2,6.1-17.8v-55.4c0-23,18.7-41.8,41.8-41.8H152V128z M40,89.8C40,53.5,69.5,24,105.8,24H136c17.6,0,32,14.4,32,32
	h-38.2C97.9,56,72,81.9,72,113.8v55.4c0,5.6-3.5,10.7-8.7,12.6L49.6,187c-3.3,1.3-6.5,2.8-9.5,4.5L40,89.8L40,89.8z M24,246.8
	c0-19.9,12.5-38,31.1-44.9l13.7-5.2c0.1,0,0.2-0.1,0.2-0.1c7.6,11.8,20.7,19.4,35,19.4c14.1,0,27.1-7.4,34.6-18.9
	c11.8,5.1,22.8,11.6,32.8,19.4c-11,2.2-19.4,11.9-19.4,23.5v41.5c-2.5-0.9-5.2-1.5-8-1.5H80c-13.2,0-24-10.8-24-24v-24H40v24
	c0,22.1,17.9,40,40,40h40v16H72c-26.5,0-48-21.5-48-48V246.8z M72,328v8c0,13.2,10.8,24,24,24h176c6.2,0,11.7-2.4,16-6.2
	c4.3,3.8,9.8,6.2,16,6.2h176c2.8,0,5.5-0.6,8-1.5V376H24v-69.8C35.7,319.5,52.9,328,72,328L72,328z M40,424h16v64H40V424z M440,424
	v64H72v-64H440z M472,488h-16v-64h16V488z M24,408v-16h464v16H24z M480,344h-89.5c0.9-2.5,1.5-5.2,1.5-8v-8h96v8
	C488,340.4,484.4,344,480,344z M240,248c-13.2,0-24,10.8-24,24s10.8,24,24,24s24-10.8,24-24S253.2,248,240,248z M240,280
	c-4.4,0-8-3.6-8-8s3.6-8,8-8s8,3.6,8,8S244.4,280,240,280z M448,296c13.2,0,24-10.8,24-24s-10.8-24-24-24s-24,10.8-24,24
	S434.8,296,448,296z M448,264c4.4,0,8,3.6,8,8s-3.6,8-8,8s-8-3.6-8-8S443.6,264,448,264z"/>
</svg>
