<?xml version="1.0" encoding="utf-8"?>
<!-- Generator: Adobe Illustrator 25.1.0, SVG Export Plug-In . SVG Version: 6.00 Build 0)  -->
<svg version="1.1" id="icon" xmlns="http://www.w3.org/2000/svg" xmlns:xlink="http://www.w3.org/1999/xlink" x="0px" y="0px"
	 width="24px" height="27.3px" viewBox="0 0 24 27.3" style="enable-background:new 0 0 24 27.3;" xml:space="preserve">
<style type="text/css">
	.st0{fill:#FFFFFF;}
</style>
<rect x="10.9" y="8.7" class="st0" width="2.2" height="8.7"/>
<rect x="16.4" y="13.1" class="st0" width="2.2" height="4.4"/>
<rect x="5.5" y="10.9" class="st0" width="2.2" height="6.5"/>
<path class="st0" d="M21.8,2.2h-8.7V0h-2.2v2.2H2.2C1,2.2,0,3.2,0,4.4v15.3c0,1.2,1,2.2,2.2,2.2h8.7v3.3H6.5v2.2h10.9v-2.2h-4.4
	v-3.3h8.7c1.2,0,2.2-1,2.2-2.2V4.4C24,3.2,23,2.2,21.8,2.2z M21.8,19.6H2.2V4.4h19.6V19.6z"/>
</svg>
