<?xml version="1.0" encoding="utf-8"?>
<!-- Generator: Adobe Illustrator 25.1.0, SVG Export Plug-In . SVG Version: 6.00 Build 0)  -->
<svg version="1.1" id="Capa_2" xmlns="http://www.w3.org/2000/svg" xmlns:xlink="http://www.w3.org/1999/xlink" x="0px" y="0px"
	 width="500px" height="500px" viewBox="0 0 500 500" style="enable-background:new 0 0 500 500;" xml:space="preserve">
<style type="text/css">
	.st0{fill:none;}
	.st1{fill:#FFFFFF;}
	.st2{fill:url(#New_Pattern_2);}
	.st3{fill:#FFFFFF;stroke:#000000;stroke-miterlimit:10;}
	.st4{fill:#110809;}
	.st5{fill:none;stroke:#110809;stroke-width:2;stroke-miterlimit:10;}
	.st6{fill:#5757FF;}
	.st7{fill:#AD1457;}
	.st8{fill:#C9CDD1;}
	.st9{fill:none;stroke:#FFFFFF;stroke-miterlimit:10;}
	.st10{fill:none;stroke:#000000;stroke-width:2;stroke-miterlimit:10;}
	.st11{fill:#7A483A;}
	.st12{stroke:#FFFFFF;stroke-miterlimit:10;}
	.st13{fill:none;stroke:#000000;stroke-miterlimit:10;}
	.st14{fill:none;stroke:#FFFFFF;stroke-width:2;stroke-miterlimit:10;}
	.st15{fill:#5757FF;stroke:#000000;stroke-miterlimit:10;}
</style>
<pattern  width="54" height="54" patternUnits="userSpaceOnUse" id="New_Pattern_2" viewBox="0 -54 54 54" style="overflow:visible;">
	<g>
		<rect y="-54" class="st0" width="54" height="54"/>
		<rect y="-54" class="st1" width="54" height="54"/>
		<path d="M4.3-49.4c0-0.5,0.5-0.9,1-0.9c0.5,0,0.9,0.5,0.9,1c0,0.5-0.5,0.9-1,0.9C4.7-48.4,4.3-48.9,4.3-49.4z"/>
		<path d="M23.7-49.4c0-0.5,0.5-0.9,1-0.9c0.5,0,0.9,0.5,0.9,1s-0.5,0.9-1,0.9C24-48.4,23.6-48.9,23.7-49.4z"/>
		<path d="M41.1-49.4c0-0.5,0.5-0.9,1-0.9c0.5,0,0.9,0.5,0.9,1c0,0.5-0.5,0.9-1,0.9C41.5-48.4,41.1-48.9,41.1-49.4z"/>
		<path d="M4.3-32c0-0.5,0.5-0.9,1-0.9c0.5,0,0.9,0.5,0.9,1c0,0.5-0.5,0.9-1,0.9S4.3-31.5,4.3-32z"/>
		<path d="M23.7-32c0-0.5,0.5-0.9,1-0.9c0.5,0,0.9,0.5,0.9,1s-0.5,0.9-1,0.9C24-31,23.6-31.5,23.7-32z"/>
		<path d="M41.1-32c0-0.5,0.5-0.9,1-0.9c0.5,0,0.9,0.5,0.9,1c0,0.5-0.5,0.9-1,0.9C41.5-31,41.1-31.5,41.1-32z"/>
		<path d="M4.3-14.7c0-0.5,0.5-0.9,1-0.9c0.5,0,0.9,0.5,0.9,1c0,0.5-0.5,0.9-1,0.9C4.7-13.7,4.3-14.1,4.3-14.7z"/>
		<path d="M23.7-14.7c0-0.5,0.5-0.9,1-0.9c0.5,0,0.9,0.5,0.9,1c0,0.5-0.5,0.9-1,0.9C24-13.7,23.6-14.1,23.7-14.7z"/>
		<path d="M41.1-14.7c0-0.5,0.5-0.9,1-0.9c0.5,0,0.9,0.5,0.9,1c0,0.5-0.5,0.9-1,0.9C41.5-13.7,41.1-14.1,41.1-14.7z"/>
	</g>
</pattern>
<path class="st2" d="M156.8,349.7c-2.7,0-5.4-0.1-8.1-0.1c-17.4-0.2-36-0.7-50.1-10.9c-20.9-15.1-26.9-43.9-18.7-67.1
	c8.5-23.8,25.4-42.9,43.2-59.9c20.5-19.6,42.5-37.4,65.8-53c23.9-16,49.8-30,77.8-34c25.1-3.6,51.1,1.4,73.4,13.4
	c8,4.3,16.3,7.7,21.9,15.1c8.5,11.2,16.3,22.4,26.1,32.5c8.1,8.4,17.6,16.1,23.9,26c6.9,10.8,9.1,23.5,9.8,36.1
	c1.3,23.9-2,48.1-9.8,70.9c-2.6,7.5-5.8,15.2-12.1,20.2c-5.3,4.2-12,5.9-18.6,7.2c-28.5,5.6-57.9,5.3-86.9,5
	C248.6,350.7,202.7,350.2,156.8,349.7z"/>
<path d="M280.2,364.8c0.8,0,1.5-0.1,2.1-0.2c3-0.4,5.9,0.1,8.9,0.3c1.5,0.1,2.8-0.1,4.3-0.2c1.1-0.1,2.2,0,3.1-0.8
	c0.5-0.4,0.9-1.2,0.7-1.8c-0.3-0.9-1.4-1.3-2.4-1.5c-2.4-0.5-4.7-1-7.1-1.5c-1-0.2-2.8-0.6-3-1.8c-0.1-0.6,0.2-1.5,0.3-2.1
	c0.1-0.7,0.1-1.5,0.2-2.2c0.1-1.4,0.5-2.7-1.2-2.8c-1.8-0.1-3.7-0.2-5.5-0.3c-0.2,0-0.4,0-0.5,0.1c-0.3,0.1-0.4,0.5-0.5,0.8
	c-0.3,1-0.5,2-0.8,3c-0.4,1.6-0.8,3.1-1,4.7c-0.2,1.1-0.2,2.3-0.3,3.4c-0.1,0.7-0.3,1.4,0.3,2C278.2,364.6,279.2,364.8,280.2,364.8z
	"/>
<path d="M293.9,371c0.1,0.5,0.3,0.8,0.7,1c0.7,0.4,2,0.3,2.8,0.4c1.3,0.2,2.7,0.4,4,0.3c1-0.1,2-0.3,3-0.4c2.8-0.1,5.8,1,8.6,0.2
	c1-0.3,2.6-0.9,2.9-2c0.4-1.5-0.9-2.4-2.1-2.7c-1.5-0.4-3.2-0.6-4.8-0.7c-0.7,0-1.3,0-1.9-0.2c-1.6-0.4-2.2-1.7-1.9-3.2
	c0.5-2,0.9-4,1.4-6c-3.3-0.5-6.6,0.1-9.9,0.6c-0.2,0-0.4,0.1-0.6,0.2c-0.1,0.1-0.1,0.3-0.2,0.4c-0.5,2.2-0.3,4.2-1,6.3
	C294.5,366.4,293.5,369.4,293.9,371z"/>
<g>
	<g>
		<path class="st3" d="M202.5,246c0.6-0.2,1.3-0.3,2-0.5c1.2-0.3,2-0.9,2.9-1.8c0.6-0.6,1.1-1.1,1.9-1.4c2.3-1,3.5,1,2.6,3
			c-0.7,1.6-1.7,3.2-3.3,3.9c-1.7,0.9-3.4,0.9-5,2.1c-0.4,0.3-4.4,3.7-4.3,3.9c-0.8-0.9-2.4-3-2.3-4.3c1.1-0.3,1.9-1.1,2.6-2.1
			c0.6-0.9,1.2-2,2.2-2.6C201.9,246.2,202.2,246.1,202.5,246z"/>
		<g>
			<g>
				<rect id="XMLID_696_" x="166.4" y="298" class="st4" width="1.8" height="38.6"/>
				<path id="XMLID_695_" class="st5" d="M151.9,344.7c0-5.7,10.1-8.1,15.1-8.1c6,0,15.1,2.2,15.1,8.1"/>
				<line id="XMLID_694_" class="st5" x1="167.2" y1="346.2" x2="167.2" y2="336.7"/>
				<path id="XMLID_693_" class="st4" d="M184.7,346.1c0,1.4-1.1,2.5-2.5,2.5c-1.4,0-2.5-1.1-2.5-2.5c0-1.4,1.1-2.5,2.5-2.5
					C183.6,343.6,184.7,344.7,184.7,346.1z"/>
				<path id="XMLID_692_" class="st4" d="M169.7,346.1c0,1.4-1.1,2.5-2.5,2.5c-1.4,0-2.5-1.1-2.5-2.5c0-1.4,1.1-2.5,2.5-2.5
					C168.6,343.6,169.7,344.7,169.7,346.1z"/>
				<path id="XMLID_691_" class="st4" d="M154.7,346.1c0,1.4-1.1,2.5-2.5,2.5c-1.4,0-2.5-1.1-2.5-2.5c0-1.4,1.1-2.5,2.5-2.5
					C153.5,343.6,154.7,344.7,154.7,346.1z"/>
				<path id="XMLID_690_" class="st3" d="M165.5,285v-28.4c0-4.9-4-8.9-8.9-8.9h-9.8c-4.9,0-8.9,4-8.9,8.9v31.8
					c0,7,5.7,12.8,12.8,12.8h14.7h17.3c0.8,0,1.5-0.7,1.5-1.5l0,0c0-0.8-0.7-1.5-1.5-1.5h-4C171.4,298.1,165.5,292.2,165.5,285z"/>
			</g>
			<g>
				<g id="XMLID_609_">
					<path id="XMLID_697_" class="st3" d="M227.5,338.2c0.2,0.4,0.5,0.8,0.8,1.2c0.9,1.3,2.8,2.4,4.4,2.2c1.7-0.2,3.4-0.8,5.1-0.8
						c0.6,0,1.3,0.2,1.8,0.6c2,1.9-2.8,3.7-4.1,4.1c-3,0.9-6,1.8-8.9,2.7c-0.6,0.2-1.1,0.3-1.7,0.2c-1.2-0.2-1.7-1-2.1-2
						c-0.4-1.3-0.9-2.6-1.5-3.8c-0.8-2.1-1.5-4.2-2-6.4c-0.1-0.6-0.3-1.3-0.1-1.9c0.3-0.9,1.2-1.6,2.1-1.6c0.4,0,0.8,0.1,1.2,0.2
						C225.3,333.8,226.2,335.8,227.5,338.2z"/>
					<path d="M210.6,292.5c0.1-2-0.2-4-0.9-5.8c-1.1-2.9-3.3-5.4-6.3-6.4c-1.7-0.6-3.4-0.6-5.2-0.7c-7.6-0.3-15.1-0.5-22.7-0.8
						c-6.6-0.2-14.2,5.1-14,12.3c0.1,4.5,3.2,9.1,8,9.2c0.1,0,0.2,0,0.3,0c7.2,0,14.4,0.1,21.5,0.1c5,0,11.6,2.1,16.2-0.7
						c0.6-0.4,1.2-0.9,1.7-1.5c0.5-0.7,0.7-1.6,0.9-2.4C210.4,294.7,210.6,293.6,210.6,292.5z"/>
					<path id="XMLID_666_" d="M181.1,290c6.9,3.8-5.9,10.2-12.5,10.3l-11.6,0c-6.7,0-11.9-3.4-12.1-10v-20l25.7,0.1
						C170.6,270.4,173.6,285.9,181.1,290z"/>
					<path d="M206.2,293.1c-5.4-3.6-27.1-8.9-30.1-10c-5.9-2.3-12.3-3.3-18.6-2.4c-5.3,0.7-10.9,1.6-12.2,7.6
						c-1.2,5.4,2.2,10.7,7.6,11.9c0.1,0,0.2,0,0.4,0.1l49.9,9.9c0.1,0,0.2,0.1,0.3,0.1c0.3,0.1,0.5,0.1,0.8,0.1
						c3.9,0.4,7.1-1.8,7.9-5.8C213.2,300.2,210.7,296.1,206.2,293.1z"/>
					<path id="XMLID_698_" class="st3" d="M199.4,340.5c0,1.5,0.2,2.8,1.6,4.1c2,1.9,5,2.1,7.1,3.8c0.2,0.2,0.4,0.3,0.5,0.5
						c0.2,0.4,0,1-0.4,1.3c-1.9,1.8-6.1,0-8.3-0.3c-2.7-0.5-5.4-1-8.1-1.5c-0.7-0.1-1.2-0.8-1.1-1.5l1.6-7.7l0.2-1.1
						c0.4-1.9,2.2-3.1,4.1-2.7c1.6,0.4,2.8,1.9,2.8,3.6C199.5,339.5,199.4,340,199.4,340.5z"/>
					<path class="st3" d="M171.7,241.8c-0.2-1.1-0.4-2.2-0.6-3.4c0.8,4.9,1.6,9.7,2.3,14.6c0.7,4.6,1.2,9.3,2.6,13.7
						c0.5,1.5,1.2,4.2,2.9,4.8c2.2,0.8,3.6,0.4,5.7,0.5c0.9,0,1.9,0,2.8-0.2c2.5-0.7,4.1-3.1,5.2-5.4c1.2-2.6,2.5-4.3,4.8-6
						c1.6-1.2,3.2-2.5,4.7-3.8c0.6-0.5,1.9-1.4,2.2-2.1c0.3-0.8-0.2-1.1-0.8-1.6c-1.8-1.8-3.8-3.5-5.5-5.5c-1.7,1.6-3.4,3.1-5.1,4.7
						c-1.2,1.1-2.4,2.2-3.6,3.3c-0.6,0.5-3.8,2.7-3.7,3.2c-0.3-3.8-0.7-7.7-2-11.2c-0.1-0.4-0.3-0.8-0.4-1.3
						c-0.1-0.6,0.1-1.2,0.2-1.7c0.6-3,0.2-6.2-1.1-9c-1.4-2.9-3.1-4.6-6.1-5.6c-1.8-0.6-3.7-1.2-5.6-1.5c-0.3,0-0.7,0-0.8,0.3
						c0,0.1,0,0.2,0,0.4 M173,246.6c0.1,0,0.2,0,0.3-0.1L173,246.6z M172.7,246.7c0,0,0,0,0.1,0L172.7,246.7z"/>
					<path d="M228.3,336.2c-4.4-9.1-7.5-18.6-10.9-28.2c-1.6-4.6-3.3-9.2-6.3-13.1c-1.4-1.8-2.7-3.2-4.9-3.7
						c-2.1-0.4-4.2-0.2-6.3,0.3c-1.1,0.3-2.2,0.9-3.3,1.1c-1.5,0.3-3.9,0-4.5,1.9c-0.3,0.9-0.1,1.8,0.1,2.7c0.3,1.4,0.8,2.9,1.4,4.2
						c0.7,1.8,1.7,3.4,2.3,5.3c0.5,1.4,0.8,2.8,1.3,4.2c0.9,2.2,2.4,4,4.3,5.4c1.2,0.8,2.5,1.5,3.3,2.7c0.6,0.9,0.6,1.7,1,2.7
						c0.9,2.4,2,5,4.2,6.4c0.6,0.4,1.2,0.6,1.7,1.2c0.3,0.4,0.5,0.8,0.6,1.2c0.5,1.3,1,2.7,1.9,3.8c0.8,1,1.8,1.8,2.6,2.7
						c0.8,1,1,2.2,1.6,3.4C218.5,340.6,228.3,336.3,228.3,336.2z"/>
					<path class="st3" d="M162.3,228.3c-1.3,0.1-2.6,0.3-3.9,0.4c-4.1,0.4-8.5,1-11.8,3.6c-3.8,3.1-6.2,8.6-5.4,13.5
						c0.5,2.7,1.3,5.3,1.6,8c1,9.1,1.7,18.1,2.1,27.2c4.4-0.2,8.8-0.2,13.2-0.5c5.4-0.3,11.5-0.5,16.6-2.5
						c0.6-7.5,2.6-14.9,2.5-22.4c-0.1-3.7-0.1-7.4-0.2-11"/>
					<path d="M209.5,316.3c0.1-0.2,0.2-0.4,0.3-0.7c0.2-0.4,0.3-0.9,0.5-1.4c1.4-5.4,3.3-11.2,2.7-17c-0.5-5.1-0.5-11.5-5.4-14.6
						c-4.1-2.6-9.8-4.2-13.3,0c-0.7,0.9-1.3,2-1.6,3.1c-2.2,7.9,1.5,14.7,0.4,22c-0.3,1.9-0.5,3.7-0.1,5.6c0.1,0.6,0.3,1.2,0.4,1.8
						c0.2,1.5-0.3,3-0.7,4.5c-0.4,1.6-0.8,3.2-0.7,4.8c0.1,1.7,0.6,3.3,0.6,5c0,1.2-0.2,2.4-0.5,3.6c-0.3,1.5-1.8,4.7,0.2,5.3
						c1.2,0.4,2.7,0.3,3.9,0.6c0.4,0.1,3.5,0.9,5.1,1.4c0.5,0.2,0.9-0.2,1-0.6c0.3-2.2,1.3-4.5,1.9-6.6c0.8-2.7,1.5-5.5,2.1-8.2
						c0.3-1.3,0.6-2.7,1-3.9C207.9,319.4,208.7,317.9,209.5,316.3z"/>
					<path class="st3" d="M172.4,217.9l-1.6-9.4l-6.1,1.4c-3.8,0.9-6.2,4.7-5.3,8.6l0.5,2.3c0.2,0.9,0.6,1.8,1.2,2.5l-1.2,5.7
						c-0.6,2.7,1.1,5.3,3.8,5.8c2.7,0.5,5.3-1.4,5.6-4.1l1-6.5C172.1,222.6,172.9,220.2,172.4,217.9z"/>
					<path class="st3" d="M174,267.6c2.9,0.6,4.9,1.8,7.4,3.1c2.2,1.2,2.6,3.3-0.3,3.8c-1.6,0.3-3.2,0.6-4.8,0.2
						c-1.6-0.4-2.1-1.3-3.2-2.4c-0.9-0.9-2.4-0.5-3.7-1c-0.5-0.2-1-0.6-1.2-1.1c-0.2-0.5,0-1.1,0.2-1.6c0.2-0.5,0.4-0.9,0.7-1.2
						c0.7-0.7,1.8-0.6,2.7-0.4C172.7,267.3,173.3,267.5,174,267.6z"/>
					<path id="XMLID_652_" d="M171.2,210c-1,0.8-2.2,1.3-3.5,1.5c-1.2,0.2-2.4,0.2-3.5,0.5c-3,1-2.6,4.3-2.3,6.8
						c0.1,0.9-0.7,3.9-2,3.4c-0.8,0-0.9-1.2-1.1-1.7c-0.4-1-0.8-2-1.2-3c-0.3-0.7-0.5-1.4-0.5-2.2c0.1-1.1,0.9-2,1.1-3.1
						c0.2-0.8,0-1.7,0.2-2.5c0.2-1.1,0.9-2.1,1.9-2.7c1.4-0.9,3.1-0.6,4.5-1.3c0.8-0.4,1.4-1.2,2.1-1.7c1.1-0.8,2.5-1.1,3.8-0.9
						c1.1,0.2,2.2,0.9,2.6,2c0.4,1,0.1,2.1-0.4,3C172.4,208.9,171.8,209.5,171.2,210z"/>
					<path id="XMLID_650_" class="st1" d="M163.1,217.7c0.3,1.1-0.4,2.2-1.5,2.4c-1.1,0.3-2.2-0.4-2.4-1.5c-0.3-1.1,0.4-2.2,1.5-2.4
						C161.8,216,162.9,216.7,163.1,217.7z"/>
					<path class="st3" d="M141.2,241.5c-0.5,4.1-0.6,8.2-0.8,12.3c-0.3,4.5-0.1,9,1.2,13.4c0.4,1.4,0.9,2.7,1.8,3.8
						c3.3,3.9,11.6,2.3,16.2,2.3c3.8,0,7.5,0,11.3,0c0.1-0.2,0.1-0.4,0.2-0.5c0.3-1.5,1.3-5.2,1.6-6.7c-2.4-0.2-4.8-0.4-7.1-0.6
						c-2.1-0.2-4.1-0.3-6.2-0.5c-1.7-0.1-4.2,0.2-4.4-1.9c-0.1-0.8,0-1.6-0.3-2.3c-0.5-1.1-1.7-1.6-2-2.8c-0.2-0.8,0.2-1.9,0.2-2.7
						c0.1-1.3,0.7-2.4,1.2-3.6c0.9-2,1.5-4.1,1.9-6.2c-0.1,0-0.2,0-0.4,0"/>
				</g>
			</g>
		</g>
		<g id="XMLID_581_">
			<path id="XMLID_587_" class="st6" d="M222.9,272.9h-43.6l0,0c0-0.8,0.7-1.5,1.5-1.5h42.1V272.9z"/>
			<path id="XMLID_586_" class="st7" d="M230.4,271.4h-43.6l7.8-23c0.3-0.8,1.1-1.3,2-1.3h39.3c1.4,0,2.4,1.2,2,2.5L230.4,271.4z"/>
			<path id="XMLID_585_" class="st7" d="M229.6,272.9h-43v-1.5l43.8-2v2.8C230.4,272.6,230,272.9,229.6,272.9z"/>
			<path id="XMLID_582_" class="st8" d="M212.9,259.8c-0.9,0-1.7-0.7-1.1-1.7c0.2-0.4,0.7-0.6,1.2-0.7c0,0,0,0,0.1,0
				c0,0,0.1,0,0.1,0C214.6,257.8,214.5,259.9,212.9,259.8z"/>
		</g>
		<path class="st3" d="M185.8,258.3c-0.1,0.3-0.3,0.6-0.5,0.9c-0.2,0.3-0.4,0.6-0.6,0.9c-0.1,0.2-0.3,0.4-0.4,0.6"/>
	</g>
	<path d="M165.5,223.9c1.3,1.7,3.1,2.9,4.3,4.7c0.1-1.1,0.3-2.2,0.4-3.4c0.1-0.6,0.3-1.2,0.4-1.7
		C168.9,223.9,167.4,224.4,165.5,223.9z"/>
	<path d="M167.6,219.7c0.1,0.6,0.5,1.1,1.1,1.2c0.6,0.1,1.2-0.1,1.6-0.5c0.4-0.4,0.6-1,0.5-1.6c0,0-0.1,0-0.1,0.1"/>
	<path d="M161.5,217.5c-0.3-0.1-0.7,0-0.9,0.3c-0.2,0.3-0.3,0.7-0.1,0.9c0.2,0.3,0.5,0.5,0.9,0.4"/>
	<path class="st9" d="M192.4,313.4c-0.2-2.1,0-4.1,0.6-6.1c0.4-1.5,0.9-2.8,0.6-4.3c-0.3-1.5-0.6-2.7,0-4.2"/>
	<path class="st9" d="M211.7,284.5c3.5,8.9,0.5,18.8-2,28c-1.6,6-3,12.1-4.1,18.2"/>
	<path d="M145.3,268.4c-0.1,0.4,0,0.8,0.2,1.1c0.1,0.2,0.2,0.3,0.4,0.4c0.4,0.2,0.9,0.2,1.4,0.1"/>
	<path d="M167.7,249.6c0,0,0.1-0.1,0.1-0.1"/>
</g>
<g>
	<circle cx="259.7" cy="146.3" r="6"/>
	<circle cx="380.7" cy="146.3" r="6"/>
	<circle cx="138.7" cy="146.3" r="6"/>
	<path class="st7" d="M160,144.1v-0.2c0-11.7-9.5-21.2-21.2-21.2l0,0c-11.7,0-21.2,9.5-21.2,21.2v0.2H160z"/>
	<path class="st7" d="M401.7,144.1v-0.2c0-11.7-9.5-21.2-21.2-21.2l0,0c-11.7,0-21.2,9.5-21.2,21.2v0.2H401.7z"/>
	<line class="st10" x1="380.9" y1="89.5" x2="380.9" y2="122.7"/>
	<path class="st7" d="M280.7,144.1v-0.2c0-11.7-9.5-21.2-21.2-21.2l0,0c-11.7,0-21.2,9.5-21.2,21.2v0.2H280.7z"/>
	<line class="st10" x1="259.9" y1="89.5" x2="259.9" y2="122.7"/>
	<line class="st10" x1="139.7" y1="89.5" x2="139.7" y2="122.7"/>
</g>
<g>
	<path class="st3" d="M351,259.2c0,1,0.1,1.5-0.8,1.8c-0.9,0.4-2.3,0.3-3.3,0.5c-2.1,0.4-4.2,1-6.1,2.2c-3.1,2-6.9,2.4-10.2,4.5
		c-0.5,0.3-1.1,0.7-1.7,0.9c-0.8,0.2-1.6,0.1-2.4,0.1c-2.3-0.1-4.8,0.5-6.5,2.2c-0.6,0.6-1,1.4-0.6,2.2c0.2,0.4,0.6,0.6,1,0.8
		c2.8,1.3,5.8,0.4,8.6-0.6c2.3-0.9,5.2-1.1,7.6-1.3c4.1-0.3,8.3-0.1,12.3-0.9c2.2-0.5,4.4-1,6.4-2c1.8-0.9,4.1-1.8,5-3.8
		c0.2-0.4,0.3-0.8,0.4-1.2c0.8-3,1.5-6,2.3-9c0.6-2.3,0.5-4.7,0.4-7c-0.1-2-0.4-4-1-5.8c-0.5-1.4-0.9-3.2-1.7-4.4
		c-0.8-1.2-2.2-2.1-3.7-2.2c-3-0.3-5.8,1.6-5.6,4.8c0.2,3.8-1,7.6-0.2,11.4c0.1,0.5,0.2,0.9,0.2,1.4c0,0.5-0.1,0.9-0.2,1.4
		C351.1,256.3,351.1,257.7,351,259.2z"/>
	<g>
		<path id="XMLID_9_" class="st4" d="M341.3,327.8c1.2,1.8,2.1,3.5,1.7,5.9c-0.5,3.5-3.3,5.8-4.1,9.2c-0.1,0.3-0.1,0.6,0,1
			c0.2,0.6,0.8,1.1,1.4,1.3c3.3,0.9,6.2-4,8.1-5.9c2.3-2.4,4.7-4.7,7-7.1c0.6-0.6,0.5-1.8-0.2-2.5l-7.9-8.1l-1.2-1.2
			c-1.9-2-4.8-2.2-6.4-0.5c-1.4,1.5-1.3,4.1,0.1,6.1C340.5,326.6,340.9,327.2,341.3,327.8z"/>
		<g>
			
				<rect id="XMLID_106_" x="367.6" y="295.1" transform="matrix(-1 -1.224647e-16 1.224647e-16 -1 736.9774 628.7676)" class="st4" width="1.8" height="38.6"/>
			<path id="XMLID_105_" class="st5" d="M383.8,341.8c0-5.7-10.1-8.1-15.1-8.1c-6,0-15.1,2.2-15.1,8.1"/>
			<line id="XMLID_104_" class="st5" x1="368.5" y1="343.3" x2="368.5" y2="333.8"/>
			<path id="XMLID_103_" class="st4" d="M351.1,343.2c0,1.4,1.1,2.5,2.5,2.5c1.4,0,2.5-1.1,2.5-2.5c0-1.4-1.1-2.5-2.5-2.5
				C352.2,340.7,351.1,341.8,351.1,343.2z"/>
			<path id="XMLID_102_" class="st4" d="M366.1,343.2c0,1.4,1.1,2.5,2.5,2.5s2.5-1.1,2.5-2.5c0-1.4-1.1-2.5-2.5-2.5
				S366.1,341.8,366.1,343.2z"/>
			<path id="XMLID_100_" class="st4" d="M381.1,343.2c0,1.4,1.1,2.5,2.5,2.5c1.4,0,2.5-1.1,2.5-2.5c0-1.4-1.1-2.5-2.5-2.5
				C382.2,340.7,381.1,341.8,381.1,343.2z"/>
			<path id="XMLID_99_" class="st3" d="M370.2,282.1v-28.4c0-4.9,4-8.9,8.9-8.9h9.8c4.9,0,8.9,4,8.9,8.9v31.8
				c0,7-5.7,12.8-12.8,12.8h-14.7h-17.3c-0.8,0-1.5-0.7-1.5-1.5l0,0c0-0.8,0.7-1.5,1.5-1.5h4C364.3,295.2,370.2,289.3,370.2,282.1z"
				/>
		</g>
		<path id="XMLID_98_" class="st4" d="M338.7,336.9c-0.4,2.1-0.9,3.9-2.8,5.4c-2.8,2.2-6.4,1.9-9.3,3.8c-0.3,0.2-0.5,0.4-0.7,0.7
			c-0.3,0.6-0.2,1.4,0.1,1.9c1.8,2.9,7.2,1.4,9.9,1.4c3.3-0.1,6.7-0.1,10-0.2c0.9,0,1.6-0.9,1.6-1.9l0-11.3l0-1.7
			c0-2.8-1.9-4.9-4.2-4.8c-2,0.1-3.7,2-4.1,4.5C338.9,335.4,338.8,336.2,338.7,336.9z"/>
		<g>
			<path class="st11" d="M357.2,265.7L357.2,265.7c0,0,0-0.1,0-0.1L357.2,265.7z"/>
			<polygon class="st11" points="363.9,233.9 363.8,234.5 363.8,234.5 			"/>
			<path class="st11" d="M357.3,265.2c0,0.1-0.1,0.2-0.1,0.4L357.3,265.2C357.3,265.1,357.3,265.2,357.3,265.2z"/>
			<polygon class="st11" points="350.6,240.9 351.7,232.2 350.6,240.9 			"/>
			<path d="M352,232.3c0.8-2.3,2.1-4.5,4.3-5.6c0.7-0.3,1.4-0.6,2.1-0.8c1.8-0.6,3.7-1.2,5.6-1.5c0.3,0,0.7,0,0.8,0.3
				c0,0.1,0,0.2,0,0.4c-0.1,0.5,0.2,0.9,0.1,1.4c-0.1,0.6-0.3,1.3-0.5,1.9c-0.3,1.3-0.7,2.6-0.5,4c0.2,2-0.9,3.7-0.9,5.6
				c-0.1,0.3-1,4.8-1,4.8c0,0-11.4-1.9-11.4-1.9C351,238,351.1,235,352,232.3z"/>
		</g>
		<path d="M323.7,288.5c-0.1-1.1,0-2.3,0.4-3.7c0.8-2.5,3.3-4.2,5.8-5c2.6-0.7,5.3-0.7,7.9-0.8c5.3-0.2,10.6-1.9,15.9-1.6
			c1.4,0.1,2.7,0.4,4.1,0.4c3.6-0.1,6.6-3.2,10.2-3.4c1.2-0.1,2.4,0.2,3.5,0.5c1.8,0.6,3.7,1.5,4.9,2.9c2.5,2.9,2.3,7.3,0.8,10.8
			c-0.6,1.4-1.3,2.8-2.4,3.9c-1.5,1.6-3.5,2.5-5.5,3.1c-2.3,0.8-4.2,0.7-6.7,0.7c-5.4,0-10.8-0.1-16.2-0.1c-4,0-7.9,0.5-11.9,0.2
			C329.8,295.9,324.3,293.4,323.7,288.5z"/>
		<path d="M327.7,281.1c2-1.5,4.3-2.2,7-1.2c1.4,0.5,2.6,1.4,3.5,2.5c4.8,5.5,5.8,14.6,7.2,21.5c0.8,4,1.6,8,2.2,12.1
			c0.2,1.2,2.2,11.5,1.5,11.8c-0.7,0.3-11.8,1.4-11.7,1.6c-2.1-5.6-4.7-11.1-6.4-16.8c-1-3.2-2.6-6.2-3.9-9.3
			c-1.5-3.6-2.9-7.6-3.6-11.5C322.8,287.4,324.2,283.8,327.7,281.1z"/>
		<path id="XMLID_94_" class="st6" d="M357.5,289.2c-0.1,0.2-0.3,0.4-0.4,0.5c-3.4,5.4,5.7,6.7,9,6.7c0,0,11.6,0,11.6,0
			c6.7,0,11.9-3.4,12.1-10c0,0,0-20,0-20c-4.8,0-9.5,0-14.3,0c-2.9,0-6-0.4-8.9,0c-2,0.3-1.8-0.2-2.6,1.8c-1.1,2.5-0.5,6.5-1,9.2
			c-0.6,3.5-1.7,6.9-3.9,9.7C358.6,287.9,358,288.5,357.5,289.2z"/>
		<path class="st7" d="M347.1,305.9c-0.7-0.3-1.7-1.6-2.5-1.4c-0.8,0.2-1.4,1.6-1.7,2.2c-0.9,1.7-1.4,3.6-2.6,5.1
			c-0.1,0.1-0.2,0.3-0.4,0.3c-0.4,0.1-0.8-0.1-1.1-0.4c-2.4-2.2-2.6-6.5-2.8-9.5c-0.3-5,2.3-10.1,6.6-12.8c1.4-0.9,3-1.5,4.5-2.2
			c4.9-2.2,9.7-4.8,14.2-7.8c2-1.3,3.8-2.2,6-3c3.7-1.4,7.7-1.9,11.6-1.2c4.8,0.8,9.5,1.7,11,8.5c1.2,5.3-0.9,10.1-4.4,11.4
			c-0.1,0-0.2,0-0.2,0.1l-32.9,11c-0.1,0-0.1,0.1-0.2,0.1c-0.2,0.1-0.4,0.1-0.5,0.2C350.2,306.7,348.6,306.4,347.1,305.9z"/>
		<path d="M358,228.9c0.3-0.8,0.7-1.5,1.3-2c3-2.8,7.8-2.7,11.7-2.8c2.5-0.1,5.1,0,7.5,0.4c2.7,0.4,4.7,1.5,7,2.6
			c1.3,0.7,2.7,1.3,3.8,2.4c2.5,2.4,3,6.1,3.1,9.5c0.1,3.4-2.9,38.4-2.7,38.4c-4.4-0.2-8.8-0.2-13.2-0.5c-2.3-0.1-4.5-0.2-6.7-0.4
			c-1.2-0.1-2.5,0-3.7-0.1c-1.4-0.2-1.2-0.7-2.2-1.3c-0.5-0.3-0.9-0.1-1.2-0.5c-0.3-0.3-0.1-1.6-0.2-2c-0.1-1.5-0.1-2.9-0.3-4.4
			c-0.2-1.6-0.6-3.2-0.7-4.9c-0.3-4.1-0.5-8.3-1.4-12.4c-0.8-3.6-2.1-7.2-2.9-10.8c-0.5-2.5-0.7-5.2-0.2-7.7
			C357.4,231.1,357.6,229.9,358,228.9z"/>
		<path class="st3" d="M374.1,218.4c0.5-0.7,0.4-0.6,0.6-1.5l2.2-9.3l-13-3l-1.6,9.4c-0.6,2.4,0.3,4.7,2,6.2l1,6.5
			c0.4,2.7,2.9,4.6,5.6,4.1c2.7-0.5,4.5-3.1,3.8-5.8L374.1,218.4z"/>
		<path d="M365.1,221.9c1.5-0.1,3.2-0.7,3.6-2.3c0,0.1-0.3,0.2-0.4,0.2c-0.8,0.3-1.6,0.3-2.4,0.2c-0.5,0-1.1-0.1-1.5-0.4
			c0,0-0.1-0.1-0.1-0.1c0,0-0.1,0-0.1,0.1c-0.1,0.2-0.1,0.6,0.1,0.8c0.2,0.2,0.3,0.3,0.4,0.5c0.1,0.2,0.1,0.5,0.1,0.7
			C364.7,221.8,364.9,221.8,365.1,221.9z"/>
		<path id="XMLID_86_" class="st4" d="M363.2,206.6c0.9,0.3,1.9,0.5,2.8,0.8c1.3,0.3,2.7,0.6,4,1c3.5,1,2.7,4.5,2.8,7.5
			c0,0.8,0.1,1.8,0.7,2.2c1.9,1.3,2.3-2.7,2.8-3.6c0.3-0.5,0.6-0.9,0.8-1.4c0.4-1.1,0-2.3,0.2-3.4c0.1-0.5,0.2-1,0.3-1.5
			c0.2-2.2-1.8-4.1-3.6-5c-1.4-0.7-2.9-1.7-3.8-3c-0.1-0.2-0.3-0.5-0.5-0.6c-0.2-0.1-0.3-0.2-0.5-0.3c-1.1-0.4-2.3-0.2-3.2,0.5
			c-0.3,0.2-0.5,0.5-0.8,0.6c-0.5,0.2-1.1,0.1-1.6,0c-0.8-0.1-1.6,0.2-2.2,0.7c-0.6,0.5-0.9,1.4-0.5,2.1c0.2,0.4,0.6,0.8,0.8,1.2
			c0.5,1,0.2,1.8,1.3,2.1C363.1,206.6,363.2,206.6,363.2,206.6z"/>
		<path id="XMLID_84_" class="st1" d="M371.4,214.5c-0.2,0.7,0.3,1.5,1,1.7c0.7,0.2,1.5-0.3,1.7-1c0.2-0.7-0.3-1.5-1-1.7
			C372.4,213.3,371.6,213.8,371.4,214.5z"/>
		<path class="st7" d="M340.6,292.3c-1.2,1.9-2,4.1-2.5,6.3c-0.9,3.5-1.7,7-1.2,10.6c0.2,1,0.4,2.1,0.5,3.1c0.1,1.9-0.5,3.7-0.5,5.6
			c0,1.3,0.3,2.6,0.6,3.9c0.7,3.3,0.9,6.4,0.7,9.7c0,1.1-0.1,2.1-0.1,3.2c0,0.9,0.1,2.1-0.3,2.8c1.3,0.2,2.5,0.3,3.8,0.5
			c2.4,0.3,4.7,0.6,7.1,0.8c0.7,0.1,2.3,0.4,2.9,0c0.5-0.4,0.6-1.7,0.7-2.2c1.1-4.4,2-8.9,1.1-13.4c-0.2-0.8-0.4-1.6-0.5-2.4
			c-0.1-1,0-2.1,0.1-3.1c0.6-4.2,1.6-8.3,2.1-12.6c0.6-4.4,1-8.9,1.3-13.4c0.6-7.9-10.2-5.3-13.9-2
			C341.9,290.5,341.2,291.4,340.6,292.3z"/>
		<path class="st4" d="M307.8,194.2c-0.1,0-0.2,0-0.3,0C307.5,194.2,307.8,194.1,307.8,194.2z"/>
	</g>
	<path class="st3" d="M377.4,233.2c-1.4,1.3-3.6,2.4-5.2,3.4c-1.4-1.3-3.1-2.2-4.9-2.8c-1-0.3-2.1-0.5-3.1-0.8
		c-4.5-1.7-8-5.1-12.7-6.6c-2.3-0.8-4.9-1.3-6.5-3.2c-2-2.3-2.3-5.7-3.8-8.3c-0.6-1-1.5-1.9-2.6-0.8c-0.9,0.9-0.6,2.5-0.4,3.6
		c0.3,1.6,0.6,3.3,1,4.9c0.5,2.4,0.8,3.2,2.9,4.4c2.1,1.2,4.3,2.6,5.9,4.4c1.1,1.2,2,2.5,3,3.7c3.6,4.2,9,6.5,13,10.3
		c1.9,1.8,4,4.3,7,3.5c1-0.3,12.2-3.2,11.8-3.9c-1.4-2.4-2.4-4.7-3.4-7.3C378.7,236.3,377.9,234.8,377.4,233.2z"/>
	<path class="st12" d="M389.7,240.1c-1.6,2.5-4.1,4.5-6.9,5.4"/>
	<path class="st3" d="M300.3,200.8c0,0,0,0.1,0,0.1"/>
	<g>
		<path d="M347.1,263.7h-49c-0.8,0-1.6-0.6-1.8-1.4l-6.1-28.2c-0.2-1.1,0.6-2.2,1.8-2.2h49c0.8,0,1.6,0.6,1.8,1.4l6.1,28.2
			C349.1,262.7,348.2,263.7,347.1,263.7z"/>
		<path d="M320.3,271.7l1-11.6c0.1-1.1-0.8-2-1.9-2c-1,0-1.8,0.7-1.9,1.7l-1,11.9h-7.1v1.2h18.1v-1.2H320.3z"/>
		<path class="st1" d="M311.9,238.4c-0.1-1.2-2-1.2-1.9,0c0.1,1.3,0.3,2.6,0.4,3.9c0.1,1.2,2,1.2,1.9,0
			C312.2,241,312.1,239.7,311.9,238.4z"/>
		<path class="st1" d="M315.7,238.4c-0.1-1.2-2-1.2-1.9,0c0.1,1.3,0.3,2.6,0.4,3.9c0.1,1.2,2,1.2,1.9,0
			C316,241,315.8,239.7,315.7,238.4z"/>
		<path class="st1" d="M319.5,238.4c-0.1-1.2-2-1.2-1.9,0c0.1,1.3,0.3,2.6,0.4,3.9c0.1,1.2,2,1.2,1.9,0
			C319.8,241,319.6,239.7,319.5,238.4z"/>
		<path class="st1" d="M323.3,238.4c-0.1-1.2-2-1.2-1.9,0c0.1,1.3,0.3,2.6,0.4,3.9c0.1,1.2,2,1.2,1.9,0
			C323.5,241,323.4,239.7,323.3,238.4z"/>
		<path class="st1" d="M327,238.4c-0.1-1.2-2-1.2-1.9,0c0.1,1.3,0.3,2.6,0.4,3.9c0.1,1.2,2,1.2,1.9,0
			C327.3,241,327.2,239.7,327,238.4z"/>
	</g>
	<path d="M358.6,264c0.1,0.9,0.1,1.9-0.5,2.4c-0.4,0.3-0.9,0.4-1.4,0.5"/>
	<path class="st4" d="M368.2,245.5c0.1,0.6,0.6,1.2,1.3,1.3c0.6,0.1,1.3-0.1,1.7-0.7"/>
	<path class="st4" d="M250.9,206c0.3-0.1,0.5-0.3,0.6-0.6C251.6,205.4,250.8,206,250.9,206z"/>
</g>
<g>
	<rect id="XMLID_599_" x="112.7" y="272.8" width="305.1" height="3.4"/>
	<polygon id="XMLID_597_" points="414.6,352.9 412.3,352.9 393.3,273.5 395.6,273.5 	"/>
	<polygon id="XMLID_8_" points="393.6,352.9 391.2,352.9 372.3,273.5 374.6,273.5 	"/>
	<polygon id="XMLID_3_" points="116.7,352.9 119,352.9 138,273.5 135.7,273.5 	"/>
	<polygon id="XMLID_19_" points="137.7,352.9 140,352.9 159,273.5 156.7,273.5 	"/>
</g>
<path d="M299,306.5c-1-4.8-9.7-4.5-13.7-5.1c-5.3-0.9-10.7-1.8-16-2.8c-1.2-0.2-2.5-0.4-3.6,0.3c-0.6,0.4-1,1-1.4,1.5
	c-1.6,2.3-2.9,4.8-3.4,7.4c-0.4,2.6,0.2,5.5,2.2,7.2c1.8,1.5,4.3,1.9,6.7,2.2c1.5,0.2,2.9,0.5,4.3,0.8c0.8,0.1,1.7,0,2.4,0.5
	c2.1,1.4,1.5,4.8,1,6.9c-0.5,2.1-1.2,4.2-0.7,6.2c0.1,0.5,0.4,1,0.5,1.6c0.1,0.7,0,1.4-0.1,2.1c-0.7,3.7-2,7.7-0.5,11.2
	c0.2,0.4,0.4,0.8,0.5,1.3c0.1,0.4,0,0.8,0,1.1c-0.3,2.5-0.6,5-0.9,7.5c0,0,8.6,0.4,9.2,0.4c1,0,3.2,0.4,4.1-0.2
	c1.4-0.8,1.7-5,1.9-6.5c0.3-2.2,0.5-4.4,0.9-6.5c0.8-3.9,2.4-7.6,3.1-11.5c0.4-1.9,0.2-4,0.6-5.9c0.3-1.6,0.7-3.2,1-4.9
	c0.7-4,1.3-7.9,2-11.9c0.2-0.9,0.3-1.8,0.2-2.7C299,306.7,299,306.6,299,306.5z"/>
<path class="st7" d="M297.3,328.8c-0.3,0.7-0.5,1.3-0.8,2c-0.6,1.7-1.3,3.4-1.4,5.1c-0.1,1.8,0.4,3.5,0.4,5.3c0.1,3-1.5,5.6-1.5,8.6
	c0,1.1,0.3,2.2,0.4,3.3c0.1,1.1-0.1,2.2-0.2,3.3c-0.2,1.8-0.5,3.6-0.7,5.3c-0.2,1.5-0.7,2.4,1,2.6c4.4,0.4,8.7-0.2,13.1-0.5
	c0.2,0,0.4,0,0.5-0.2c0.1-0.1,0.1-0.2,0.2-0.4c1.6-6.2,3.1-12.1,3.9-18.5c0.1-0.6,0.1-1.1,0.4-1.7c0.3-0.7,0.9-1.2,1.3-1.7
	c1.1-1.4,1.2-2.9,1.6-4.5c0.5-1.6,1-3.1,1.4-4.7c0.8-3.9,1.7-7.8,2.5-11.6c0.7-3.2,1.5-6.1-0.2-9.2c-0.6-1-1.4-1.8-2.3-2.5
	c-7.7-6.2-17.5-9.9-27.4-10.2c-3.7-0.1-8.4-0.4-9.7-3.8c-0.5-1.3-0.4-2.8-0.6-4.1c-0.6-4-6.9-5-10.1-3.9c-4.4,1.4-5.8,6.9-6.3,11.5
	c-0.4,3.8-0.7,7.6,0.4,11.3c1.6,5.4,6.1,9.6,11.3,11.9c4.1,1.8,8.5,2.4,12.9,2.7c3.4,0.2,6.7-0.4,10-0.8c2.4-0.3,2,0.4,1.2,2.4
	C298.1,326.8,297.7,327.8,297.3,328.8z"/>
<path class="st3" d="M267.8,228.7c0.1,0.6,0.2,1.2,0.3,1.8c0.2,1.2,0.3,2.5-0.5,3.4c-0.5,0.5-1.1,0.8-1.6,1.3
	c-0.7,0.7-0.7,1.9-0.6,2.8c0.2,1.2,0.2,2.2,0.3,3.4c0.1,1.2,0.6,2.4,0.6,3.7c-0.1,2.4-1.9,4-4.2,3.9c-1.4-0.1-2.9-0.3-3.8-1.4
	c-0.4-0.5-0.6-1.2-0.7-1.9c-1.1-5-2.3-10.2-1-15.1c0.5-1.8,1.1-4,2.2-5.5c0.8-1.1,1.7-2.6,2.7-3.5c1-0.8,2.5-1.1,3.6-0.3
	c0.7,0.5,1,1.4,1.3,2.2C266.9,225.2,267.4,227,267.8,228.7z"/>
<path class="st3" d="M280.4,249.3c0.3-1.8,1.3-3.5,2.9-4.5c1.7-1,3.5-2,5.4-2.7c0.3-0.1,0.5-0.2,0.8-0.3c5-1.8,10.2-2.9,15.1-4.9
	c5.4-2.2,10.7-4.9,16-7.3c3.6-1.7,7-3.4,10.2-5.8c2.7-2,1.8-6.1,3.1-8.8c0.6-1.2,1.6-2.4,2.6-0.8c0.9,1.5,0.6,3.5,0.9,5.2
	c0.2,1.7,0.4,3.3-0.3,4.9c-0.5,1.1-1.5,2-2.4,2.8c-0.9,0.8-1.8,1.6-2.6,2.4c-1,0.9-2,1.9-3.1,2.7c-3.4,2.5-6.6,5.2-9.7,8.1
	c-3.1,2.8-5.9,5.7-9.4,8c-3.4,2.2-7.3,4.1-11.2,5.1c-0.1,0-0.1,0-0.2,0.1c-3.9,1.1-7.5,2.6-11.6,2.2
	C283.6,255.2,279.8,253.1,280.4,249.3z"/>
<path d="M278,289.5c0,0.1-10.7,0.7-11.7,0.7c-1.9,0.1-4.4,0.7-6.3,0.4c-1.2-0.2-1.7-1.5-3.2-1.2c-0.9,0.2-1.9,0.5-2.5-0.1
	c-0.4-0.4-0.5-1-0.5-1.6c-0.2-4-0.4-8-0.7-12.1c-0.2-3.3-4.3-4.2-6.7-5.7c-1.6-1-3.3-2.1-4.9-3.1c3.1-6.6,7.3-12.3,12.3-17.5
	c5.2-5.5,9-6,16.6-6c6.2-0.1,12.4-0.9,18.4-2.4c1.4,5.1,3,10.2,4.3,15.3c-3.5,1.9-7.8,3.3-11.6,4.6c-1.1,0.4-2.4,0.9-3,2
	c-0.5,0.8-0.5,1.8-0.5,2.8C278.1,273.5,278.1,281.5,278,289.5z"/>
<g>
	<line class="st13" x1="411.4" y1="406.1" x2="393.1" y2="406.1"/>
	<g>
		<g>
			<path d="M397.6,360.2c0-0.2,0-0.4,0.1-0.5c0.3-2,1.9-3.5,2.9-5.1c1-1.6,1.6-3.5,1.7-5.5c0.2-3.6,0-8.3,1.6-11.6
				c1.4-3,4.8-4.7,6.5-7.5c0.9-1.6,1.2-3.4,1.7-5.2c0.7-2.8,1.7-5.7,3.7-7.9c1.5-1.7,3.4-3,5.3-4.3c1.8-1.2,3.7-2.5,5.8-3.2
				c2.7-1,5.8-1.3,7,1.5c1,2.3,0.5,5.5-0.6,7.6c-0.9,1.9-2.4,3.4-3.8,4.9c-2.4,2.7-4.7,5.6-6.6,8.6c-0.6,0.8-1.1,1.7-1.2,2.7
				c-0.1,1,0.2,1.9,0.3,2.9c0.6,4.9-1.4,8.9-5.2,11.9c-3,2.4-4.9,3.7-5.6,7.8c-0.5,2.5-0.7,5.2-2.1,7.4c-0.6,0.9-1.3,1.6-2,2.4
				c-2.5,3-4.1,6.8-4.5,10.7c-0.2,2-0.6,6.4-3.7,5.5c-3.8-1.1-3.4-12.3-2.2-14.9c0.5-1.1,1.2-2.2,1.4-3.4
				C398.1,363.4,397.5,361.8,397.6,360.2z"/>
			<path class="st7" d="M381.9,366.7c-0.8-0.6-1.5-1.3-2-2.2c-1.2-2.5,0.6-4.1,0.8-6.5c0.1-2.1-1.7-3.4-2.8-4.9
				c-1.4-1.8-1.8-4.5-0.8-6.6c0.4-0.9,1.1-1.9,0.9-2.9c-0.1-0.7-0.6-1.3-1-2c-1.1-1.8-1.2-4.2-0.1-6.1c0.6-1.1,1.5-2,1.7-3.2
				c0.2-0.8,0-1.6-0.1-2.4c-0.5-2.6-0.9-5.2-0.8-7.8c0.1-1.1,0.3-2.3,0.9-3.3c0.6-0.8,1.6-1.5,2.7-1.2c1.1,0.3,1.3,1.2,1.7,2.1
				c1.1,2.6,1.4,4.9,1.9,7.7c0.1,0.5,0.2,1,0.5,1.4c0.3,0.4,0.8,0.7,1.3,1c3,1.9,5.4,5.1,5.3,8.6c0,2.1-0.8,4-0.9,6.1
				c0,0.5,0.1,1.1,0.4,1.5c0.3,0.4,0.8,0.6,1.2,0.8c1.3,0.6,2.5,1.6,3.1,2.9c0.7,1.5,0.5,3.2,0,4.8c-0.5,1.6-1.3,3-1.8,4.5
				c-0.1,0.4-0.2,0.8-0.2,1.2c0.1,1,0.9,1.4,1.4,2.1c0.6,0.8,0.6,1.3,0.9,2.1c0.8,2.3,1.6,4.1,1.2,6.6c-0.1,1-0.4,1.9-0.5,2.9
				c-0.2,2,0.3,3.9,0.6,5.9c0.2,1.3,0.7,4.3-0.6,5.2c-1.1,0.8-2.8-0.5-3.7-1.1c-3-1.8-5.2-3.2-5.7-6.8c-0.3-2.6,0-5.6-1.7-7.7
				C384.7,368.3,383.2,367.6,381.9,366.7z"/>
			<path class="st7" d="M401.9,368.3c0.7-1.9,1.7-3.8,3-5.4c0.9-1.2,1.9-2.3,2.7-3.6c1.3-2,2-4.4,3.2-6.5c1.9-3.2,5.7-5,9.2-3.2
				c1.2,0.6,2.3,1.6,3.3,2.5c1.1,1,2.3,2.1,3.2,3.3c1.9,2.5,3,5.4,4,8.3c1.2,3.4,2.5,6.9,3.7,10.3c0.6,1.6,2,5.4,0.6,7
				c-1.3,1.6-4.2-0.7-4.8-2c-0.4-0.9-1-1.6-1.7-2.2c-0.9-0.7-2.2-1.2-2.7-2.3c-0.6-1.1-0.5-2.7-1.6-3.3c-0.3-0.2-0.7-0.2-1-0.3
				c-1-0.3-1.6-1.2-2.1-2.1c-1.2-2-2.1-4.2-3.3-6.1c-0.8,0.2-1.5,2.7-2.1,3.4c-0.8,1.1-1.8,2.1-2.9,2.9c-1.7,1.2-3.8,2-4.9,3.8
				c-0.6,1-0.9,2.1-1.2,3.3c-0.5,1.6-2,6.2-4.4,5.4c-1.7-0.5-1.6-3.4-1.6-4.7C400.3,373.9,400.9,371,401.9,368.3z"/>
			<path d="M414.9,378h-35.7v4.5h2.9l2.3,13.2c1.1,6.1,6.4,10.6,12.7,10.6l0,0c6.2,0,11.6-4.5,12.7-10.6l2.3-13.2h2.9V378z"/>
			<line class="st9" x1="381" y1="382.8" x2="413" y2="382.8"/>
		</g>
	</g>
</g>
<g>
	<path class="st14" d="M267,299.4c2.9,0.3,5.8,0.7,8.6,1c5.2,0.6,10.8,1.5,14.3,5.2c2.2,2.4,3.3,5.6,3.7,8.8c0.3,3.2,0,6.5-0.4,9.7"
		/>
	<rect id="XMLID_24_" x="259.4" y="323" class="st4" width="1.8" height="38.6"/>
	<path id="XMLID_23_" class="st5" d="M244.9,369.7c0-5.7,10.1-8.1,15.1-8.1c6,0,15.1,2.2,15.1,8.1"/>
	<line id="XMLID_15_" class="st5" x1="260.2" y1="371.2" x2="260.2" y2="361.7"/>
	<path id="XMLID_14_" class="st4" d="M277.7,371.1c0,1.4-1.1,2.5-2.5,2.5c-1.4,0-2.5-1.1-2.5-2.5c0-1.4,1.1-2.5,2.5-2.5
		C276.6,368.6,277.7,369.7,277.7,371.1z"/>
	<path id="XMLID_12_" class="st4" d="M262.7,371.1c0,1.4-1.1,2.5-2.5,2.5s-2.5-1.1-2.5-2.5c0-1.4,1.1-2.5,2.5-2.5
		S262.7,369.7,262.7,371.1z"/>
	<path id="XMLID_11_" class="st4" d="M247.7,371.1c0,1.4-1.1,2.5-2.5,2.5c-1.4,0-2.5-1.1-2.5-2.5c0-1.4,1.1-2.5,2.5-2.5
		C246.5,368.6,247.7,369.7,247.7,371.1z"/>
	<path id="XMLID_10_" class="st3" d="M272.1,308.4v-33.2c0-5.7-5.3-10.4-11.8-10.4h-12.9c-6.5,0-11.8,4.7-11.8,10.4v37.1
		c0,8.2,7.6,14.9,16.8,14.9h19.4h22.8c1.1,0,2-0.8,2-1.8v0c0-1-0.9-1.8-2-1.8h-5.3C279.9,323.7,272.1,316.9,272.1,308.4z"/>
</g>
<path class="st3" d="M249.7,219.5c-1.8,0.1-3.5,0.2-5.1,0.8c-3.2,1.1-4.7,3.5-6.3,6.2c-1.6,2.7-4.4,4.3-6.5,6.6
	c-3.8,4.3-4.3,11.2-1.2,16c1,1.6,2.4,2.9,3.9,4.1c8.4,6.4,22.1,1.8,27-7.1c2.6-4.7,1.6-10.5,0.5-15.8c-0.6-2.9-0.2-5.2,2.8-6.7
	c0.8-0.4,1.6-0.6,2.3-1.1c1.8-1.2,2.4-3.7,1.6-5.6c-0.8-2-2.8-3.3-4.9-3.5c-0.9-0.1-1.8,0-2.7,0.3c-2,0.8-3.1,3-4.9,4.2
	C254.4,219.2,252.1,219.3,249.7,219.5z"/>
<path d="M305.1,246.7c-0.1,0-0.1,0.2,0,0.3c0.4,0.6,1.1,0.9,1.8,0.8c0.7-0.1,1.3-0.4,1.8-0.9"/>
<g>
	<path class="st3" d="M103.9,360.7c2.4-0.2,5.1,0,7.7,0.7c0-4.3-0.1-8.7-0.4-13.1c-0.1-2.9-1.2-5.6-4.6-6.1c-2-0.3-3.6,0.3-4.2,2
		C100.9,348.2,102.8,356.1,103.9,360.7z"/>
	<path d="M93.7,326.1c0.3,2.8-0.2,5.9-0.3,8.8c-0.1,3.2,1.4,5.7,1.8,8.8c0.3,2.9,0.4,6,0.3,9c0,0.1,0.1,0.2,0.2,0.2h18.9
		c0.1,0,0.2-0.1,0.2-0.2c0.2-1.9,0.4-3.6,0.4-3.6c0.3-2.8,0.3-5-0.4-7.7c-0.3-1.1-0.6-2.3-0.8-3.4c-0.3-1.8-0.6-3.7-0.7-5.5
		c-0.3-2.8-0.3-5.6-0.5-8.4c-0.2-2.7-0.7-5.4-1.2-8.1c-1.4-8.1-2.8-16.3-4.8-24.3c-1-4-2.1-8-3.4-12c-1.6-4.7-3.5-9.2-6-13.4
		c-1.5-2.6-3.3-5.4-6.3-6.3c-2.4-0.7-5-1.1-7.4-0.1c-3.2,1.3-5.6,3.9-8.3,6.1c-0.4,1.7-0.7,3.5-1.1,5.2c-0.8,4.1,0.3,8.9,2.3,12.6
		c0.7,1.4,1.7,2.6,2.3,4.1c0.9,2.1,1.1,4.5,1.8,6.7c0.7,2.2,1.8,4.2,2.9,6.2C87.7,308.3,92.8,317.3,93.7,326.1z"/>
	<path class="st3" d="M121.2,262c0.4,1.8,0.1,4.1,1.3,5.7c1.2,1.6,4.7,2.1,6.5,2.8c0.4,0.1,0.8,0.3,1.1,0.6c0.7,0.8,0.1,2.1-0.9,2.5
		c-0.9,0.4-2,0.2-3,0c-2.3-0.5-4.7-1-7-1.6c-0.5-0.1-1-0.2-1.4-0.5c-1.2-0.7-1.6-2.2-1.8-3.5c-1.3-9.7-10.4-16.2-13.5-25.3
		c-0.8-2.3-1.3-4.8-1.8-7.2c-0.7-3.5-1.4-7.1-2.1-10.6c-0.5-2.5-2-4.8-0.5-7.3c1.2-1.9,3.8-2.8,5.9-2c3.4,1.3,4.6,5,5.6,8.1
		c1.5,4.2,2.7,8.1,2.4,12.7c-0.1,1.2-0.2,2.5,0.2,3.6c0.5,1.3,1.5,2.2,2.4,3.2c2.9,3.5,3.4,8.2,4.4,12.5c0.5,2.2,1.6,4.1,2.1,6.3
		C121.1,261.9,121.2,262,121.2,262z"/>
	<path class="st3" d="M69.7,364.8c2.5-0.2,5.1,0,7.5,0.7c1.1-4.2,2.1-8.4,3.1-12.6c0.6-2.8,0.2-5.3-3-5.9c-1.9-0.3-3.7,0.3-4.7,1.9
		C70,352.9,69.9,360.4,69.7,364.8z"/>
	<path d="M89.9,370.1c-1.8,1.1-4,1.3-6,1.2c-0.2,0-0.4,0-0.6,0c-3.2,0-6.4-0.1-9.6-0.3c-1.3-0.1-2.8-0.2-3.9-1
		c-1.3-0.9-1.1-2.5-0.8-3.9c0.3-1.2,0.4-2.4,0.5-3.7c1.5,0.5,3.2,0.9,4.8,0.8c0.9-0.1,1.7-0.3,2.5-0.7c0.4-0.2,0.8-0.4,1.1-0.7
		c0.2-0.1,0.7-0.8,1-0.7c0.2,0,0.4,0.6,0.5,0.8c0.2,0.4,0.6,0.7,0.9,1c0.6,0.6,1.4,1.1,2.2,1.4c0.8,0.3,1.6,0.4,2.3,0.5
		c1.1,0.2,2.2,0.4,3.4,0.7c0.7,0.2,1.4,0.4,2,0.8c0.6,0.4,1.1,1,1.1,1.7c0,0.8-0.5,1.5-1.1,2C90,370,89.9,370,89.9,370.1z"/>
	<path class="st7" d="M123.1,365.2c-0.2,0.9-1.3,1.6-2.2,1.9c-4.3,1.3-8.9,0.1-13.4,0.4c-1.1,0.1-2.2,0.3-3.3,0
		c-2.5-0.6-2.4-3.7-1.8-5.6c0.3-0.9,0.7-1.8,0.5-2.8c2,0.4,4,0.5,6,0.1c0.8-0.1,1.5-0.3,2.1-0.7c0.3-0.2,0.6-0.4,0.9-0.3
		c0.2,0.1,0.3,0.3,0.4,0.5c0.9,1.5,2.3,2.1,3.8,2.9c0.7,0.3,1.2,0.7,1.9,0.9c0.9,0.2,1.8,0.4,2.7,0.6c1,0.2,2.2,0.6,2.5,1.6
		C123.2,364.8,123.2,365,123.1,365.2z"/>
	<path class="st7" d="M92.2,298.9c-0.5-4.6-0.6-9.2-0.9-13.9c-0.2-4.4-0.8-8.8-1.5-13.2c-0.3-1.6-0.1-3.1-0.6-4.6
		c-0.7-2-1.5-4.1-2.6-5.9c-1.6-2.7-4-5.1-7-6.1c-2-0.7-4.3-0.7-6.1,0.4c-1.8,1.1-2.8,2.9-3.7,4.7c-0.5,1.1-1.1,2.2-1.6,3.3
		c-1.2,2.4-2.4,4.9-3.1,7.5s-1,5.4-0.2,8c0.5,1.7,1.4,2.6,2.2,4c1,1.8,1.6,3.8,1.6,5.8c0.1,1.5-0.2,2.9-0.2,4.4
		c-0.1,3.3,0.5,6.6,1.4,9.7c0.3,1.3,0.7,2.5,0.8,3.8c0,1.1-0.1,2.1-0.2,3.2c-0.2,2.9,0.4,5.8,0.5,8.7c0.2,3-0.4,5.3-1.5,8
		c-0.7,1.7-1.1,3.6-1.1,5.5c0,2.9,0.5,5.8-0.4,8.6c-0.3,0.8-0.6,1.6-1,2.5c-1.4,3.5-2,7.3-2.6,11c0,0.2,0.1,0.4,0.3,0.4
		c1.3,0.2,5.8,1.1,6.2,1.1c4.1,0.5,7.8-0.9,11.8,0c0.2,0,0.4-0.1,0.4-0.2c3.1-8.5,5.4-17.1,7.1-26c0.5-2.6,0.1-5,0.2-7.5
		c0-0.9,0.3-2.4,0.6-3.3c1.4-5,2.6-9.7,1.8-15C92.6,302.3,92.4,300.6,92.2,298.9z"/>
	<path d="M98.4,213.7c-1.9-1.7-4.3-2.8-6.7-3.3c-0.9-0.2-1.8-0.2-2.7,0c-0.6,0.2-1.1,0.5-1.6,0.8c-3.7,2.3-6.8,5.5-8.7,9.5
		c-1.5,3.3-2.3,6.8-3,10.4c-0.4,2.1-4.2,27.4-5.4,27.1c1.5,0.4,3,0.7,4.4,1.3c2.1,0.8,4.1,1.6,6.2,2.5c4.1,1.7,8,3.6,12.3,4.6
		c0.6-0.4,1-0.9,1.4-1.7c1-2.2,1.8-4.7,2.1-7.1c1.4-8.8,2-18.2,4.3-26.8c1-3.9,1.7-8.3,0.6-12.2C101.2,216.8,100,215,98.4,213.7z"/>
	<path class="st3" d="M95.6,261.6c1.1,0.5,2.2,1,3.3,1.5c5.2,2.4,10.1,5.4,14.6,8.9c-1.3,1.2-2.5,2.8-2.6,4.6
		c-0.1,1.8,1.3,3.8,3.1,3.7c1-1.2,1.2-2.9,1.9-4.3c1-1.8,3.9-1.7,4.6-3.1c0.7-1.4-0.9-3.3-1.7-4.3c-2.2-2.9-5.7-4.6-8-7.4
		c-0.8-1-1.4-2.2-2.1-3.3c-1.2-1.7-2.7-3.2-4.5-4.3c-3.5-2.2-4.7-5.3-6.4-8.9c-0.5-1.1-1-2.2-1.3-3.4c-0.4-1.5-0.4-3.1-0.6-4.7
		c-0.3-2.2-1.2-4.4-2.2-6.4c-0.9-1.9-1.9-3.7-3.4-5.1c-1.5-1.4-3.6-2.3-5.6-2c-2.5,0.4-4.4,2.7-5.1,5.1c-0.7,2.4-0.5,5-0.2,7.6
		c0.3,2.4,0.6,4.9,1.8,7.1c1.1,2.1,2.7,3.8,3.9,5.9c1.1,1.9,1.7,4,2.7,6.1C89.5,258.5,92.4,260.1,95.6,261.6z"/>
	<path d="M94.1,212.3c-0.5,0.7-0.9,1.5-1.2,2.3c-1.2,4.4,0.5,9.8,2.3,13.7c0.7,1.5,0.9,3.9,2.6,4.7c1.1,0.5,1.9-0.3,2.8-0.8
		c1.1-0.6,2.3-1,3.4-1.6c2.5-1.3,4.9-2.6,7.2-4.1c-1.3-6-4.1-12.1-9.5-15.1c-1.7-1-3.8-1.6-5.6-0.8C95.4,211,94.7,211.6,94.1,212.3z
		"/>
	<path class="st3" d="M87.6,208.1c0.5-1.6,0.9-3.2,1-4.9c0.2-1.9,0.2-3.9,0.9-5.8c1.1-2.8,5-4.6,7.9-3.9c4,1,2.8,7.8,2.5,10.8
		c-0.2,1.5-1.3,2.5-2.1,3.8c-1.3,2-1.5,5.4-1.7,7.8c0,0.3,0,0.6-0.2,0.8c-0.2,0.3-0.5,0.3-0.8,0.4c-1.6,0.4-3.3,0.7-5,0.7
		c-2.2,0-5.7-0.8-4.6-3.6C86.2,212,87,210.1,87.6,208.1z"/>
	<path d="M98.7,188.5c-1.2-0.1-2.5,0.3-3.4,1.1c-0.4,0.4-0.7,0.8-1.2,1c-0.2,0.1-0.5,0.1-0.8,0.2c-2.4,0.4-4.5,1.9-5.8,3.9
		c-0.3,0.5-0.5,0.9-0.6,1.5c-0.1,0.4,0,0.9,0.1,1.3c0.1,1,0.3,2,0.6,2.9c0.1,0.4,0.3,0.9,0.3,1.3c0,0.4,0,0.7,0.1,1.1
		c0.4,1.5,1.9,0.8,2.5-0.2c0.5-0.8,0.8-1.7,1.1-2.5c0.4-1.1,1-2.2,1.9-2.9c0.9-0.7,2.1-0.9,3.2-1.1c1.2-0.2,2.9-0.4,3.7-1.3
		c1-1,1.7-2.4,1.6-3.8c0-0.3-0.1-0.7-0.3-1c-0.2-0.3-0.5-0.6-0.8-0.8C100.2,188.8,99.5,188.5,98.7,188.5z"/>
	<path class="st1" d="M92.9,199.6c-0.4-0.9-1.5-1.2-2.4-0.7c-1,0.5-1.5,1.9-1.3,3c0.2,0.9,1.2,1.6,2,1.1c0.4-0.1,0.8-0.3,1-0.6
		C92.9,201.6,93.3,200.5,92.9,199.6z"/>
	<path d="M91.3,200.7c-0.1-0.5-0.8-0.3-0.7,0.2c0.1,0.4,0,0.7,0.3,1c0.2,0.2,0.4,0.1,0.5-0.1C91.5,201.4,91.3,201.1,91.3,200.7z"/>
	<path d="M91,254.6c-0.1,0.3-0.1,0.6,0,0.9c0.1,0.5,0.6,0.9,1,1.1c0.1,0,0.2,0.1,0.3,0.1c0.3,0,0.6-0.1,0.8-0.3"/>
	<path d="M77.3,228.8c-0.1,0.8-0.2,1.6-0.2,2.6c0.2,3.5,1,6.9,1.8,10.2c1.9-1.8,4.5-2.7,7-3.4c2.7-0.8,5.3-1.6,8-2.5
		c0.8-0.2,1.6-0.6,1.8-1.3c0.1-0.3,0-0.5,0-0.8c-0.5-5-4.2-14.1-10.6-13c-2,0.3-3.6,1.7-5,3.1C78.6,225.3,77.6,226.9,77.3,228.8z"/>
	<path class="st1" d="M90.1,222.1c-0.2-0.1-0.3,0.1-0.2,0.3c1.5,1.6,2.8,3.3,3.7,5.3c1,2.2,1.6,4.6,2.4,6.9c0.1,0.2,0.3,0.1,0.3-0.1
		C95.6,230,93.7,224.8,90.1,222.1z"/>
	<path d="M94.6,206.1c0.1,0.2,0.2,0.5,0.3,0.6c0.2,0.3,0.3,0.7,0.4,1.1c0.5,1.5,1.1,2.9,1.1,4.5c0-1.1,0.6-2,0.9-3
		c0.4-1,1-1.9,1.5-2.8c0.3-0.4,0.4-1.2-0.2-0.7c-0.4,0.3-0.8,0.5-1.3,0.5C96.4,206.5,95.4,206.2,94.6,206.1
		C94.5,206.1,94.5,206.1,94.6,206.1z"/>
	<path d="M96.2,202c0,0.2,0,0.3,0.1,0.5c0.2,0.3,0.4,0.5,0.7,0.7c0.3,0.2,0.6,0.2,0.9,0.1c0.4-0.1,0.7-0.5,0.8-0.9
		c0-0.1,0-0.2,0-0.2"/>
</g>
<g>
	<g>
		<path class="st7" d="M138.4,369.8c0.1-1.5,0.2-2.8,0.2-3.6c0-1.4,0-2.8-0.2-4.2c-0.3-1.9-1.1-3.7-1.8-5.6
			c-1.5-4.1-2.5-8.5-1.6-12.7c0.6-2.8,2.1-5.5,2.7-8.3c0.4-2.1,0.4-4.2,0.8-6.3c0.3-1.7,2.5-7.3,5.1-5.2c0.4,0.3,0.7,0.9,0.9,1.4
			c0.7,2,1.2,4.1,2.2,5.9c1.1,2,2.8,3.6,3.6,5.7c0.8,2,0.7,4.3,0.5,6.4c-0.8,7.5-3.3,14.6-2.3,22.3c0.2,1.3,0.5,11.9-1.4,11.9
			c-0.6,1.7-1.7,4.4-3.7,4.9C137.8,383.6,138,375.2,138.4,369.8z"/>
		<path d="M119.2,382.9c-2.2,2-3.8,4.6-7,5.1c-4.1,0.7-6.1-3.2-4.7-6.7c1-2.3,2.9-4.1,4.7-5.9c1.9-2.1,3.6-4.4,4.9-6.9
			c1-1.9,1.9-3.9,3.6-5.1c1.1-0.8,2.5-1.2,3.8-1.6c2.6-0.7,5.4-1.5,8-0.6c1.6,0.5,3,1.7,4.2,2.9c7.1,7.1,6.5,16.2,4.9,25.3
			c-0.1,0.8-0.4,1.8-1.1,2.2c-1.2,0.6-2.5-0.7-3-2c-1-3.1-0.4-5.9-2.4-8.6c-1.7-2.2-4.7-4-5.6-6.7c-0.3-0.8-0.4-1.7-0.9-2.4
			c-0.5-0.7-1.7-0.9-2.2-0.2c-0.2,0.4-0.2,0.9-0.1,1.3c0.2,2.9-1.1,5.8-3.5,7.5c-1,0.7-2,1.2-2.9,1.9
			C119.6,382.5,119.4,382.7,119.2,382.9z"/>
		<path class="st7" d="M142.5,373.5c0-0.4,0-0.8,0-1.2c0.5-4.3,6.5-4.9,9.4-6.8c2.8-1.8,4.6-5.7,8.2-1.9c1.8,1.8,2.9,5.1,3.3,7.5
			c0.7,4.7,1.3,9.5,2,14.2c0.1,1.1,0.3,2.2-0.2,3.1c-0.9,1.8-3.6,1.9-5.2,0.7c-2.2-1.4-3-5.1-3.9-7.3c-0.4-1.1-0.8-2.2-0.7-3.3
			c0.1-1.4,0.9-2.7,0.7-4.1c-0.1-0.4-0.4-0.9-0.8-0.9c-0.1,0-0.3,0.1-0.4,0.2c-2,1.3-2.6,3.3-3.8,5.1c-1.3,1.9-2.3,1.7-3.7,3.1
			c-3.1,2.8-2.1,9.1-3.2,12.8c-0.3,1-1.2,2.1-2,1.5c-0.3-0.2-0.5-0.6-0.6-1c-1-4.2-1-8.6,0-12.8c0.4-1.8,1.1-3.5,1.1-5.3
			C142.8,375.9,142.6,374.7,142.5,373.5z"/>
		<g>
			<path d="M155.9,387.1h-29.3v3.7h2.3l1.9,10.8c0.9,5,5.3,8.7,10.4,8.7l0,0c5.1,0,9.5-3.7,10.4-8.7l1.9-10.8h2.3V387.1z"/>
			<line class="st9" x1="128.2" y1="391.1" x2="154.4" y2="391.1"/>
		</g>
	</g>
	<line class="st15" x1="135.1" y1="410.5" x2="162.7" y2="410.5"/>
</g>
<path d="M372.9,214.3c0.2,0,0.5,0.1,0.6,0.3c0.1,0.2,0.1,0.5,0,0.6c-0.1,0.2-0.3,0.2-0.5,0.3c0,0,0,0,0,0"/>
<path d="M363.4,215.7c0,0.2,0,0.4,0.1,0.5c0.2,0.3,0.4,0.5,0.7,0.6c0.3,0.1,0.7,0.1,1.1,0c0.3-0.1,0.6-0.4,0.8-0.8c0,0,0,0-0.1,0"/>
</svg>
