<?xml version="1.0" encoding="utf-8"?>
<!-- Generator: Adobe Illustrator 25.1.0, SVG Export Plug-In . SVG Version: 6.00 Build 0)  -->
<svg version="1.1" id="Capa_1" xmlns="http://www.w3.org/2000/svg" xmlns:xlink="http://www.w3.org/1999/xlink" x="0px" y="0px"
	 width="512px" height="512px" viewBox="0 0 512 512" style="enable-background:new 0 0 512 512;" xml:space="preserve">
<style type="text/css">
	.st0{fill:url(#SVGID_1_);}
	.st1{fill:url(#SVGID_2_);}
	.st2{fill:url(#SVGID_3_);}
	.st3{fill:url(#SVGID_4_);}
	.st4{fill:url(#SVGID_5_);}
	.st5{fill:url(#SVGID_6_);}
	.st6{fill:url(#SVGID_7_);}
	.st7{fill:url(#SVGID_8_);}
	.st8{fill:url(#SVGID_9_);}
	.st9{fill:url(#SVGID_10_);}
	.st10{fill:url(#SVGID_11_);}
</style>
<g>
	<linearGradient id="SVGID_1_" gradientUnits="userSpaceOnUse" x1="157.9409" y1="505.5" x2="157.9409" y2="202.9291">
		<stop  offset="0" style="stop-color:#5E35B1"/>
		<stop  offset="1" style="stop-color:#F50057"/>
	</linearGradient>
	<path class="st0" d="M310.1,341.2c0-2.2-1.2-4.3-3.2-5.3L73.4,208.8c-6.9-3.7-17-8.2-25.7-4.4c-9,4-12.6,14.7-15.3,25.7L5.9,339.8
		c0,0,0,0.1,0,0.1c0,0.1,0,0.2-0.1,0.3c0,0.1,0,0.2,0,0.3c0,0.1,0,0.2,0,0.3c0,0.1,0,0.2,0,0.4c0,0,0,0.1,0,0.1v43.1
		c0,12.2,4.9,23.1,14.1,31.4c-6.3,4.8-10.3,12.4-10.3,20.7c0,5.2,1.5,10,4.1,14.1h-2c-3.3,0-6,2.7-6,6v27
		c0,12.2,11.4,22.1,25.5,22.1h253.4c14.1,0,25.5-9.9,25.5-22.1v-27c0-3.3-2.7-6-6-6h-1.9c2.6-4.1,4.1-8.9,4.1-14.1
		c0-8.5-4.1-16.2-10.6-21c9-8.1,14.1-18.8,14.4-30.9c0,0,0-0.1,0-0.1c0,0,0-0.1,0-0.1L310.1,341.2z M281,411.3
		c-0.1,0.1-0.2,0.1-0.3,0.2c-2.5,1.4-4.9,2.6-7,3.4c-16.1,6.4-35.7,5.1-43.7-2.8c-2.3-2.3-5.9-2.3-8.3-0.2
		c-11.4,10.4-27.8,13.8-42.7,9.5l20.3-31H218c3.3,0,6-2.7,6-6c0-3.3-2.7-6-6-6h-22c0,0,0,0,0,0H58.6c0,0,0,0,0,0H17.8v-31.1h280.4
		v31.1h-26.7c-3.3,0-6,2.7-6,6c0,3.3,2.7,6,6,6h25.9C295,400.7,287.8,407.3,281,411.3L281,411.3z M144,453c-0.1,0.1-0.1,0.2-0.2,0.2
		l-5.1,7.7c0,0,0,0.1-0.1,0.1c-2.2,3.5-6.8,5.8-11.6,5.9c-2.7,0-7.8-0.7-11.2-6l-28.3-43.2c0-0.1-0.1-0.1-0.1-0.2l-17.9-27.3H185
		l-20.2,30.8c0,0,0,0.1-0.1,0.1L144,453z M44,233c2.5-10.4,5.3-16.2,8.5-17.6c2.9-1.3,8,0,15.1,3.9l212.9,115.9H19.4L44,233z
		 M18.3,390.3h36.9l18.1,27.6c-12.7,2.9-28.9,0.2-40.4-7.3C27.1,406.8,20.3,400.4,18.3,390.3z M21.6,436.3c0-5.9,3.7-11.1,9.1-13.2
		c9.7,5.1,21.1,7.8,32,7.8c6.1,0,12.1-0.8,17.5-2.6l14.4,22h-59C27.9,450.4,21.6,444.1,21.6,436.3z M298.1,483.4
		c0,5.5-6.2,10.1-13.5,10.1H31.3c-7.3,0-13.5-4.6-13.5-10.1v-21h84.7l3.3,5.1c4.8,7.3,12.4,11.4,21.1,11.4c0.1,0,0.2,0,0.3,0
		c8.8-0.1,17.3-4.6,21.6-11.5l3.3-5.1h146L298.1,483.4L298.1,483.4z M294.3,436.3c0,7.8-6.3,14.1-14,14.1H160l12.2-18.7
		c6.4,2.3,13,3.4,19.7,3.4c12.2,0,24.2-3.8,34-11.1c5.6,3.8,13.1,6.1,21.6,6.8c10.1,0.8,21.1-0.9,30.8-4.8c2.3-0.9,4.4-1.9,6.5-3
		C290.4,424.9,294.3,430.2,294.3,436.3L294.3,436.3z"/>
	<linearGradient id="SVGID_2_" gradientUnits="userSpaceOnUse" x1="52.0907" y1="292.8587" x2="52.0907" y2="280.8688">
		<stop  offset="0" style="stop-color:#5E35B1"/>
		<stop  offset="1" style="stop-color:#F50057"/>
	</linearGradient>
	<path class="st1" d="M52.1,292.9c3.3,0,6-2.7,6-6c0-3.3-2.7-6-6-6h0c-3.3,0-6,2.7-6,6C46.1,290.2,48.8,292.9,52.1,292.9z"/>
	<linearGradient id="SVGID_3_" gradientUnits="userSpaceOnUse" x1="67.7008" y1="323.8024" x2="67.7008" y2="311.8125">
		<stop  offset="0" style="stop-color:#5E35B1"/>
		<stop  offset="1" style="stop-color:#F50057"/>
	</linearGradient>
	<path class="st2" d="M67.7,311.8L67.7,311.8c-3.3,0-6,2.7-6,6s2.7,6,6,6c3.3,0,6-2.7,6-6C73.7,314.5,71,311.8,67.7,311.8z"/>
	<linearGradient id="SVGID_4_" gradientUnits="userSpaceOnUse" x1="67.3845" y1="255.7233" x2="67.3845" y2="243.7334">
		<stop  offset="0" style="stop-color:#5E35B1"/>
		<stop  offset="1" style="stop-color:#F50057"/>
	</linearGradient>
	<path class="st3" d="M67.4,255.7c3.3,0,6-2.7,6-6c0-3.3-2.7-6-6-6h0c-3.3,0-6,2.7-6,6C61.4,253,64.1,255.7,67.4,255.7z"/>
	<linearGradient id="SVGID_5_" gradientUnits="userSpaceOnUse" x1="108.0416" y1="323.8023" x2="108.0416" y2="311.8124">
		<stop  offset="0" style="stop-color:#5E35B1"/>
		<stop  offset="1" style="stop-color:#F50057"/>
	</linearGradient>
	<path class="st4" d="M102,317.8c0,3.3,2.7,6,6,6c3.3,0,6-2.7,6-6s-2.7-6-6-6h0C104.7,311.8,102,314.5,102,317.8z"/>
	<linearGradient id="SVGID_6_" gradientUnits="userSpaceOnUse" x1="125.169" y1="294.0737" x2="125.169" y2="282.0838">
		<stop  offset="0" style="stop-color:#5E35B1"/>
		<stop  offset="1" style="stop-color:#F50057"/>
	</linearGradient>
	<path class="st5" d="M125.2,294.1c3.3,0,6-2.7,6-6c0-3.3-2.7-6-6-6h0c-3.3,0-6,2.7-6,6C119.2,291.4,121.9,294.1,125.2,294.1z"/>
	<linearGradient id="SVGID_7_" gradientUnits="userSpaceOnUse" x1="98.5336" y1="266.4542" x2="98.5336" y2="254.4643">
		<stop  offset="0" style="stop-color:#5E35B1"/>
		<stop  offset="1" style="stop-color:#F50057"/>
	</linearGradient>
	<path class="st6" d="M98.5,266.5c3.3,0,6-2.7,6-6s-2.7-6-6-6h0c-3.3,0-6,2.7-6,6C92.5,263.8,95.2,266.5,98.5,266.5z"/>
	<linearGradient id="SVGID_8_" gradientUnits="userSpaceOnUse" x1="203.3262" y1="320.7826" x2="203.3262" y2="308.7927">
		<stop  offset="0" style="stop-color:#5E35B1"/>
		<stop  offset="1" style="stop-color:#F50057"/>
	</linearGradient>
	<path class="st7" d="M203.3,320.8c3.3,0,6-2.7,6-6c0-3.3-2.7-6-6-6h0c-3.3,0-6,2.7-6,6C197.3,318.1,200,320.8,203.3,320.8
		L203.3,320.8z"/>
	<linearGradient id="SVGID_9_" gradientUnits="userSpaceOnUse" x1="161.131" y1="319.5848" x2="161.131" y2="307.5949">
		<stop  offset="0" style="stop-color:#5E35B1"/>
		<stop  offset="1" style="stop-color:#F50057"/>
	</linearGradient>
	<path class="st8" d="M161.1,319.6c3.3,0,6-2.7,6-6c0-3.3-2.7-6-6-6h0c-3.3,0-6,2.7-6,6C155.1,316.9,157.8,319.6,161.1,319.6
		L161.1,319.6z"/>
	<linearGradient id="SVGID_10_" gradientUnits="userSpaceOnUse" x1="244.7077" y1="390.2966" x2="244.7077" y2="378.3067">
		<stop  offset="0" style="stop-color:#5E35B1"/>
		<stop  offset="1" style="stop-color:#F50057"/>
	</linearGradient>
	<path class="st9" d="M244.7,378.3L244.7,378.3c-3.3,0-6,2.7-6,6s2.7,6,6,6c3.3,0,6-2.7,6-6C250.7,381,248,378.3,244.7,378.3
		L244.7,378.3z"/>
</g>
<g id="Icon">
	<linearGradient id="SVGID_11_" gradientUnits="userSpaceOnUse" x1="384.4459" y1="334.4067" x2="384.4459" y2="4.9291">
		<stop  offset="0" style="stop-color:#5E35B1"/>
		<stop  offset="1" style="stop-color:#F50057"/>
	</linearGradient>
	<path class="st10" d="M490.3,87.3h-1.6L481,64.1c-2.4-7.2-9.1-12.1-16.7-12.1h-20.9v-5.9c0-3.2,2.6-5.9,5.9-5.9H466
		c9.7,0,17.7-7.9,17.7-17.7S475.7,4.9,466,4.9h-16.8C426.4,5,408,23.4,408,46.1V52H304.7c-7.6,0-14.3,4.9-16.7,12.1l-7.8,23.2h-1.6
		c-9.7,0-17.7,7.9-17.7,17.7s7.9,17.7,17.7,17.7h0.6l20.7,185.5c1.5,15,14.2,26.4,29.3,26.3h110.6c15.1,0,27.7-11.3,29.3-26.3
		l20.7-185.5h0.6c9.7,0,17.7-7.9,17.7-17.7S500.1,87.3,490.3,87.3z M419.7,46.1c0-16.2,13.2-29.4,29.4-29.4H466
		c3.2,0,5.9,2.6,5.9,5.9s-2.6,5.9-5.9,5.9h-16.8c-9.7,0-17.7,7.9-17.7,17.7V52h-11.8V46.1z M299.1,67.8c0.8-2.4,3-4,5.6-4h159.5
		c2.5,0,4.8,1.6,5.6,4l6.5,19.5H292.6L299.1,67.8z M463.7,249.9l-163.3-43.8l-1.4-12.6l166,44.5L463.7,249.9z M457.3,306.8
		c-0.9,9-8.5,15.8-17.5,15.8H329.1c-9,0-16.6-6.8-17.6-15.8l-9.8-88.1l160.6,43L457.3,306.8z M466.3,226.3l-168.8-45.2l-6.5-58.5
		h186.9L466.3,226.3z M490.3,110.8H278.5c-3.2,0-5.9-2.6-5.9-5.9c0-3.2,2.6-5.9,5.9-5.9h211.8c3.2,0,5.9,2.6,5.9,5.9
		C496.2,108.2,493.6,110.8,490.3,110.8z"/>
</g>
</svg>
