<?xml version="1.0" encoding="utf-8"?>
<!-- Generator: Adobe Illustrator 25.1.0, SVG Export Plug-In . SVG Version: 6.00 Build 0)  -->
<svg version="1.1" id="Capa_1" xmlns="http://www.w3.org/2000/svg" xmlns:xlink="http://www.w3.org/1999/xlink" x="0px" y="0px"
	 width="512px" height="512px" viewBox="0 0 512 512" style="enable-background:new 0 0 512 512;" xml:space="preserve">
<style type="text/css">
	.st0{fill:url(#SVGID_1_);}
	.st1{fill:url(#SVGID_2_);}
	.st2{fill:url(#SVGID_3_);}
	.st3{fill:url(#SVGID_4_);}
	.st4{fill:url(#SVGID_5_);}
	.st5{fill:url(#SVGID_6_);}
	.st6{fill:url(#SVGID_7_);}
	.st7{fill:url(#SVGID_8_);}
	.st8{fill:#F50057;}
</style>
<g>
	<g id="Smart_mobile_conection">
		
			<linearGradient id="SVGID_1_" gradientUnits="userSpaceOnUse" x1="213.55" y1="73.7718" x2="213.55" y2="9.3812" gradientTransform="matrix(8 0 0 8 -1596 -54)">
			<stop  offset="0" style="stop-color:#5E35B1"/>
			<stop  offset="1" style="stop-color:#F50057"/>
		</linearGradient>
		<path class="st0" d="M112.4,410.8c-13.9,0-25.2,11.3-25.2,25.2c0,13.9,11.3,25.2,25.2,25.2s25.2-11.3,25.2-25.2
			C137.7,422.1,126.4,410.8,112.4,410.8z M112.4,444.5c-4.6,0-8.4-3.8-8.4-8.4s3.8-8.4,8.4-8.4s8.4,3.8,8.4,8.4
			S117.1,444.5,112.4,444.5z"/>
		
			<linearGradient id="SVGID_2_" gradientUnits="userSpaceOnUse" x1="231.4375" y1="73.7718" x2="231.4375" y2="9.3812" gradientTransform="matrix(8 0 0 8 -1596 -54)">
			<stop  offset="0" style="stop-color:#5E35B1"/>
			<stop  offset="1" style="stop-color:#F50057"/>
		</linearGradient>
		<path class="st1" d="M490.9,378.5c-3.5-45.2-39.2-81.2-84.3-85.1c-2.2-35.4-19.3-68.3-47-90.4c-0.1-0.1-0.3-0.2-0.4-0.3
			c-22.3-17.8-49.9-27.5-78.4-27.5h-101C113,175.3,57.9,227.3,53.9,293.8c-19.7,3.9-34,21.1-34.1,41.2v43.5
			C9.8,382.2,3,391.7,3,402.4v16.8c0,13.9,11.3,25.2,25.3,25.2h25.9c4.6,32.2,34.4,54.5,66.6,49.9c25.9-3.7,46.2-24,49.9-49.9h169.7
			c4.6,32.2,34.4,54.5,66.6,49.9c25.9-3.7,46.2-24,49.9-49.9h25.9c13.9,0,25.2-11.3,25.2-25.2v-16.8
			C508,391.6,501.1,382,490.9,378.5z M389.8,293h-269c0.1-41.8,33.9-75.7,75.8-75.8h153.8C373.3,236.1,387.5,263.4,389.8,293
			L389.8,293z M179.8,192h101c14.4,0,28.7,2.9,41.9,8.4H196.6c-51.1,0.1-92.5,41.5-92.6,92.6H70.7C75.1,236,122.6,192.1,179.8,192z
			 M112.4,478.2c-23.2,0-42.1-18.8-42.1-42.1c0-23.2,18.8-42.1,42.1-42.1s42.1,18.8,42.1,42.1C154.5,459.3,135.6,478.1,112.4,478.2z
			 M398.6,478.2c-23.2,0-42.1-18.8-42.1-42.1c0-23.2,18.8-42.1,42.1-42.1c23.2,0,42.1,18.8,42.1,42.1
			C440.6,459.3,421.8,478.1,398.6,478.2z M491.2,419.3c0,4.6-3.8,8.4-8.4,8.4h-25.9c-4.6-32.2-34.4-54.5-66.6-49.9
			c-25.9,3.7-46.2,24-49.9,49.9H170.7c-4.6-32.2-34.4-54.5-66.6-49.9c-25.9,3.7-46.2,24-49.9,49.9h-26c-4.6,0-8.4-3.8-8.4-8.4v-16.8
			c0-4.6,3.8-8.4,8.4-8.4s8.4-3.8,8.4-8.4v-50.5c0-13.9,11.3-25.3,25.2-25.3h336.7c41.8,0,75.7,33.9,75.8,75.8
			c0,4.6,3.8,8.4,8.4,8.4s8.4,3.8,8.4,8.4v16.8H491.2z"/>
		
			<linearGradient id="SVGID_3_" gradientUnits="userSpaceOnUse" x1="249.3313" y1="73.7718" x2="249.3313" y2="9.3812" gradientTransform="matrix(8 0 0 8 -1596 -54)">
			<stop  offset="0" style="stop-color:#5E35B1"/>
			<stop  offset="1" style="stop-color:#F50057"/>
		</linearGradient>
		<path class="st2" d="M398.6,410.8c-13.9,0-25.2,11.3-25.2,25.2c0,13.9,11.3,25.2,25.2,25.2c13.9,0,25.3-11.3,25.3-25.2
			C423.8,422.1,412.5,410.8,398.6,410.8z M398.6,444.5c-4.6,0-8.4-3.8-8.4-8.4s3.8-8.4,8.4-8.4s8.4,3.8,8.4,8.4
			S403.2,444.5,398.6,444.5z"/>
		
			<linearGradient id="SVGID_4_" gradientUnits="userSpaceOnUse" x1="231.4375" y1="73.7718" x2="231.4375" y2="9.3812" gradientTransform="matrix(8 0 0 8 -1596 -54)">
			<stop  offset="0" style="stop-color:#5E35B1"/>
			<stop  offset="1" style="stop-color:#F50057"/>
		</linearGradient>
		<path class="st3" d="M255.5,318.3c-4.6,0-8.4,3.8-8.4,8.4v84.2c0,4.6,3.8,8.4,8.4,8.4c4.6,0,8.4-3.8,8.4-8.4v-84.2
			C263.9,322,260.1,318.3,255.5,318.3z"/>
		
			<linearGradient id="SVGID_5_" gradientUnits="userSpaceOnUse" x1="249.325" y1="73.7718" x2="249.325" y2="9.3812" gradientTransform="matrix(8 0 0 8 -1596 -54)">
			<stop  offset="0" style="stop-color:#5E35B1"/>
			<stop  offset="1" style="stop-color:#F50057"/>
		</linearGradient>
		<path class="st4" d="M398.6,318.3c-4.6,0-8.4,3.8-8.4,8.4v33.7c0,4.6,3.8,8.4,8.4,8.4s8.4-3.8,8.4-8.4v-33.7
			C407,322,403.2,318.3,398.6,318.3z"/>
		
			<linearGradient id="SVGID_6_" gradientUnits="userSpaceOnUse" x1="231.4375" y1="73.7718" x2="231.4375" y2="9.3812" gradientTransform="matrix(8 0 0 8 -1596 -54)">
			<stop  offset="0" style="stop-color:#5E35B1"/>
			<stop  offset="1" style="stop-color:#F50057"/>
		</linearGradient>
		<path class="st5" d="M255.5,284.6c4.6,0,8.4-3.8,8.4-8.4v-42.1c0-4.6-3.8-8.4-8.4-8.4s-8.4,3.8-8.4,8.4v42.1
			C247.1,280.8,250.9,284.6,255.5,284.6z"/>
		
			<linearGradient id="SVGID_7_" gradientUnits="userSpaceOnUse" x1="208.2937" y1="73.7718" x2="208.2937" y2="9.3812" gradientTransform="matrix(8 0 0 8 -1596 -54)">
			<stop  offset="0" style="stop-color:#5E35B1"/>
			<stop  offset="1" style="stop-color:#F50057"/>
		</linearGradient>
		<path class="st6" d="M70.3,318.3c-13.9,0-25.2,11.3-25.2,25.2c0,13.9,11.3,25.2,25.2,25.2s25.3-11.3,25.3-25.2
			C95.6,329.6,84.3,318.3,70.3,318.3z M70.3,351.9c-4.6,0-8.4-3.8-8.4-8.4s3.8-8.4,8.4-8.4s8.4,3.8,8.4,8.4
			C78.7,348.1,75,351.9,70.3,351.9z"/>
	</g>
	
		<linearGradient id="SVGID_8_" gradientUnits="userSpaceOnUse" x1="325.4" y1="361.6292" x2="499.19" y2="361.6292" gradientTransform="matrix(1 0 0 -1 0 512.9291)">
		<stop  offset="0" style="stop-color:#5E35B1"/>
		<stop  offset="1" style="stop-color:#F50057"/>
	</linearGradient>
	<path class="st7" d="M420.2,172.5c2.1-5.6-2.1-11.5-8-11.5c-38.5,0-69.9-31.3-69.9-69.9s31.3-69.9,69.9-69.9
		c63.2,0,93.6,77.5,48,120.6c-3.4,3.2-3.6,8.6-0.3,12.1c3.2,3.4,8.6,3.6,12.1,0.3c56.7-53.7,18.9-150.1-59.7-150.1
		c-47.9,0-86.9,39-86.9,86.9c0,44.9,34.2,81.9,77.9,86.5v121c5.7-1,11.4-0.8,17.1-2.1V172.5H420.2z"/>
	<path class="st8" d="M398.9,54.4c-4.7,0-8.5,3.8-8.5,8.5v57.6c0,4.7,3.8,8.5,8.5,8.5s8.5-3.8,8.5-8.5v-10.7h10.7
		c15.3,0,27.7-12.4,27.7-27.7s-12.4-27.7-27.7-27.7C418.1,54.4,398.9,54.4,398.9,54.4z M428.8,82.1c0,5.9-4.8,10.7-10.7,10.7h-10.7
		V71.4h10.7C424,71.4,428.8,76.2,428.8,82.1z"/>
</g>
</svg>
