<?xml version="1.0" encoding="utf-8"?>
<!-- Generator: Adobe Illustrator 25.1.0, SVG Export Plug-In . SVG Version: 6.00 Build 0)  -->
<svg version="1.1" id="Capa_1" xmlns="http://www.w3.org/2000/svg" xmlns:xlink="http://www.w3.org/1999/xlink" x="0px" y="0px"
	 width="512px" height="512px" viewBox="0 0 512 512" style="enable-background:new 0 0 512 512;" xml:space="preserve">
<style type="text/css">
	.st0{fill:url(#SVGID_1_);}
	.st1{fill:url(#SVGID_2_);}
	.st2{fill:url(#SVGID_3_);}
	.st3{fill:url(#SVGID_4_);}
	.st4{fill:#5E35B1;}
</style>
<g id="Water_dispenser">
	
		<linearGradient id="SVGID_1_" gradientUnits="userSpaceOnUse" x1="231.5" y1="68.7269" x2="231.5" y2="9.9121" gradientTransform="matrix(8 0 0 8 -1596 -54)">
		<stop  offset="0" style="stop-color:#5E35B1"/>
		<stop  offset="1" style="stop-color:#F50057"/>
	</linearGradient>
	<path class="st0" d="M383,289.8h-43.2c-4-19.7-21.4-33.8-41.5-33.9h-2.5l8.3-16.9h2.7c23.4,0,42.3-19,42.3-42.3v-16.9
		c0-4.7-3.8-8.5-8.5-8.5l0,0h-8.5v-16.9h8.5c4.7,0,8.5-3.8,8.5-8.5l0,0V95.1c0-4.7-3.8-8.5-8.5-8.5l0,0h-8.5V69.7h8.5
		c4.7,0,8.5-3.8,8.5-8.5l0,0V45.8c0-24.2-19.7-43.9-43.9-43.9h-98.4c-24.2,0-43.9,19.7-43.9,43.9v15.3c0,4.7,3.8,8.5,8.5,8.5l0,0
		h8.5v16.9h-8.5c-4.7,0-8.5,3.8-8.5,8.5l0,0v50.8c0,4.7,3.8,8.5,8.5,8.5l0,0h8.5v16.9h-8.5c-4.7,0-8.5,3.8-8.5,8.5l0,0v16.9
		c0,23.4,19,42.3,42.3,42.3h2.7l8.3,16.9h-2.5c-20.1,0-37.4,14.2-41.5,33.9H129c-4.7,0-8.5,3.8-8.5,8.5l0,0v203.2
		c0,4.7,3.8,8.5,8.5,8.5l0,0h254c4.7,0,8.5-3.8,8.5-8.5l0,0V298.3C391.5,293.6,387.7,289.8,383,289.8L383,289.8z M179.8,45.8
		c0-14.9,12.1-27,27-27h98.4c14.9,0,27,12.1,27,27v6.9H179.8V45.8z M196.7,69.7h118.5v16.9H196.7V69.7z M179.8,103.5h152.4v33.9
		H179.8V103.5z M196.7,154.3h118.5v16.9H196.7V154.3z M179.8,196.7v-8.5h152.4v8.5c0,14-11.4,25.4-25.4,25.4H205.2
		C191.2,222,179.8,210.7,179.8,196.7z M226.7,239h58.6l-8.3,16.9h-42L226.7,239z M213.7,272.9h84.7c10.8,0,20.3,6.8,23.9,16.9H189.7
		C193.3,279.7,202.9,272.9,213.7,272.9z M171.3,493V374.5h169.3V493H171.3z M374.5,493h-16.9V366c0-4.7-3.8-8.5-8.5-8.5l0,0H162.9
		c-4.7,0-8.5,3.8-8.5,8.5l0,0v127h-16.9V306.7h237.1V493H374.5z"/>
	
		<linearGradient id="SVGID_2_" gradientUnits="userSpaceOnUse" x1="231.5063" y1="87.7769" x2="231.5063" y2="28.9622" gradientTransform="matrix(8 0 0 8 -1596 -54)">
		<stop  offset="0" style="stop-color:#5E35B1"/>
		<stop  offset="1" style="stop-color:#F50057"/>
	</linearGradient>
	<path class="st1" d="M264.5,323.7h-16.9c-4.7,0-8.5,3.8-8.5,8.5s3.8,8.5,8.5,8.5h16.9c4.7,0,8.5-3.8,8.5-8.5
		C272.9,327.5,269.1,323.7,264.5,323.7z"/>
	
		<linearGradient id="SVGID_3_" gradientUnits="userSpaceOnUse" x1="237.8562" y1="87.7769" x2="237.8562" y2="28.9622" gradientTransform="matrix(8 0 0 8 -1596 -54)">
		<stop  offset="0" style="stop-color:#5E35B1"/>
		<stop  offset="1" style="stop-color:#F50057"/>
	</linearGradient>
	<path class="st2" d="M315.3,323.7h-16.9c-4.7,0-8.5,3.8-8.5,8.5s3.8,8.5,8.5,8.5h16.9c4.7,0,8.5-3.8,8.5-8.5
		C323.7,327.5,319.9,323.7,315.3,323.7z"/>
	
		<linearGradient id="SVGID_4_" gradientUnits="userSpaceOnUse" x1="225.1562" y1="87.7769" x2="225.1562" y2="28.9622" gradientTransform="matrix(8 0 0 8 -1596 -54)">
		<stop  offset="0" style="stop-color:#5E35B1"/>
		<stop  offset="1" style="stop-color:#F50057"/>
	</linearGradient>
	<path class="st3" d="M213.7,323.7h-16.9c-4.7,0-8.5,3.8-8.5,8.5s3.8,8.5,8.5,8.5h16.9c4.7,0,8.5-3.8,8.5-8.5
		C222.1,327.5,218.3,323.7,213.7,323.7z"/>
	<path class="st4" d="M315.3,391.4h-33.9c-4.7,0-8.5,3.8-8.5,8.5l0,0v33.9c0,4.7,3.8,8.5,8.5,8.5l0,0h8.5v8.5c0,4.7,3.8,8.5,8.5,8.5
		s8.5-3.8,8.5-8.5v-8.5h8.5c4.7,0,8.5-3.8,8.5-8.5l0,0v-33.9C323.7,395.2,319.9,391.4,315.3,391.4L315.3,391.4z M306.8,425.3h-16.9
		v-16.9h16.9V425.3z"/>
	<path class="st4" d="M230.6,391.4h-33.9c-4.7,0-8.5,3.8-8.5,8.5l0,0v33.9c0,4.7,3.8,8.5,8.5,8.5l0,0h8.5v8.5c0,4.7,3.8,8.5,8.5,8.5
		s8.5-3.8,8.5-8.5v-8.5h8.5c4.7,0,8.5-3.8,8.5-8.5l0,0v-33.9C239.1,395.2,235.3,391.4,230.6,391.4L230.6,391.4z M222.1,425.3h-16.9
		v-16.9h16.9V425.3z"/>
</g>
</svg>
