<?xml version="1.0" encoding="utf-8"?>
<!-- Generator: Adobe Illustrator 25.1.0, SVG Export Plug-In . SVG Version: 6.00 Build 0)  -->
<svg version="1.1" id="icon" xmlns="http://www.w3.org/2000/svg" xmlns:xlink="http://www.w3.org/1999/xlink" x="0px" y="0px"
	 width="24px" height="25.7px" viewBox="0 0 24 25.7" style="enable-background:new 0 0 24 25.7;" xml:space="preserve">
<style type="text/css">
	.st0{fill:#FFFFFF;}
</style>
<path class="st0" d="M12,18.9c-1.8,0-3.5-1-4.4-2.5l-1.5,0.9c2,3.2,6.2,4.3,9.4,2.3c1-0.6,1.8-1.4,2.3-2.3l-1.5-0.9
	C15.5,17.9,13.8,18.9,12,18.9z"/>
<polygon class="st0" points="24,3.4 20.6,3.4 20.6,0 18.9,0 18.9,3.4 15.4,3.4 15.4,5.1 18.9,5.1 18.9,8.6 20.6,8.6 20.6,5.1 
	24,5.1 "/>
<path class="st0" d="M8.1,9.4C7,9.4,6,10.4,6,11.6s1,2.1,2.1,2.1s2.1-1,2.1-2.1C10.3,10.4,9.4,9.4,8.1,9.4C8.2,9.4,8.2,9.4,8.1,9.4z
	"/>
<path class="st0" d="M15.9,9.4c-1.2,0-2.1,1-2.1,2.1s1,2.1,2.1,2.1s2.1-1,2.1-2.1C18,10.4,17.1,9.4,15.9,9.4
	C15.9,9.4,15.9,9.4,15.9,9.4z"/>
<path class="st0" d="M22,11.1c0.2,0.8,0.3,1.7,0.3,2.6C22.3,19.4,17.7,24,12,24S1.7,19.4,1.7,13.7S6.3,3.4,12,3.4V1.7
	c-6.6,0-12,5.4-12,12s5.4,12,12,12c6.6,0,12-5.4,12-12c0-0.9-0.1-1.7-0.3-2.6H22z"/>
</svg>
