<?xml version="1.0" encoding="utf-8"?>
<!-- Generator: Adobe Illustrator 25.1.0, SVG Export Plug-In . SVG Version: 6.00 Build 0)  -->
<svg version="1.1" id="icon" xmlns="http://www.w3.org/2000/svg" xmlns:xlink="http://www.w3.org/1999/xlink" x="0px" y="0px"
	 width="24px" height="25.7px" viewBox="0 0 24 25.7" style="enable-background:new 0 0 24 25.7;" xml:space="preserve">
<style type="text/css">
	.st0{fill:#FFFFFF;}
</style>
<path class="st0" d="M16.3,20.6l1.5-0.9c-0.5-0.9-1.3-1.7-2.3-2.3c-3.2-2-7.4-0.9-9.4,2.3l1.5,0.9c0.9-1.5,2.6-2.5,4.4-2.5
	S15.5,19.1,16.3,20.6z"/>
<polygon class="st0" points="15.4,3.4 15.4,5.1 24,5.1 24,3.4 "/>
<path class="st0" d="M8.1,9.4C7,9.4,6,10.4,6,11.6s1,2.1,2.1,2.1s2.1-1,2.1-2.1C10.3,10.4,9.4,9.4,8.1,9.4C8.2,9.4,8.2,9.4,8.1,9.4z
	"/>
<path class="st0" d="M15.9,9.4c-1.2,0-2.1,1-2.1,2.1s1,2.1,2.1,2.1s2.1-1,2.1-2.1S17.1,9.4,15.9,9.4L15.9,9.4z"/>
<path class="st0" d="M22,11.1c0.2,0.8,0.3,1.7,0.3,2.6C22.3,19.4,17.7,24,12,24S1.7,19.4,1.7,13.7S6.3,3.4,12,3.4V1.7
	c-6.6,0-12,5.4-12,12s5.4,12,12,12s12-5.4,12-12c0-0.9-0.1-1.7-0.3-2.6H22z"/>
</svg>
