<?xml version="1.0" encoding="utf-8"?>
<!-- Generator: Adobe Illustrator 25.1.0, SVG Export Plug-In . SVG Version: 6.00 Build 0)  -->
<svg version="1.1" id="Layer_5" xmlns="http://www.w3.org/2000/svg" xmlns:xlink="http://www.w3.org/1999/xlink" x="0px" y="0px"
	 width="512px" height="512px" viewBox="0 0 512 512" style="enable-background:new 0 0 512 512;" xml:space="preserve">
<style type="text/css">
	.st0{fill:url(#SVGID_1_);}
</style>
<linearGradient id="SVGID_1_" gradientUnits="userSpaceOnUse" x1="131.75" y1="473.5541" x2="131.75" y2="535.5541" gradientTransform="matrix(8 0 0 -8 -798 4292.4331)">
	<stop  offset="0" style="stop-color:#5E35B1"/>
	<stop  offset="1" style="stop-color:#F50057"/>
</linearGradient>
<path class="st0" d="M424,168h-72V48c0-22.1-17.9-40-40-40H88C65.9,8,48,25.9,48,48v16c0,13.2,10.8,24,24,24c2.8,0,5.5-0.6,8-1.5
	V168c-8.8,0-16,7.2-16,16v16c0,8.8,7.2,16,16,16v32c-8.8,0-16,7.2-16,16v16c0,8.8,7.2,16,16,16h96v8c0,13.2,10.8,24,24,24h32v32h-88
	c-22.1,0-40,17.9-40,40v14.6c-14.7,8.5-24,24.2-24,41.4c0,26.5,21.5,48,48,48s48-21.5,48-48c0-17.2-9.3-32.9-24-41.4V408h80v6.6
	c-14.7,8.5-24,24.2-24,41.4c0,26.5,21.5,48,48,48s48-21.5,48-48c0-17.2-9.3-32.9-24-41.4V408h80v6.6c-14.7,8.5-24,24.2-24,41.4
	c0,26.5,21.5,48,48,48s48-21.5,48-48c0-17.2-9.3-32.9-24-41.4V400c0-22.1-17.9-40-40-40h-88v-32h32c13.2,0,24-10.8,24-24v-8h80h8h40
	v-88C464,185.9,446.1,168,424,168z M416,248h-64v-32h64V248z M168,168h-40v-16h208v96H208v-40C208,185.9,190.1,168,168,168z M128,88
	h208v16H128V88z M128,120h208v16H128V120z M336,48v24H128V48c0-9-3.1-17.3-8.2-24H312C325.2,24,336,34.8,336,48z M96,64v-8H80v8
	c0,4.4-3.6,8-8,8s-8-3.6-8-8V48c0-13.2,10.8-24,24-24s24,10.8,24,24v120H96V64z M80,184h88c13.2,0,24,10.8,24,24v72h-16v-64
	c0-8.8-7.2-16-16-16H80V184z M160,216v32h-32v-32H160z M96,216h16v32H96V216z M80,264h80v16H80V264z M160,456c0,17.6-14.4,32-32,32
	s-32-14.4-32-32c0-7.9,2.9-15.4,8-21.1V448c0,13.2,10.8,24,24,24s24-10.8,24-24v-13.1C157.1,440.6,160,448.1,160,456z M288,456
	c0,17.6-14.4,32-32,32s-32-14.4-32-32c0-7.9,2.9-15.4,8-21.1V448c0,13.2,10.8,24,24,24s24-10.8,24-24v-13.1
	C285.1,440.6,288,448.1,288,456z M264,448c0,4.4-3.6,8-8,8s-8-3.6-8-8v-40h16V448z M408,448v-13.1c5.1,5.7,8,13.2,8,21.1
	c0,17.6-14.4,32-32,32s-32-14.4-32-32c0-7.9,2.9-15.4,8-21.1V448c0,13.2,10.8,24,24,24S408,461.2,408,448z M392,400v48
	c0,4.4-3.6,8-8,8s-8-3.6-8-8v-40c0-8.8-7.2-16-16-16H152c-8.8,0-16,7.2-16,16v40c0,4.4-3.6,8-8,8s-8-3.6-8-8v-48
	c0-13.2,10.8-24,24-24h224C381.2,376,392,386.8,392,400z M264,360h-16v-32h16V360z M320,304c0,4.4-3.6,8-8,8H200c-4.4,0-8-3.6-8-8
	v-8h128V304z M208,280v-16h208v16H208z M448,280h-16v-64c0-8.8-7.2-16-16-16h-64v-16h72c13.2,0,24,10.8,24,24V280z M320,200h-16v-16
	h16V200z M320,232h-16v-16h16V232z"/>
</svg>
