<?xml version="1.0" encoding="utf-8"?>
<!-- Generator: Adobe Illustrator 25.1.0, SVG Export Plug-In . SVG Version: 6.00 Build 0)  -->
<svg version="1.1" id="Capa_2_1_" xmlns="http://www.w3.org/2000/svg" xmlns:xlink="http://www.w3.org/1999/xlink" x="0px" y="0px"
	 width="353.4px" height="185.1px" viewBox="0 0 353.4 185.1" style="enable-background:new 0 0 353.4 185.1;" xml:space="preserve"
	>
<style type="text/css">
	.st0{fill:#FFFFFF;stroke:#000000;stroke-miterlimit:10;}
	.st1{fill:#110809;}
	.st2{fill:none;stroke:#110809;stroke-width:2;stroke-miterlimit:10;}
	.st3{fill:#FFFFFF;}
	.st4{fill:#5757FF;}
	.st5{fill:#AD1457;}
	.st6{fill:#C9CDD1;}
	.st7{fill:none;stroke:#FFFFFF;stroke-miterlimit:10;}
	.st8{fill:#7A483A;}
	.st9{stroke:#FFFFFF;stroke-miterlimit:10;}
	.st10{fill:none;stroke:#FFFFFF;stroke-width:2;stroke-miterlimit:10;}
</style>
<path d="M215.8,176.3c0.8,0,1.5-0.1,2.1-0.2c3-0.4,5.9,0.1,8.9,0.3c1.5,0.1,2.8-0.1,4.3-0.2c1.1-0.1,2.2,0,3.1-0.8
	c0.5-0.4,0.9-1.2,0.7-1.8c-0.3-0.9-1.4-1.3-2.4-1.5c-2.4-0.5-4.7-1-7.1-1.5c-1-0.2-2.8-0.6-3-1.8c-0.1-0.6,0.2-1.5,0.3-2.1
	c0.1-0.7,0.1-1.5,0.2-2.2c0.1-1.4,0.5-2.7-1.2-2.8c-1.8-0.1-3.7-0.2-5.5-0.3c-0.2,0-0.4,0-0.5,0.1c-0.3,0.1-0.4,0.5-0.5,0.8
	c-0.3,1-0.5,2-0.8,3c-0.4,1.6-0.8,3.1-1,4.7c-0.2,1.1-0.2,2.3-0.3,3.4c-0.1,0.7-0.3,1.4,0.3,2C213.8,176.1,214.8,176.3,215.8,176.3z
	"/>
<path d="M229.5,182.5c0.1,0.5,0.3,0.8,0.7,1c0.7,0.4,2,0.3,2.8,0.4c1.3,0.2,2.7,0.4,4,0.3c1-0.1,2-0.3,3-0.4c2.8-0.1,5.8,1,8.6,0.2
	c1-0.3,2.6-0.9,2.9-2c0.4-1.5-0.9-2.4-2.1-2.7c-1.5-0.4-3.2-0.6-4.8-0.7c-0.7,0-1.3,0-1.9-0.2c-1.6-0.4-2.2-1.7-1.9-3.2
	c0.5-2,0.9-4,1.4-6c-3.3-0.5-6.6,0.1-9.9,0.6c-0.2,0-0.4,0.1-0.6,0.2c-0.1,0.1-0.1,0.3-0.2,0.4c-0.5,2.2-0.3,4.2-1,6.3
	C230.1,177.9,229.1,180.9,229.5,182.5z"/>
<g>
	<g>
		<path class="st0" d="M138.1,57.5c0.6-0.2,1.3-0.3,2-0.5c1.2-0.3,2-0.9,2.9-1.8c0.6-0.6,1.1-1.1,1.9-1.4c2.3-1,3.5,1,2.6,3
			c-0.7,1.6-1.7,3.2-3.3,3.9c-1.7,0.9-3.4,0.9-5,2.1c-0.4,0.3-4.4,3.7-4.3,3.9c-0.8-0.9-2.4-3-2.3-4.3c1.1-0.3,1.9-1.1,2.6-2.1
			c0.6-0.9,1.2-2,2.2-2.6C137.5,57.7,137.8,57.6,138.1,57.5z"/>
		<g>
			<g>
				<rect id="XMLID_696_" x="102" y="109.5" class="st1" width="1.8" height="38.6"/>
				<path id="XMLID_695_" class="st2" d="M87.5,156.2c0-5.7,10.1-8.1,15.1-8.1c6,0,15.1,2.2,15.1,8.1"/>
				<line id="XMLID_694_" class="st2" x1="102.8" y1="157.7" x2="102.8" y2="148.2"/>
				<path id="XMLID_693_" class="st1" d="M120.3,157.6c0,1.4-1.1,2.5-2.5,2.5s-2.5-1.1-2.5-2.5s1.1-2.5,2.5-2.5
					C119.2,155.1,120.3,156.2,120.3,157.6z"/>
				<path id="XMLID_692_" class="st1" d="M105.3,157.6c0,1.4-1.1,2.5-2.5,2.5s-2.5-1.1-2.5-2.5s1.1-2.5,2.5-2.5
					C104.2,155.1,105.3,156.2,105.3,157.6z"/>
				<path id="XMLID_691_" class="st1" d="M90.3,157.6c0,1.4-1.1,2.5-2.5,2.5s-2.5-1.1-2.5-2.5s1.1-2.5,2.5-2.5
					C89.1,155.1,90.3,156.2,90.3,157.6z"/>
				<path id="XMLID_690_" class="st0" d="M101.1,96.5V68.1c0-4.9-4-8.9-8.9-8.9h-9.8c-4.9,0-8.9,4-8.9,8.9v31.8
					c0,7,5.7,12.8,12.8,12.8H101h17.3c0.8,0,1.5-0.7,1.5-1.5l0,0c0-0.8-0.7-1.5-1.5-1.5h-4C107,109.6,101.1,103.7,101.1,96.5z"/>
			</g>
			<g>
				<g id="XMLID_609_">
					<path id="XMLID_697_" class="st0" d="M163.1,149.7c0.2,0.4,0.5,0.8,0.8,1.2c0.9,1.3,2.8,2.4,4.4,2.2c1.7-0.2,3.4-0.8,5.1-0.8
						c0.6,0,1.3,0.2,1.8,0.6c2,1.9-2.8,3.7-4.1,4.1c-3,0.9-6,1.8-8.9,2.7c-0.6,0.2-1.1,0.3-1.7,0.2c-1.2-0.2-1.7-1-2.1-2
						c-0.4-1.3-0.9-2.6-1.5-3.8c-0.8-2.1-1.5-4.2-2-6.4c-0.1-0.6-0.3-1.3-0.1-1.9c0.3-0.9,1.2-1.6,2.1-1.6c0.4,0,0.8,0.1,1.2,0.2
						C160.9,145.3,161.8,147.3,163.1,149.7z"/>
					<path d="M146.2,104c0.1-2-0.2-4-0.9-5.8c-1.1-2.9-3.3-5.4-6.3-6.4c-1.7-0.6-3.4-0.6-5.2-0.7c-7.6-0.3-15.1-0.5-22.7-0.8
						c-6.6-0.2-14.2,5.1-14,12.3c0.1,4.5,3.2,9.1,8,9.2c0.1,0,0.2,0,0.3,0c7.2,0,14.4,0.1,21.5,0.1c5,0,11.6,2.1,16.2-0.7
						c0.6-0.4,1.2-0.9,1.7-1.5c0.5-0.7,0.7-1.6,0.9-2.4C146,106.2,146.2,105.1,146.2,104z"/>
					<path id="XMLID_666_" d="M116.7,101.5c6.9,3.8-5.9,10.2-12.5,10.3H92.6c-6.7,0-11.9-3.4-12.1-10v-20l25.7,0.1
						C106.2,81.9,109.2,97.4,116.7,101.5z"/>
					<path d="M141.8,104.6c-5.4-3.6-27.1-8.9-30.1-10c-5.9-2.3-12.3-3.3-18.6-2.4c-5.3,0.7-10.9,1.6-12.2,7.6
						c-1.2,5.4,2.2,10.7,7.6,11.9c0.1,0,0.2,0,0.4,0.1l49.9,9.9c0.1,0,0.2,0.1,0.3,0.1c0.3,0.1,0.5,0.1,0.8,0.1
						c3.9,0.4,7.1-1.8,7.9-5.8C148.8,111.7,146.3,107.6,141.8,104.6z"/>
					<path id="XMLID_698_" class="st0" d="M135,152c0,1.5,0.2,2.8,1.6,4.1c2,1.9,5,2.1,7.1,3.8c0.2,0.2,0.4,0.3,0.5,0.5
						c0.2,0.4,0,1-0.4,1.3c-1.9,1.8-6.1,0-8.3-0.3c-2.7-0.5-5.4-1-8.1-1.5c-0.7-0.1-1.2-0.8-1.1-1.5l1.6-7.7l0.2-1.1
						c0.4-1.9,2.2-3.1,4.1-2.7c1.6,0.4,2.8,1.9,2.8,3.6C135.1,151,135,151.5,135,152z"/>
					<path class="st0" d="M107.3,53.3c-0.2-1.1-0.4-2.2-0.6-3.4c0.8,4.9,1.6,9.7,2.3,14.6c0.7,4.6,1.2,9.3,2.6,13.7
						c0.5,1.5,1.2,4.2,2.9,4.8c2.2,0.8,3.6,0.4,5.7,0.5c0.9,0,1.9,0,2.8-0.2c2.5-0.7,4.1-3.1,5.2-5.4c1.2-2.6,2.5-4.3,4.8-6
						c1.6-1.2,3.2-2.5,4.7-3.8c0.6-0.5,1.9-1.4,2.2-2.1c0.3-0.8-0.2-1.1-0.8-1.6c-1.8-1.8-3.8-3.5-5.5-5.5c-1.7,1.6-3.4,3.1-5.1,4.7
						c-1.2,1.1-2.4,2.2-3.6,3.3c-0.6,0.5-3.8,2.7-3.7,3.2c-0.3-3.8-0.7-7.7-2-11.2c-0.1-0.4-0.3-0.8-0.4-1.3
						c-0.1-0.6,0.1-1.2,0.2-1.7c0.6-3,0.2-6.2-1.1-9c-1.4-2.9-3.1-4.6-6.1-5.6c-1.8-0.6-3.7-1.2-5.6-1.5c-0.3,0-0.7,0-0.8,0.3
						c0,0.1,0,0.2,0,0.4 M108.6,58.1c0.1,0,0.2,0,0.3-0.1L108.6,58.1z M108.3,58.2c0,0,0,0,0.1,0H108.3z"/>
					<path d="M163.9,147.7c-4.4-9.1-7.5-18.6-10.9-28.2c-1.6-4.6-3.3-9.2-6.3-13.1c-1.4-1.8-2.7-3.2-4.9-3.7
						c-2.1-0.4-4.2-0.2-6.3,0.3c-1.1,0.3-2.2,0.9-3.3,1.1c-1.5,0.3-3.9,0-4.5,1.9c-0.3,0.9-0.1,1.8,0.1,2.7c0.3,1.4,0.8,2.9,1.4,4.2
						c0.7,1.8,1.7,3.4,2.3,5.3c0.5,1.4,0.8,2.8,1.3,4.2c0.9,2.2,2.4,4,4.3,5.4c1.2,0.8,2.5,1.5,3.3,2.7c0.6,0.9,0.6,1.7,1,2.7
						c0.9,2.4,2,5,4.2,6.4c0.6,0.4,1.2,0.6,1.7,1.2c0.3,0.4,0.5,0.8,0.6,1.2c0.5,1.3,1,2.7,1.9,3.8c0.8,1,1.8,1.8,2.6,2.7
						c0.8,1,1,2.2,1.6,3.4C154.1,152.1,163.9,147.8,163.9,147.7z"/>
					<path class="st0" d="M97.9,39.8c-1.3,0.1-2.6,0.3-3.9,0.4c-4.1,0.4-8.5,1-11.8,3.6c-3.8,3.1-6.2,8.6-5.4,13.5
						c0.5,2.7,1.3,5.3,1.6,8c1,9.1,1.7,18.1,2.1,27.2c4.4-0.2,8.8-0.2,13.2-0.5c5.4-0.3,11.5-0.5,16.6-2.5
						c0.6-7.5,2.6-14.9,2.5-22.4c-0.1-3.7-0.1-7.4-0.2-11"/>
					<path d="M145.1,127.8c0.1-0.2,0.2-0.4,0.3-0.7c0.2-0.4,0.3-0.9,0.5-1.4c1.4-5.4,3.3-11.2,2.7-17c-0.5-5.1-0.5-11.5-5.4-14.6
						c-4.1-2.6-9.8-4.2-13.3,0c-0.7,0.9-1.3,2-1.6,3.1c-2.2,7.9,1.5,14.7,0.4,22c-0.3,1.9-0.5,3.7-0.1,5.6c0.1,0.6,0.3,1.2,0.4,1.8
						c0.2,1.5-0.3,3-0.7,4.5c-0.4,1.6-0.8,3.2-0.7,4.8c0.1,1.7,0.6,3.3,0.6,5c0,1.2-0.2,2.4-0.5,3.6c-0.3,1.5-1.8,4.7,0.2,5.3
						c1.2,0.4,2.7,0.3,3.9,0.6c0.4,0.1,3.5,0.9,5.1,1.4c0.5,0.2,0.9-0.2,1-0.6c0.3-2.2,1.3-4.5,1.9-6.6c0.8-2.7,1.5-5.5,2.1-8.2
						c0.3-1.3,0.6-2.7,1-3.9C143.5,130.9,144.3,129.4,145.1,127.8z"/>
					<path class="st0" d="M108,29.4l-1.6-9.4l-6.1,1.4c-3.8,0.9-6.2,4.7-5.3,8.6l0.5,2.3c0.2,0.9,0.6,1.8,1.2,2.5l-1.2,5.7
						c-0.6,2.7,1.1,5.3,3.8,5.8s5.3-1.4,5.6-4.1l1-6.5C107.7,34.1,108.5,31.7,108,29.4z"/>
					<path class="st0" d="M109.6,79.1c2.9,0.6,4.9,1.8,7.4,3.1c2.2,1.2,2.6,3.3-0.3,3.8c-1.6,0.3-3.2,0.6-4.8,0.2s-2.1-1.3-3.2-2.4
						c-0.9-0.9-2.4-0.5-3.7-1c-0.5-0.2-1-0.6-1.2-1.1s0-1.1,0.2-1.6s0.4-0.9,0.7-1.2c0.7-0.7,1.8-0.6,2.7-0.4
						C108.3,78.8,108.9,79,109.6,79.1z"/>
					<path id="XMLID_652_" d="M106.8,21.5c-1,0.8-2.2,1.3-3.5,1.5c-1.2,0.2-2.4,0.2-3.5,0.5c-3,1-2.6,4.3-2.3,6.8
						c0.1,0.9-0.7,3.9-2,3.4c-0.8,0-0.9-1.2-1.1-1.7c-0.4-1-0.8-2-1.2-3c-0.3-0.7-0.5-1.4-0.5-2.2c0.1-1.1,0.9-2,1.1-3.1
						c0.2-0.8,0-1.7,0.2-2.5c0.2-1.1,0.9-2.1,1.9-2.7c1.4-0.9,3.1-0.6,4.5-1.3c0.8-0.4,1.4-1.2,2.1-1.7c1.1-0.8,2.5-1.1,3.8-0.9
						c1.1,0.2,2.2,0.9,2.6,2c0.4,1,0.1,2.1-0.4,3C108,20.4,107.4,21,106.8,21.5z"/>
					<path id="XMLID_650_" class="st3" d="M98.7,29.2c0.3,1.1-0.4,2.2-1.5,2.4c-1.1,0.3-2.2-0.4-2.4-1.5c-0.3-1.1,0.4-2.2,1.5-2.4
						C97.4,27.5,98.5,28.2,98.7,29.2z"/>
					<path class="st0" d="M76.8,53c-0.5,4.1-0.6,8.2-0.8,12.3c-0.3,4.5-0.1,9,1.2,13.4c0.4,1.4,0.9,2.7,1.8,3.8
						c3.3,3.9,11.6,2.3,16.2,2.3c3.8,0,7.5,0,11.3,0c0.1-0.2,0.1-0.4,0.2-0.5c0.3-1.5,1.3-5.2,1.6-6.7c-2.4-0.2-4.8-0.4-7.1-0.6
						c-2.1-0.2-4.1-0.3-6.2-0.5c-1.7-0.1-4.2,0.2-4.4-1.9c-0.1-0.8,0-1.6-0.3-2.3c-0.5-1.1-1.7-1.6-2-2.8c-0.2-0.8,0.2-1.9,0.2-2.7
						c0.1-1.3,0.7-2.4,1.2-3.6c0.9-2,1.5-4.1,1.9-6.2c-0.1,0-0.2,0-0.4,0"/>
				</g>
			</g>
		</g>
		<g id="XMLID_581_">
			<path id="XMLID_587_" class="st4" d="M158.5,84.4h-43.6l0,0c0-0.8,0.7-1.5,1.5-1.5h42.1V84.4z"/>
			<path id="XMLID_586_" class="st5" d="M166,82.9h-43.6l7.8-23c0.3-0.8,1.1-1.3,2-1.3h39.3c1.4,0,2.4,1.2,2,2.5L166,82.9z"/>
			<path id="XMLID_585_" class="st5" d="M165.2,84.4h-43v-1.5l43.8-2v2.8C166,84.1,165.6,84.4,165.2,84.4z"/>
			<path id="XMLID_582_" class="st6" d="M148.5,71.3c-0.9,0-1.7-0.7-1.1-1.7c0.2-0.4,0.7-0.6,1.2-0.7c0,0,0,0,0.1,0h0.1
				C150.2,69.3,150.1,71.4,148.5,71.3z"/>
		</g>
		<path class="st0" d="M121.4,69.8c-0.1,0.3-0.3,0.6-0.5,0.9s-0.4,0.6-0.6,0.9c-0.1,0.2-0.3,0.4-0.4,0.6"/>
	</g>
	<path d="M101.1,35.4c1.3,1.7,3.1,2.9,4.3,4.7c0.1-1.1,0.3-2.2,0.4-3.4c0.1-0.6,0.3-1.2,0.4-1.7C104.5,35.4,103,35.9,101.1,35.4z"/>
	<path d="M103.2,31.2c0.1,0.6,0.5,1.1,1.1,1.2c0.6,0.1,1.2-0.1,1.6-0.5c0.4-0.4,0.6-1,0.5-1.6c0,0-0.1,0-0.1,0.1"/>
	<path d="M97.1,29c-0.3-0.1-0.7,0-0.9,0.3s-0.3,0.7-0.1,0.9c0.2,0.3,0.5,0.5,0.9,0.4"/>
	<path class="st7" d="M128,124.9c-0.2-2.1,0-4.1,0.6-6.1c0.4-1.5,0.9-2.8,0.6-4.3s-0.6-2.7,0-4.2"/>
	<path class="st7" d="M147.3,96c3.5,8.9,0.5,18.8-2,28c-1.6,6-3,12.1-4.1,18.2"/>
	<path d="M80.9,79.9c-0.1,0.4,0,0.8,0.2,1.1c0.1,0.2,0.2,0.3,0.4,0.4c0.4,0.2,0.9,0.2,1.4,0.1"/>
	<path d="M103.3,61.1l0.1-0.1"/>
</g>
<g>
	<path class="st0" d="M286.6,70.7c0,1,0.1,1.5-0.8,1.8c-0.9,0.4-2.3,0.3-3.3,0.5c-2.1,0.4-4.2,1-6.1,2.2c-3.1,2-6.9,2.4-10.2,4.5
		c-0.5,0.3-1.1,0.7-1.7,0.9c-0.8,0.2-1.6,0.1-2.4,0.1c-2.3-0.1-4.8,0.5-6.5,2.2c-0.6,0.6-1,1.4-0.6,2.2c0.2,0.4,0.6,0.6,1,0.8
		c2.8,1.3,5.8,0.4,8.6-0.6c2.3-0.9,5.2-1.1,7.6-1.3c4.1-0.3,8.3-0.1,12.3-0.9c2.2-0.5,4.4-1,6.4-2c1.8-0.9,4.1-1.8,5-3.8
		c0.2-0.4,0.3-0.8,0.4-1.2c0.8-3,1.5-6,2.3-9c0.6-2.3,0.5-4.7,0.4-7c-0.1-2-0.4-4-1-5.8c-0.5-1.4-0.9-3.2-1.7-4.4
		c-0.8-1.2-2.2-2.1-3.7-2.2c-3-0.3-5.8,1.6-5.6,4.8c0.2,3.8-1,7.6-0.2,11.4c0.1,0.5,0.2,0.9,0.2,1.4s-0.1,0.9-0.2,1.4
		C286.7,67.8,286.7,69.2,286.6,70.7z"/>
	<g>
		<path id="XMLID_9_" class="st1" d="M276.9,139.3c1.2,1.8,2.1,3.5,1.7,5.9c-0.5,3.5-3.3,5.8-4.1,9.2c-0.1,0.3-0.1,0.6,0,1
			c0.2,0.6,0.8,1.1,1.4,1.3c3.3,0.9,6.2-4,8.1-5.9c2.3-2.4,4.7-4.7,7-7.1c0.6-0.6,0.5-1.8-0.2-2.5l-7.9-8.1l-1.2-1.2
			c-1.9-2-4.8-2.2-6.4-0.5c-1.4,1.5-1.3,4.1,0.1,6.1C276.1,138.1,276.5,138.7,276.9,139.3z"/>
		<g>
			<rect id="XMLID_106_" x="303.2" y="106.6" class="st1" width="1.8" height="38.6"/>
			<path id="XMLID_105_" class="st2" d="M319.4,153.3c0-5.7-10.1-8.1-15.1-8.1c-6,0-15.1,2.2-15.1,8.1"/>
			<line id="XMLID_104_" class="st2" x1="304.1" y1="154.8" x2="304.1" y2="145.3"/>
			<path id="XMLID_103_" class="st1" d="M286.7,154.7c0,1.4,1.1,2.5,2.5,2.5s2.5-1.1,2.5-2.5s-1.1-2.5-2.5-2.5
				S286.7,153.3,286.7,154.7z"/>
			<path id="XMLID_102_" class="st1" d="M301.7,154.7c0,1.4,1.1,2.5,2.5,2.5s2.5-1.1,2.5-2.5s-1.1-2.5-2.5-2.5
				S301.7,153.3,301.7,154.7z"/>
			<path id="XMLID_100_" class="st1" d="M316.7,154.7c0,1.4,1.1,2.5,2.5,2.5s2.5-1.1,2.5-2.5s-1.1-2.5-2.5-2.5
				S316.7,153.3,316.7,154.7z"/>
			<path id="XMLID_99_" class="st0" d="M305.8,93.6V65.2c0-4.9,4-8.9,8.9-8.9h9.8c4.9,0,8.9,4,8.9,8.9V97c0,7-5.7,12.8-12.8,12.8
				h-14.7h-17.3c-0.8,0-1.5-0.7-1.5-1.5l0,0c0-0.8,0.7-1.5,1.5-1.5h4C299.9,106.7,305.8,100.8,305.8,93.6z"/>
		</g>
		<path id="XMLID_98_" class="st1" d="M274.3,148.4c-0.4,2.1-0.9,3.9-2.8,5.4c-2.8,2.2-6.4,1.9-9.3,3.8c-0.3,0.2-0.5,0.4-0.7,0.7
			c-0.3,0.6-0.2,1.4,0.1,1.9c1.8,2.9,7.2,1.4,9.9,1.4c3.3-0.1,6.7-0.1,10-0.2c0.9,0,1.6-0.9,1.6-1.9v-11.3v-1.7
			c0-2.8-1.9-4.9-4.2-4.8c-2,0.1-3.7,2-4.1,4.5C274.5,146.9,274.4,147.7,274.3,148.4z"/>
		<g>
			<path class="st8" d="M292.8,77.2L292.8,77.2v-0.1V77.2z"/>
			<polygon class="st8" points="299.5,45.4 299.4,46 299.4,46 			"/>
			<path class="st8" d="M292.9,76.7c0,0.1-0.1,0.2-0.1,0.4L292.9,76.7C292.9,76.6,292.9,76.7,292.9,76.7z"/>
			<path class="st8" d="M286.2,52.4l1.1-8.7L286.2,52.4z"/>
			<path d="M287.6,43.8c0.8-2.3,2.1-4.5,4.3-5.6c0.7-0.3,1.4-0.6,2.1-0.8c1.8-0.6,3.7-1.2,5.6-1.5c0.3,0,0.7,0,0.8,0.3
				c0,0.1,0,0.2,0,0.4c-0.1,0.5,0.2,0.9,0.1,1.4c-0.1,0.6-0.3,1.3-0.5,1.9c-0.3,1.3-0.7,2.6-0.5,4c0.2,2-0.9,3.7-0.9,5.6
				c-0.1,0.3-1,4.8-1,4.8l-11.4-1.9C286.6,49.5,286.7,46.5,287.6,43.8z"/>
		</g>
		<path d="M259.3,100c-0.1-1.1,0-2.3,0.4-3.7c0.8-2.5,3.3-4.2,5.8-5c2.6-0.7,5.3-0.7,7.9-0.8c5.3-0.2,10.6-1.9,15.9-1.6
			c1.4,0.1,2.7,0.4,4.1,0.4c3.6-0.1,6.6-3.2,10.2-3.4c1.2-0.1,2.4,0.2,3.5,0.5c1.8,0.6,3.7,1.5,4.9,2.9c2.5,2.9,2.3,7.3,0.8,10.8
			c-0.6,1.4-1.3,2.8-2.4,3.9c-1.5,1.6-3.5,2.5-5.5,3.1c-2.3,0.8-4.2,0.7-6.7,0.7c-5.4,0-10.8-0.1-16.2-0.1c-4,0-7.9,0.5-11.9,0.2
			C265.4,107.4,259.9,104.9,259.3,100z"/>
		<path d="M263.3,92.6c2-1.5,4.3-2.2,7-1.2c1.4,0.5,2.6,1.4,3.5,2.5c4.8,5.5,5.8,14.6,7.2,21.5c0.8,4,1.6,8,2.2,12.1
			c0.2,1.2,2.2,11.5,1.5,11.8s-11.8,1.4-11.7,1.6c-2.1-5.6-4.7-11.1-6.4-16.8c-1-3.2-2.6-6.2-3.9-9.3c-1.5-3.6-2.9-7.6-3.6-11.5
			C258.4,98.9,259.8,95.3,263.3,92.6z"/>
		<path id="XMLID_94_" class="st4" d="M293.1,100.7c-0.1,0.2-0.3,0.4-0.4,0.5c-3.4,5.4,5.7,6.7,9,6.7h11.6c6.7,0,11.9-3.4,12.1-10
			v-20c-4.8,0-9.5,0-14.3,0c-2.9,0-6-0.4-8.9,0c-2,0.3-1.8-0.2-2.6,1.8c-1.1,2.5-0.5,6.5-1,9.2c-0.6,3.5-1.7,6.9-3.9,9.7
			C294.2,99.4,293.6,100,293.1,100.7z"/>
		<path class="st5" d="M282.7,117.4c-0.7-0.3-1.7-1.6-2.5-1.4s-1.4,1.6-1.7,2.2c-0.9,1.7-1.4,3.6-2.6,5.1c-0.1,0.1-0.2,0.3-0.4,0.3
			c-0.4,0.1-0.8-0.1-1.1-0.4c-2.4-2.2-2.6-6.5-2.8-9.5c-0.3-5,2.3-10.1,6.6-12.8c1.4-0.9,3-1.5,4.5-2.2c4.9-2.2,9.7-4.8,14.2-7.8
			c2-1.3,3.8-2.2,6-3c3.7-1.4,7.7-1.9,11.6-1.2c4.8,0.8,9.5,1.7,11,8.5c1.2,5.3-0.9,10.1-4.4,11.4c-0.1,0-0.2,0-0.2,0.1l-32.9,11
			c-0.1,0-0.1,0.1-0.2,0.1c-0.2,0.1-0.4,0.1-0.5,0.2C285.8,118.2,284.2,117.9,282.7,117.4z"/>
		<path d="M293.6,40.4c0.3-0.8,0.7-1.5,1.3-2c3-2.8,7.8-2.7,11.7-2.8c2.5-0.1,5.1,0,7.5,0.4c2.7,0.4,4.7,1.5,7,2.6
			c1.3,0.7,2.7,1.3,3.8,2.4c2.5,2.4,3,6.1,3.1,9.5s-2.9,38.4-2.7,38.4c-4.4-0.2-8.8-0.2-13.2-0.5c-2.3-0.1-4.5-0.2-6.7-0.4
			c-1.2-0.1-2.5,0-3.7-0.1c-1.4-0.2-1.2-0.7-2.2-1.3c-0.5-0.3-0.9-0.1-1.2-0.5c-0.3-0.3-0.1-1.6-0.2-2c-0.1-1.5-0.1-2.9-0.3-4.4
			c-0.2-1.6-0.6-3.2-0.7-4.9c-0.3-4.1-0.5-8.3-1.4-12.4c-0.8-3.6-2.1-7.2-2.9-10.8c-0.5-2.5-0.7-5.2-0.2-7.7
			C293,42.6,293.2,41.4,293.6,40.4z"/>
		<path class="st0" d="M309.7,29.9c0.5-0.7,0.4-0.6,0.6-1.5l2.2-9.3l-13-3l-1.6,9.4c-0.6,2.4,0.3,4.7,2,6.2l1,6.5
			c0.4,2.7,2.9,4.6,5.6,4.1s4.5-3.1,3.8-5.8L309.7,29.9z"/>
		<path d="M300.7,33.4c1.5-0.1,3.2-0.7,3.6-2.3c0,0.1-0.3,0.2-0.4,0.2c-0.8,0.3-1.6,0.3-2.4,0.2c-0.5,0-1.1-0.1-1.5-0.4l-0.1-0.1
			c0,0-0.1,0-0.1,0.1c-0.1,0.2-0.1,0.6,0.1,0.8s0.3,0.3,0.4,0.5s0.1,0.5,0.1,0.7C300.3,33.3,300.5,33.3,300.7,33.4z"/>
		<path id="XMLID_86_" class="st1" d="M298.8,18.1c0.9,0.3,1.9,0.5,2.8,0.8c1.3,0.3,2.7,0.6,4,1c3.5,1,2.7,4.5,2.8,7.5
			c0,0.8,0.1,1.8,0.7,2.2c1.9,1.3,2.3-2.7,2.8-3.6c0.3-0.5,0.6-0.9,0.8-1.4c0.4-1.1,0-2.3,0.2-3.4c0.1-0.5,0.2-1,0.3-1.5
			c0.2-2.2-1.8-4.1-3.6-5c-1.4-0.7-2.9-1.7-3.8-3c-0.1-0.2-0.3-0.5-0.5-0.6s-0.3-0.2-0.5-0.3c-1.1-0.4-2.3-0.2-3.2,0.5
			c-0.3,0.2-0.5,0.5-0.8,0.6c-0.5,0.2-1.1,0.1-1.6,0c-0.8-0.1-1.6,0.2-2.2,0.7s-0.9,1.4-0.5,2.1c0.2,0.4,0.6,0.8,0.8,1.2
			c0.5,1,0.2,1.8,1.3,2.1C298.7,18.1,298.8,18.1,298.8,18.1z"/>
		<path id="XMLID_84_" class="st3" d="M307,26c-0.2,0.7,0.3,1.5,1,1.7s1.5-0.3,1.7-1s-0.3-1.5-1-1.7S307.2,25.3,307,26z"/>
		<path class="st5" d="M276.2,103.8c-1.2,1.9-2,4.1-2.5,6.3c-0.9,3.5-1.7,7-1.2,10.6c0.2,1,0.4,2.1,0.5,3.1c0.1,1.9-0.5,3.7-0.5,5.6
			c0,1.3,0.3,2.6,0.6,3.9c0.7,3.3,0.9,6.4,0.7,9.7c0,1.1-0.1,2.1-0.1,3.2c0,0.9,0.1,2.1-0.3,2.8c1.3,0.2,2.5,0.3,3.8,0.5
			c2.4,0.3,4.7,0.6,7.1,0.8c0.7,0.1,2.3,0.4,2.9,0c0.5-0.4,0.6-1.7,0.7-2.2c1.1-4.4,2-8.9,1.1-13.4c-0.2-0.8-0.4-1.6-0.5-2.4
			c-0.1-1,0-2.1,0.1-3.1c0.6-4.2,1.6-8.3,2.1-12.6c0.6-4.4,1-8.9,1.3-13.4c0.6-7.9-10.2-5.3-13.9-2
			C277.5,102,276.8,102.9,276.2,103.8z"/>
		<path class="st1" d="M243.4,5.7c-0.1,0-0.2,0-0.3,0C243.1,5.7,243.4,5.6,243.4,5.7z"/>
	</g>
	<path class="st0" d="M313,44.7c-1.4,1.3-3.6,2.4-5.2,3.4c-1.4-1.3-3.1-2.2-4.9-2.8c-1-0.3-2.1-0.5-3.1-0.8c-4.5-1.7-8-5.1-12.7-6.6
		c-2.3-0.8-4.9-1.3-6.5-3.2c-2-2.3-2.3-5.7-3.8-8.3c-0.6-1-1.5-1.9-2.6-0.8c-0.9,0.9-0.6,2.5-0.4,3.6c0.3,1.6,0.6,3.3,1,4.9
		c0.5,2.4,0.8,3.2,2.9,4.4s4.3,2.6,5.9,4.4c1.1,1.2,2,2.5,3,3.7c3.6,4.2,9,6.5,13,10.3c1.9,1.8,4,4.3,7,3.5c1-0.3,12.2-3.2,11.8-3.9
		c-1.4-2.4-2.4-4.7-3.4-7.3C314.3,47.8,313.5,46.3,313,44.7z"/>
	<path class="st9" d="M325.3,51.6c-1.6,2.5-4.1,4.5-6.9,5.4"/>
	<path class="st0" d="M235.9,12.3v0.1"/>
	<g>
		<path d="M282.7,75.2h-49c-0.8,0-1.6-0.6-1.8-1.4l-6.1-28.2c-0.2-1.1,0.6-2.2,1.8-2.2h49c0.8,0,1.6,0.6,1.8,1.4l6.1,28.2
			C284.7,74.2,283.8,75.2,282.7,75.2z"/>
		<path d="M255.9,83.2l1-11.6c0.1-1.1-0.8-2-1.9-2c-1,0-1.8,0.7-1.9,1.7l-1,11.9H245v1.2h18.1v-1.2H255.9z"/>
		<path class="st3" d="M247.5,49.9c-0.1-1.2-2-1.2-1.9,0c0.1,1.3,0.3,2.6,0.4,3.9c0.1,1.2,2,1.2,1.9,0
			C247.8,52.5,247.7,51.2,247.5,49.9z"/>
		<path class="st3" d="M251.3,49.9c-0.1-1.2-2-1.2-1.9,0c0.1,1.3,0.3,2.6,0.4,3.9c0.1,1.2,2,1.2,1.9,0
			C251.6,52.5,251.4,51.2,251.3,49.9z"/>
		<path class="st3" d="M255.1,49.9c-0.1-1.2-2-1.2-1.9,0c0.1,1.3,0.3,2.6,0.4,3.9c0.1,1.2,2,1.2,1.9,0
			C255.4,52.5,255.2,51.2,255.1,49.9z"/>
		<path class="st3" d="M258.9,49.9c-0.1-1.2-2-1.2-1.9,0c0.1,1.3,0.3,2.6,0.4,3.9c0.1,1.2,2,1.2,1.9,0
			C259.1,52.5,259,51.2,258.9,49.9z"/>
		<path class="st3" d="M262.6,49.9c-0.1-1.2-2-1.2-1.9,0c0.1,1.3,0.3,2.6,0.4,3.9c0.1,1.2,2,1.2,1.9,0
			C262.9,52.5,262.8,51.2,262.6,49.9z"/>
	</g>
	<path d="M294.2,75.5c0.1,0.9,0.1,1.9-0.5,2.4c-0.4,0.3-0.9,0.4-1.4,0.5"/>
	<path class="st1" d="M303.8,57c0.1,0.6,0.6,1.2,1.3,1.3c0.6,0.1,1.3-0.1,1.7-0.7"/>
	<path class="st1" d="M186.5,17.5c0.3-0.1,0.5-0.3,0.6-0.6C187.2,16.9,186.4,17.5,186.5,17.5z"/>
</g>
<g>
	<rect id="XMLID_599_" x="48.3" y="84.3" width="305.1" height="3.4"/>
	<polygon id="XMLID_597_" points="350.2,164.4 347.9,164.4 328.9,85 331.2,85 	"/>
	<polygon id="XMLID_8_" points="329.2,164.4 326.8,164.4 307.9,85 310.2,85 	"/>
	<polygon id="XMLID_3_" points="52.3,164.4 54.6,164.4 73.6,85 71.3,85 	"/>
	<polygon id="XMLID_19_" points="73.3,164.4 75.6,164.4 94.6,85 92.3,85 	"/>
</g>
<path d="M234.6,118c-1-4.8-9.7-4.5-13.7-5.1c-5.3-0.9-10.7-1.8-16-2.8c-1.2-0.2-2.5-0.4-3.6,0.3c-0.6,0.4-1,1-1.4,1.5
	c-1.6,2.3-2.9,4.8-3.4,7.4c-0.4,2.6,0.2,5.5,2.2,7.2c1.8,1.5,4.3,1.9,6.7,2.2c1.5,0.2,2.9,0.5,4.3,0.8c0.8,0.1,1.7,0,2.4,0.5
	c2.1,1.4,1.5,4.8,1,6.9s-1.2,4.2-0.7,6.2c0.1,0.5,0.4,1,0.5,1.6c0.1,0.7,0,1.4-0.1,2.1c-0.7,3.7-2,7.7-0.5,11.2
	c0.2,0.4,0.4,0.8,0.5,1.3c0.1,0.4,0,0.8,0,1.1c-0.3,2.5-0.6,5-0.9,7.5c0,0,8.6,0.4,9.2,0.4c1,0,3.2,0.4,4.1-0.2
	c1.4-0.8,1.7-5,1.9-6.5c0.3-2.2,0.5-4.4,0.9-6.5c0.8-3.9,2.4-7.6,3.1-11.5c0.4-1.9,0.2-4,0.6-5.9c0.3-1.6,0.7-3.2,1-4.9
	c0.7-4,1.3-7.9,2-11.9c0.2-0.9,0.3-1.8,0.2-2.7C234.6,118.2,234.6,118.1,234.6,118z"/>
<path class="st5" d="M232.9,140.3c-0.3,0.7-0.5,1.3-0.8,2c-0.6,1.7-1.3,3.4-1.4,5.1c-0.1,1.8,0.4,3.5,0.4,5.3c0.1,3-1.5,5.6-1.5,8.6
	c0,1.1,0.3,2.2,0.4,3.3c0.1,1.1-0.1,2.2-0.2,3.3c-0.2,1.8-0.5,3.6-0.7,5.3c-0.2,1.5-0.7,2.4,1,2.6c4.4,0.4,8.7-0.2,13.1-0.5
	c0.2,0,0.4,0,0.5-0.2c0.1-0.1,0.1-0.2,0.2-0.4c1.6-6.2,3.1-12.1,3.9-18.5c0.1-0.6,0.1-1.1,0.4-1.7c0.3-0.7,0.9-1.2,1.3-1.7
	c1.1-1.4,1.2-2.9,1.6-4.5c0.5-1.6,1-3.1,1.4-4.7c0.8-3.9,1.7-7.8,2.5-11.6c0.7-3.2,1.5-6.1-0.2-9.2c-0.6-1-1.4-1.8-2.3-2.5
	c-7.7-6.2-17.5-9.9-27.4-10.2c-3.7-0.1-8.4-0.4-9.7-3.8c-0.5-1.3-0.4-2.8-0.6-4.1c-0.6-4-6.9-5-10.1-3.9c-4.4,1.4-5.8,6.9-6.3,11.5
	c-0.4,3.8-0.7,7.6,0.4,11.3c1.6,5.4,6.1,9.6,11.3,11.9c4.1,1.8,8.5,2.4,12.9,2.7c3.4,0.2,6.7-0.4,10-0.8c2.4-0.3,2,0.4,1.2,2.4
	C233.7,138.3,233.3,139.3,232.9,140.3z"/>
<path class="st0" d="M203.4,40.2c0.1,0.6,0.2,1.2,0.3,1.8c0.2,1.2,0.3,2.5-0.5,3.4c-0.5,0.5-1.1,0.8-1.6,1.3
	c-0.7,0.7-0.7,1.9-0.6,2.8c0.2,1.2,0.2,2.2,0.3,3.4c0.1,1.2,0.6,2.4,0.6,3.7c-0.1,2.4-1.9,4-4.2,3.9c-1.4-0.1-2.9-0.3-3.8-1.4
	c-0.4-0.5-0.6-1.2-0.7-1.9c-1.1-5-2.3-10.2-1-15.1c0.5-1.8,1.1-4,2.2-5.5c0.8-1.1,1.7-2.6,2.7-3.5c1-0.8,2.5-1.1,3.6-0.3
	c0.7,0.5,1,1.4,1.3,2.2C202.5,36.7,203,38.5,203.4,40.2z"/>
<path class="st0" d="M216,60.8c0.3-1.8,1.3-3.5,2.9-4.5c1.7-1,3.5-2,5.4-2.7c0.3-0.1,0.5-0.2,0.8-0.3c5-1.8,10.2-2.9,15.1-4.9
	c5.4-2.2,10.7-4.9,16-7.3c3.6-1.7,7-3.4,10.2-5.8c2.7-2,1.8-6.1,3.1-8.8c0.6-1.2,1.6-2.4,2.6-0.8c0.9,1.5,0.6,3.5,0.9,5.2
	c0.2,1.7,0.4,3.3-0.3,4.9c-0.5,1.1-1.5,2-2.4,2.8s-1.8,1.6-2.6,2.4c-1,0.9-2,1.9-3.1,2.7c-3.4,2.5-6.6,5.2-9.7,8.1
	c-3.1,2.8-5.9,5.7-9.4,8c-3.4,2.2-7.3,4.1-11.2,5.1c-0.1,0-0.1,0-0.2,0.1c-3.9,1.1-7.5,2.6-11.6,2.2C219.2,66.7,215.4,64.6,216,60.8
	z"/>
<path d="M213.6,101c0,0.1-10.7,0.7-11.7,0.7c-1.9,0.1-4.4,0.7-6.3,0.4c-1.2-0.2-1.7-1.5-3.2-1.2c-0.9,0.2-1.9,0.5-2.5-0.1
	c-0.4-0.4-0.5-1-0.5-1.6c-0.2-4-0.4-8-0.7-12.1c-0.2-3.3-4.3-4.2-6.7-5.7c-1.6-1-3.3-2.1-4.9-3.1c3.1-6.6,7.3-12.3,12.3-17.5
	c5.2-5.5,9-6,16.6-6c6.2-0.1,12.4-0.9,18.4-2.4c1.4,5.1,3,10.2,4.3,15.3c-3.5,1.9-7.8,3.3-11.6,4.6c-1.1,0.4-2.4,0.9-3,2
	c-0.5,0.8-0.5,1.8-0.5,2.8C213.7,85,213.7,93,213.6,101z"/>
<g>
	<path class="st10" d="M202.6,110.9c2.9,0.3,5.8,0.7,8.6,1c5.2,0.6,10.8,1.5,14.3,5.2c2.2,2.4,3.3,5.6,3.7,8.8
		c0.3,3.2,0,6.5-0.4,9.7"/>
	<rect id="XMLID_24_" x="195" y="134.5" class="st1" width="1.8" height="38.6"/>
	<path id="XMLID_23_" class="st2" d="M180.5,181.2c0-5.7,10.1-8.1,15.1-8.1c6,0,15.1,2.2,15.1,8.1"/>
	<line id="XMLID_15_" class="st2" x1="195.8" y1="182.7" x2="195.8" y2="173.2"/>
	<path id="XMLID_14_" class="st1" d="M213.3,182.6c0,1.4-1.1,2.5-2.5,2.5s-2.5-1.1-2.5-2.5s1.1-2.5,2.5-2.5S213.3,181.2,213.3,182.6
		z"/>
	<path id="XMLID_12_" class="st1" d="M198.3,182.6c0,1.4-1.1,2.5-2.5,2.5s-2.5-1.1-2.5-2.5s1.1-2.5,2.5-2.5S198.3,181.2,198.3,182.6
		z"/>
	<path id="XMLID_11_" class="st1" d="M183.3,182.6c0,1.4-1.1,2.5-2.5,2.5s-2.5-1.1-2.5-2.5s1.1-2.5,2.5-2.5
		C182.1,180.1,183.3,181.2,183.3,182.6z"/>
	<path id="XMLID_10_" class="st0" d="M207.7,119.9V86.7c0-5.7-5.3-10.4-11.8-10.4H183c-6.5,0-11.8,4.7-11.8,10.4v37.1
		c0,8.2,7.6,14.9,16.8,14.9h19.4h22.8c1.1,0,2-0.8,2-1.8l0,0c0-1-0.9-1.8-2-1.8h-5.3C215.5,135.2,207.7,128.4,207.7,119.9z"/>
</g>
<path class="st0" d="M185.3,31c-1.8,0.1-3.5,0.2-5.1,0.8c-3.2,1.1-4.7,3.5-6.3,6.2s-4.4,4.3-6.5,6.6c-3.8,4.3-4.3,11.2-1.2,16
	c1,1.6,2.4,2.9,3.9,4.1c8.4,6.4,22.1,1.8,27-7.1c2.6-4.7,1.6-10.5,0.5-15.8c-0.6-2.9-0.2-5.2,2.8-6.7c0.8-0.4,1.6-0.6,2.3-1.1
	c1.8-1.2,2.4-3.7,1.6-5.6c-0.8-2-2.8-3.3-4.9-3.5c-0.9-0.1-1.8,0-2.7,0.3c-2,0.8-3.1,3-4.9,4.2C190,30.7,187.7,30.8,185.3,31z"/>
<path d="M240.7,58.2c-0.1,0-0.1,0.2,0,0.3c0.4,0.6,1.1,0.9,1.8,0.8c0.7-0.1,1.3-0.4,1.8-0.9"/>
<g>
	<path class="st0" d="M39.5,172.2c2.4-0.2,5.1,0,7.7,0.7c0-4.3-0.1-8.7-0.4-13.1c-0.1-2.9-1.2-5.6-4.6-6.1c-2-0.3-3.6,0.3-4.2,2
		C36.5,159.7,38.4,167.6,39.5,172.2z"/>
	<path d="M29.3,137.6c0.3,2.8-0.2,5.9-0.3,8.8c-0.1,3.2,1.4,5.7,1.8,8.8c0.3,2.9,0.4,6,0.3,9c0,0.1,0.1,0.2,0.2,0.2h18.9
		c0.1,0,0.2-0.1,0.2-0.2c0.2-1.9,0.4-3.6,0.4-3.6c0.3-2.8,0.3-5-0.4-7.7c-0.3-1.1-0.6-2.3-0.8-3.4c-0.3-1.8-0.6-3.7-0.7-5.5
		c-0.3-2.8-0.3-5.6-0.5-8.4c-0.2-2.7-0.7-5.4-1.2-8.1c-1.4-8.1-2.8-16.3-4.8-24.3c-1-4-2.1-8-3.4-12c-1.6-4.7-3.5-9.2-6-13.4
		c-1.5-2.6-3.3-5.4-6.3-6.3c-2.4-0.7-5-1.1-7.4-0.1c-3.2,1.3-5.6,3.9-8.3,6.1c-0.4,1.7-0.7,3.5-1.1,5.2c-0.8,4.1,0.3,8.9,2.3,12.6
		c0.7,1.4,1.7,2.6,2.3,4.1c0.9,2.1,1.1,4.5,1.8,6.7c0.7,2.2,1.8,4.2,2.9,6.2C23.3,119.8,28.4,128.8,29.3,137.6z"/>
	<path class="st0" d="M56.8,73.5c0.4,1.8,0.1,4.1,1.3,5.7c1.2,1.6,4.7,2.1,6.5,2.8c0.4,0.1,0.8,0.3,1.1,0.6c0.7,0.8,0.1,2.1-0.9,2.5
		c-0.9,0.4-2,0.2-3,0c-2.3-0.5-4.7-1-7-1.6c-0.5-0.1-1-0.2-1.4-0.5c-1.2-0.7-1.6-2.2-1.8-3.5c-1.3-9.7-10.4-16.2-13.5-25.3
		c-0.8-2.3-1.3-4.8-1.8-7.2c-0.7-3.5-1.4-7.1-2.1-10.6c-0.5-2.5-2-4.8-0.5-7.3c1.2-1.9,3.8-2.8,5.9-2c3.4,1.3,4.6,5,5.6,8.1
		c1.5,4.2,2.7,8.1,2.4,12.7c-0.1,1.2-0.2,2.5,0.2,3.6c0.5,1.3,1.5,2.2,2.4,3.2c2.9,3.5,3.4,8.2,4.4,12.5
		C55.1,69.4,56.2,71.3,56.8,73.5C56.7,73.4,56.8,73.5,56.8,73.5z"/>
	<path class="st0" d="M5.3,176.3c2.5-0.2,5.1,0,7.5,0.7c1.1-4.2,2.1-8.4,3.1-12.6c0.6-2.8,0.2-5.3-3-5.9c-1.9-0.3-3.7,0.3-4.7,1.9
		C5.6,164.4,5.5,171.9,5.3,176.3z"/>
	<path d="M25.5,181.6c-1.8,1.1-4,1.3-6,1.2c-0.2,0-0.4,0-0.6,0c-3.2,0-6.4-0.1-9.6-0.3c-1.3-0.1-2.8-0.2-3.9-1
		c-1.3-0.9-1.1-2.5-0.8-3.9c0.3-1.2,0.4-2.4,0.5-3.7c1.5,0.5,3.2,0.9,4.8,0.8c0.9-0.1,1.7-0.3,2.5-0.7c0.4-0.2,0.8-0.4,1.1-0.7
		c0.2-0.1,0.7-0.8,1-0.7c0.2,0,0.4,0.6,0.5,0.8c0.2,0.4,0.6,0.7,0.9,1c0.6,0.6,1.4,1.1,2.2,1.4c0.8,0.3,1.6,0.4,2.3,0.5
		c1.1,0.2,2.2,0.4,3.4,0.7c0.7,0.2,1.4,0.4,2,0.8s1.1,1,1.1,1.7c0,0.8-0.5,1.5-1.1,2C25.6,181.5,25.5,181.5,25.5,181.6z"/>
	<path class="st5" d="M58.7,176.7c-0.2,0.9-1.3,1.6-2.2,1.9c-4.3,1.3-8.9,0.1-13.4,0.4c-1.1,0.1-2.2,0.3-3.3,0
		c-2.5-0.6-2.4-3.7-1.8-5.6c0.3-0.9,0.7-1.8,0.5-2.8c2,0.4,4,0.5,6,0.1c0.8-0.1,1.5-0.3,2.1-0.7c0.3-0.2,0.6-0.4,0.9-0.3
		c0.2,0.1,0.3,0.3,0.4,0.5c0.9,1.5,2.3,2.1,3.8,2.9c0.7,0.3,1.2,0.7,1.9,0.9c0.9,0.2,1.8,0.4,2.7,0.6c1,0.2,2.2,0.6,2.5,1.6
		C58.8,176.3,58.8,176.5,58.7,176.7z"/>
	<path class="st5" d="M27.8,110.4c-0.5-4.6-0.6-9.2-0.9-13.9c-0.2-4.4-0.8-8.8-1.5-13.2c-0.3-1.6-0.1-3.1-0.6-4.6
		c-0.7-2-1.5-4.1-2.6-5.9c-1.6-2.7-4-5.1-7-6.1c-2-0.7-4.3-0.7-6.1,0.4c-1.8,1.1-2.8,2.9-3.7,4.7c-0.5,1.1-1.1,2.2-1.6,3.3
		c-1.2,2.4-2.4,4.9-3.1,7.5s-1,5.4-0.2,8c0.5,1.7,1.4,2.6,2.2,4c1,1.8,1.6,3.8,1.6,5.8c0.1,1.5-0.2,2.9-0.2,4.4
		c-0.1,3.3,0.5,6.6,1.4,9.7c0.3,1.3,0.7,2.5,0.8,3.8c0,1.1-0.1,2.1-0.2,3.2c-0.2,2.9,0.4,5.8,0.5,8.7c0.2,3-0.4,5.3-1.5,8
		c-0.7,1.7-1.1,3.6-1.1,5.5c0,2.9,0.5,5.8-0.4,8.6c-0.3,0.8-0.6,1.6-1,2.5c-1.4,3.5-2,7.3-2.6,11c0,0.2,0.1,0.4,0.3,0.4
		c1.3,0.2,5.8,1.1,6.2,1.1c4.1,0.5,7.8-0.9,11.8,0c0.2,0,0.4-0.1,0.4-0.2c3.1-8.5,5.4-17.1,7.1-26c0.5-2.6,0.1-5,0.2-7.5
		c0-0.9,0.3-2.4,0.6-3.3c1.4-5,2.6-9.7,1.8-15C28.2,113.8,28,112.1,27.8,110.4z"/>
	<path d="M34,25.2c-1.9-1.7-4.3-2.8-6.7-3.3c-0.9-0.2-1.8-0.2-2.7,0c-0.6,0.2-1.1,0.5-1.6,0.8c-3.7,2.3-6.8,5.5-8.7,9.5
		c-1.5,3.3-2.3,6.8-3,10.4C10.9,44.7,7.1,70,5.9,69.7c1.5,0.4,3,0.7,4.4,1.3c2.1,0.8,4.1,1.6,6.2,2.5c4.1,1.7,8,3.6,12.3,4.6
		c0.6-0.4,1-0.9,1.4-1.7c1-2.2,1.8-4.7,2.1-7.1c1.4-8.8,2-18.2,4.3-26.8c1-3.9,1.7-8.3,0.6-12.2C36.8,28.3,35.6,26.5,34,25.2z"/>
	<path class="st0" d="M31.2,73.1c1.1,0.5,2.2,1,3.3,1.5c5.2,2.4,10.1,5.4,14.6,8.9c-1.3,1.2-2.5,2.8-2.6,4.6
		c-0.1,1.8,1.3,3.8,3.1,3.7c1-1.2,1.2-2.9,1.9-4.3c1-1.8,3.9-1.7,4.6-3.1s-0.9-3.3-1.7-4.3c-2.2-2.9-5.7-4.6-8-7.4
		c-0.8-1-1.4-2.2-2.1-3.3c-1.2-1.7-2.7-3.2-4.5-4.3c-3.5-2.2-4.7-5.3-6.4-8.9c-0.5-1.1-1-2.2-1.3-3.4c-0.4-1.5-0.4-3.1-0.6-4.7
		c-0.3-2.2-1.2-4.4-2.2-6.4c-0.9-1.9-1.9-3.7-3.4-5.1c-1.5-1.4-3.6-2.3-5.6-2c-2.5,0.4-4.4,2.7-5.1,5.1c-0.7,2.4-0.5,5-0.2,7.6
		c0.3,2.4,0.6,4.9,1.8,7.1c1.1,2.1,2.7,3.8,3.9,5.9c1.1,1.9,1.7,4,2.7,6.1C25.1,70,28,71.6,31.2,73.1z"/>
	<path d="M29.7,23.8c-0.5,0.7-0.9,1.5-1.2,2.3c-1.2,4.4,0.5,9.8,2.3,13.7c0.7,1.5,0.9,3.9,2.6,4.7c1.1,0.5,1.9-0.3,2.8-0.8
		c1.1-0.6,2.3-1,3.4-1.6c2.5-1.3,4.9-2.6,7.2-4.1c-1.3-6-4.1-12.1-9.5-15.1c-1.7-1-3.8-1.6-5.6-0.8C31,22.5,30.3,23.1,29.7,23.8z"/>
	<path class="st0" d="M23.2,19.6c0.5-1.6,0.9-3.2,1-4.9c0.2-1.9,0.2-3.9,0.9-5.8c1.1-2.8,5-4.6,7.9-3.9c4,1,2.8,7.8,2.5,10.8
		c-0.2,1.5-1.3,2.5-2.1,3.8c-1.3,2-1.5,5.4-1.7,7.8c0,0.3,0,0.6-0.2,0.8c-0.2,0.3-0.5,0.3-0.8,0.4c-1.6,0.4-3.3,0.7-5,0.7
		c-2.2,0-5.7-0.8-4.6-3.6C21.8,23.5,22.6,21.6,23.2,19.6z"/>
	<path d="M34.3,0c-1.2-0.1-2.5,0.3-3.4,1.1c-0.4,0.4-0.7,0.8-1.2,1c-0.2,0.1-0.5,0.1-0.8,0.2c-2.4,0.4-4.5,1.9-5.8,3.9
		c-0.3,0.5-0.5,0.9-0.6,1.5c-0.1,0.4,0,0.9,0.1,1.3c0.1,1,0.3,2,0.6,2.9c0.1,0.4,0.3,0.9,0.3,1.3c0,0.4,0,0.7,0.1,1.1
		c0.4,1.5,1.9,0.8,2.5-0.2c0.5-0.8,0.8-1.7,1.1-2.5c0.4-1.1,1-2.2,1.9-2.9s2.1-0.9,3.2-1.1c1.2-0.2,2.9-0.4,3.7-1.3
		c1-1,1.7-2.4,1.6-3.8c0-0.3-0.1-0.7-0.3-1c-0.2-0.3-0.5-0.6-0.8-0.8C35.8,0.3,35.1,0,34.3,0z"/>
	<path class="st3" d="M28.5,11.1c-0.4-0.9-1.5-1.2-2.4-0.7c-1,0.5-1.5,1.9-1.3,3c0.2,0.9,1.2,1.6,2,1.1c0.4-0.1,0.8-0.3,1-0.6
		C28.5,13.1,28.9,12,28.5,11.1z"/>
	<path d="M26.9,12.2c-0.1-0.5-0.8-0.3-0.7,0.2c0.1,0.4,0,0.7,0.3,1c0.2,0.2,0.4,0.1,0.5-0.1C27.1,12.9,26.9,12.6,26.9,12.2z"/>
	<path d="M26.6,66.1c-0.1,0.3-0.1,0.6,0,0.9c0.1,0.5,0.6,0.9,1,1.1c0.1,0,0.2,0.1,0.3,0.1c0.3,0,0.6-0.1,0.8-0.3"/>
	<path d="M12.9,40.3c-0.1,0.8-0.2,1.6-0.2,2.6c0.2,3.5,1,6.9,1.8,10.2c1.9-1.8,4.5-2.7,7-3.4c2.7-0.8,5.3-1.6,8-2.5
		c0.8-0.2,1.6-0.6,1.8-1.3c0.1-0.3,0-0.5,0-0.8c-0.5-5-4.2-14.1-10.6-13c-2,0.3-3.6,1.7-5,3.1C14.2,36.8,13.2,38.4,12.9,40.3z"/>
	<path class="st3" d="M25.7,33.6c-0.2-0.1-0.3,0.1-0.2,0.3c1.5,1.6,2.8,3.3,3.7,5.3c1,2.2,1.6,4.6,2.4,6.9c0.1,0.2,0.3,0.1,0.3-0.1
		C31.2,41.5,29.3,36.3,25.7,33.6z"/>
	<path d="M30.2,17.6c0.1,0.2,0.2,0.5,0.3,0.6c0.2,0.3,0.3,0.7,0.4,1.1c0.5,1.5,1.1,2.9,1.1,4.5c0-1.1,0.6-2,0.9-3
		c0.4-1,1-1.9,1.5-2.8c0.3-0.4,0.4-1.2-0.2-0.7c-0.4,0.3-0.8,0.5-1.3,0.5C32,18,31,17.7,30.2,17.6C30.1,17.6,30.1,17.6,30.2,17.6z"
		/>
	<path d="M31.8,13.5c0,0.2,0,0.3,0.1,0.5c0.2,0.3,0.4,0.5,0.7,0.7c0.3,0.2,0.6,0.2,0.9,0.1c0.4-0.1,0.7-0.5,0.8-0.9
		c0-0.1,0-0.2,0-0.2"/>
</g>
<path d="M308.5,25.8c0.2,0,0.5,0.1,0.6,0.3s0.1,0.5,0,0.6c-0.1,0.2-0.3,0.2-0.5,0.3l0,0"/>
<path d="M299,27.2c0,0.2,0,0.4,0.1,0.5c0.2,0.3,0.4,0.5,0.7,0.6c0.3,0.1,0.7,0.1,1.1,0c0.3-0.1,0.6-0.4,0.8-0.8c0,0,0,0-0.1,0"/>
</svg>
