<?xml version="1.0" encoding="utf-8"?>
<!-- Generator: Adobe Illustrator 25.1.0, SVG Export Plug-In . SVG Version: 6.00 Build 0)  -->
<svg version="1.1" id="Capa_1" xmlns="http://www.w3.org/2000/svg" xmlns:xlink="http://www.w3.org/1999/xlink" x="0px" y="0px"
	 width="512px" height="512px" viewBox="0 0 512 512" style="enable-background:new 0 0 512 512;" xml:space="preserve">
<style type="text/css">
	.st0{fill:url(#SVGID_1_);}
</style>
<linearGradient id="SVGID_1_" gradientUnits="userSpaceOnUse" x1="256" y1="77.251" x2="256" y2="436.6073" gradientTransform="matrix(1 0 0 -1 0 512.9291)">
	<stop  offset="0" style="stop-color:#5E35B1"/>
	<stop  offset="1" style="stop-color:#F50057"/>
</linearGradient>
<path class="st0" d="M255.1,379.3c15.5,0,28.2,12.6,28.2,28.2s-12.6,28.2-28.2,28.2S227,423,227,407.5S239.6,379.3,255.1,379.3z
	 M469.9,169.7c-56.1-60.3-132-93.4-213.9-93.4S98.2,109.4,42.1,169.7c-6.4,6.9-6.1,17.7,0.9,24.2c6.9,6.4,17.7,6.1,24.2-0.9
	c49.5-53.3,116.6-82.5,188.9-82.5s139.4,29.3,189,82.5c3.3,3.6,7.9,5.5,12.5,5.5c4.2,0,8.4-1.5,11.6-4.6
	C476,187.4,476.4,176.5,469.9,169.7z M407.2,240.2c-41.5-41.8-95.2-64.8-151.3-64.8s-109.8,23-151.3,64.8
	c-6.7,6.7-6.6,17.5,0.1,24.2s17.5,6.6,24.2-0.1c35-35.3,80.2-54.7,127-54.7s92,19.5,127,54.7c3.3,3.3,7.8,5,12.1,5s8.7-1.6,12-5
	C413.8,257.7,413.9,246.9,407.2,240.2z M339,310.9c-22.2-22-54-35.7-83.1-35.7l0,0h-1.2l0,0c-29,0-60.9,13.7-83.1,35.7
	c-6.7,6.7-6.7,17.4-0.1,24.2c3.3,3.3,7.8,5,12.1,5c4.4,0,8.7-1.6,12-5c15.8-15.7,39-25.8,59.1-25.8l0,0h1.2l0,0
	c20.1,0,43.3,10.2,59.1,25.8c6.7,6.7,17.5,6.6,24.2-0.1C345.7,328.3,345.6,317.5,339,310.9z"/>
</svg>
