<?xml version="1.0" encoding="utf-8"?>
<!-- Generator: Adobe Illustrator 25.1.0, SVG Export Plug-In . SVG Version: 6.00 Build 0)  -->
<svg version="1.1" id="Layer_1" xmlns="http://www.w3.org/2000/svg" xmlns:xlink="http://www.w3.org/1999/xlink" x="0px" y="0px"
	 width="512px" height="512px" viewBox="0 0 512 512" style="enable-background:new 0 0 512 512;" xml:space="preserve">
<style type="text/css">
	.st0{fill:url(#SVGID_1_);}
	.st1{fill:url(#SVGID_2_);}
	.st2{fill:url(#SVGID_3_);}
	.st3{fill:url(#SVGID_4_);}
	.st4{fill:url(#SVGID_5_);}
	.st5{fill:url(#SVGID_6_);}
	.st6{fill:url(#SVGID_7_);}
	.st7{fill:url(#SVGID_8_);}
	.st8{fill:#F50057;}
	.st9{fill:url(#SVGID_9_);}
	.st10{fill:url(#SVGID_10_);}
</style>
<g>
	<g>
		
			<linearGradient id="SVGID_1_" gradientUnits="userSpaceOnUse" x1="347.3" y1="96.4721" x2="347.3" y2="216.9869" gradientTransform="matrix(1 0 0 -1 0 512.9291)">
			<stop  offset="0" style="stop-color:#5E35B1"/>
			<stop  offset="1" style="stop-color:#F50057"/>
		</linearGradient>
		<path class="st0" d="M401.5,350.3h-5.4c-23.7,0-42.9-19.3-42.9-42.9V302c0-3.3-2.7-5.9-5.9-5.9s-5.9,2.7-5.9,5.9v5.4
			c0,23.7-19.3,42.9-42.9,42.9h-5.4c-3.3,0-5.9,2.7-5.9,5.9s2.7,5.9,5.9,5.9h5.4c23.7,0,42.9,19.3,42.9,42.9v5.4
			c0,3.3,2.7,5.9,5.9,5.9s5.9-2.7,5.9-5.9V405c0-23.7,19.3-42.9,42.9-42.9h5.4c3.3,0,5.9-2.7,5.9-5.9S404.8,350.3,401.5,350.3z
			 M347.2,380.3c-5.3-10.4-13.7-18.8-24.1-24.1c10.4-5.3,18.8-13.7,24.1-24.1c5.3,10.4,13.7,18.8,24.1,24.1
			C361,361.5,352.5,369.9,347.2,380.3z"/>
		
			<linearGradient id="SVGID_2_" gradientUnits="userSpaceOnUse" x1="484.8" y1="426.3988" x2="484.8" y2="438.2879" gradientTransform="matrix(1 0 0 -1 0 512.9291)">
			<stop  offset="0" style="stop-color:#5E35B1"/>
			<stop  offset="1" style="stop-color:#F50057"/>
		</linearGradient>
		<path class="st1" d="M501,86.5h-32.4c-3.3,0-5.9-2.7-5.9-5.9c0-3.3,2.7-5.9,5.9-5.9H501c3.3,0,5.9,2.7,5.9,5.9
			C506.9,83.9,504.3,86.5,501,86.5z"/>
		
			<linearGradient id="SVGID_3_" gradientUnits="userSpaceOnUse" x1="484.9" y1="452.9828" x2="484.9" y2="473.9572" gradientTransform="matrix(1 0 0 -1 0 512.9291)">
			<stop  offset="0" style="stop-color:#5E35B1"/>
			<stop  offset="1" style="stop-color:#F50057"/>
		</linearGradient>
		<path class="st2" d="M468.7,59.9c-2.6,0-5-1.7-5.7-4.3c-0.9-3.2,1-6.4,4.1-7.3l32.4-9.1c3.2-0.9,6.4,1,7.3,4.1
			c0.9,3.2-1,6.4-4.1,7.3l-32.4,9.1C469.7,59.9,469.2,59.9,468.7,59.9z"/>
		
			<linearGradient id="SVGID_4_" gradientUnits="userSpaceOnUse" x1="484.9" y1="390.7291" x2="484.9" y2="411.7011" gradientTransform="matrix(1 0 0 -1 0 512.9291)">
			<stop  offset="0" style="stop-color:#5E35B1"/>
			<stop  offset="1" style="stop-color:#F50057"/>
		</linearGradient>
		<path class="st3" d="M501.1,122.2c-0.5,0-1.1-0.1-1.6-0.2l-32.4-9.1c-3.2-0.9-5-4.2-4.1-7.3c0.9-3.2,4.2-5,7.3-4.1l32.4,9.1
			c3.2,0.9,5,4.2,4.1,7.3C506,120.5,503.7,122.2,501.1,122.2z"/>
		
			<linearGradient id="SVGID_5_" gradientUnits="userSpaceOnUse" x1="73.55" y1="29.7291" x2="73.55" y2="150.5782" gradientTransform="matrix(1 0 0 -1 0 512.9291)">
			<stop  offset="0" style="stop-color:#5E35B1"/>
			<stop  offset="1" style="stop-color:#F50057"/>
		</linearGradient>
		<path class="st4" d="M64.2,483.2c-0.3,0-0.7,0-1-0.1c-3.2-0.6-5.4-3.6-4.9-6.9l18.7-109c0.6-3.2,3.6-5.4,6.9-4.9
			c3.2,0.6,5.4,3.6,4.9,6.9l-18.7,109C69.6,481.2,67.1,483.2,64.2,483.2z"/>
		
			<linearGradient id="SVGID_6_" gradientUnits="userSpaceOnUse" x1="157.55" y1="29.7291" x2="157.55" y2="150.6277" gradientTransform="matrix(1 0 0 -1 0 512.9291)">
			<stop  offset="0" style="stop-color:#5E35B1"/>
			<stop  offset="1" style="stop-color:#F50057"/>
		</linearGradient>
		<path class="st5" d="M166.9,483.2c-2.8,0-5.4-2-5.9-4.9l-18.7-109c-0.6-3.2,1.6-6.3,4.9-6.9c3.2-0.6,6.3,1.6,6.9,4.9l18.7,109
			c0.6,3.2-1.6,6.3-4.9,6.9C167.5,483.2,167.2,483.2,166.9,483.2L166.9,483.2z"/>
		
			<linearGradient id="SVGID_7_" gradientUnits="userSpaceOnUse" x1="115.6" y1="29.7291" x2="115.6" y2="150.5291" gradientTransform="matrix(1 0 0 -1 0 512.9291)">
			<stop  offset="0" style="stop-color:#5E35B1"/>
			<stop  offset="1" style="stop-color:#F50057"/>
		</linearGradient>
		<path class="st6" d="M115.6,483.2c-3.3,0-5.9-2.7-5.9-5.9v-109c0-3.3,2.7-5.9,5.9-5.9s5.9,2.7,5.9,5.9v109
			C121.5,480.5,118.8,483.2,115.6,483.2z"/>
	</g>
	<g>
		
			<linearGradient id="SVGID_8_" gradientUnits="userSpaceOnUse" x1="347.25" y1="29.8291" x2="347.25" y2="335.8291" gradientTransform="matrix(1 0 0 -1 0 512.9291)">
			<stop  offset="0" style="stop-color:#5E35B1"/>
			<stop  offset="1" style="stop-color:#F50057"/>
		</linearGradient>
		<path class="st7" d="M339,179.4c-1.1-1.5-2.9-2.3-4.7-2.3H260c-3.3,0-5.9,2.7-5.9,5.9v294.2c0,3.3,2.7,5.9,5.9,5.9h174.5
			c3.3,0,5.9-2.7,5.9-5.9v-114c0-34.3-11.6-68.1-32.6-95.2L339,179.4z M428.5,471.3H265.9V189h65.5l67,86.4
			c19.4,25,30.1,56.2,30.1,87.9V471.3z"/>
		<path class="st8" d="M434.5,48.1H271.3c-10.4,0-16.2,7.2-20,11.9c-15.4,18.2-9,48.2,12.3,58.6v24.5c0,3.3,2.7,5.9,5.9,5.9h53.8
			c3.3,0,5.9-2.7,5.9-5.9V123c0-5.4,4.4-9.9,9.9-9.9h95.4c3.3,0,5.9-2.7,5.9-5.9V54C440.4,50.7,437.8,48.1,434.5,48.1L434.5,48.1z
			 M317.3,123v14.2h-41.9v-22.4c0-2.4-1.5-4.6-3.8-5.5c-8-3.1-13.9-9.7-16.2-18.1c-2.2-8.3-0.4-17,5-23.7c4.2-5.2,6.7-7.5,10.8-7.5
			h118.3v41.3H339C327.1,101.2,317.3,111,317.3,123z M428.5,101.2h-27.1V59.9h27.1V101.2z"/>
		
			<linearGradient id="SVGID_9_" gradientUnits="userSpaceOnUse" x1="115.5778" y1="29.7292" x2="115.5778" y2="229.5291" gradientTransform="matrix(1 0 0 -1 0 512.9291)">
			<stop  offset="0" style="stop-color:#5E35B1"/>
			<stop  offset="1" style="stop-color:#F50057"/>
		</linearGradient>
		<path class="st9" d="M181.6,332.9v-43.6c0-3.3-2.7-5.9-5.9-5.9H55.4c-3.3,0-5.9,2.7-5.9,5.9v43.6L4.3,475.5
			c-0.6,1.8-0.2,3.8,0.9,5.3s2.9,2.4,4.8,2.4h211.2c1.9,0,3.7-0.9,4.8-2.4s1.4-3.5,0.9-5.3L181.6,332.9z M61.4,295.3h108.4v32.6
			H61.4V295.3z M18.1,471.3l41.7-131.6h111.6l41.7,131.6H18.1z"/>
		<path class="st8" d="M97.5,271.5c3.3,0,5.9-2.7,5.9-5.9V59.9h24.3v205.6c0,3.3,2.7,5.9,5.9,5.9s5.9-2.7,5.9-5.9V54
			c0-3.3-2.7-5.9-5.9-5.9H97.5c-3.3,0-5.9,2.7-5.9,5.9v211.6C91.5,268.8,94.2,271.5,97.5,271.5z"/>
	</g>
	
		<linearGradient id="SVGID_10_" gradientUnits="userSpaceOnUse" x1="296.5" y1="347.7291" x2="296.5" y2="375.8159" gradientTransform="matrix(1 0 0 -1 0 512.9291)">
		<stop  offset="0" style="stop-color:#5E35B1"/>
		<stop  offset="1" style="stop-color:#F50057"/>
	</linearGradient>
	<path class="st10" d="M323.3,165.2c-3.3,0-5.9-2.7-5.9-5.9V149h-41.9v10.3c0,3.3-2.7,5.9-5.9,5.9c-3.3,0-5.9-2.7-5.9-5.9v-16.2
		c0-3.3,2.7-5.9,5.9-5.9h53.8c3.3,0,5.9,2.7,5.9,5.9v16.2C329.2,162.6,326.5,165.2,323.3,165.2L323.3,165.2z"/>
</g>
</svg>
