<?xml version="1.0" encoding="utf-8"?>
<!-- Generator: Adobe Illustrator 25.1.0, SVG Export Plug-In . SVG Version: 6.00 Build 0)  -->
<svg version="1.1" id="Capa_1" xmlns="http://www.w3.org/2000/svg" xmlns:xlink="http://www.w3.org/1999/xlink" x="0px" y="0px"
	 width="512.1px" height="512.1px" viewBox="0 0 512.1 512.1" style="enable-background:new 0 0 512.1 512.1;" xml:space="preserve"
	>
<style type="text/css">
	.st0{fill:url(#SVGID_1_);}
</style>
<linearGradient id="SVGID_1_" gradientUnits="userSpaceOnUse" x1="256.038" y1="480.1245" x2="256.038" y2="31.9515">
	<stop  offset="0" style="stop-color:#5E35B1"/>
	<stop  offset="1" style="stop-color:#F50057"/>
</linearGradient>
<path transform="translate(-1 -1)" class="st0" d="M469.4,378.7l-90.7-60.5c-11.5-7.6-26.9-5.1-35.5,5.8l-26.4,34
	c-3.4,4.5-9.6,5.8-14.5,3l-5-2.8c-16.7-9.1-37.4-20.4-79.2-62.2s-53.1-62.5-62.2-79.2l-2.8-5c-2.8-4.9-1.5-11.1,3-14.5l34-26.4
	c10.9-8.5,13.4-23.9,5.8-35.5l-60.5-90.7c-7.8-11.7-23.4-15.2-35.5-8L61.9,59.5c-11.9,7-20.7,18.4-24.4,31.7
	c-13.7,49.8-3.4,135.7,123.2,262.2c100.7,100.7,175.6,127.7,227.1,127.7c11.9,0.1,23.7-1.5,35.1-4.6c13.3-3.7,24.7-12.5,31.7-24.4
	l22.8-37.9C484.6,402.2,481.1,386.5,469.4,378.7z M464.5,406.6l-22.8,37.9c-5,8.6-13.2,14.9-22.8,17.7
	c-45.9,12.6-126.2,2.2-247.7-119.3S39.3,141.1,51.9,95.1c2.7-9.6,9.1-17.8,17.7-22.8l37.9-22.8c5.2-3.2,12-1.6,15.4,3.5l32.9,49.3
	l27.6,41.4c3.3,5,2.2,11.7-2.5,15.4l-34,26.4c-10.3,7.9-13.3,22.2-6.9,33.6l2.7,4.9c9.5,17.5,21.4,39.3,64.7,82.6
	c43.3,43.3,65.1,55.2,82.6,64.7l4.9,2.7c11.3,6.4,25.6,3.4,33.6-6.9l26.4-34c3.7-4.7,10.4-5.8,15.4-2.5l90.7,60.5
	C466.1,394.5,467.6,401.3,464.5,406.6z M286.9,107.7c70.1,0.1,126.9,56.9,127,127c0,4.1,3.3,7.5,7.5,7.5s7.5-3.3,7.5-7.5
	c-0.1-78.3-63.6-141.8-141.9-141.9c-4.1,0-7.5,3.3-7.5,7.5C279.4,104.3,282.8,107.7,286.9,107.7z M286.9,152.5
	c45.4,0.1,82.1,36.8,82.2,82.2c0,4.1,3.3,7.5,7.5,7.5c4.1,0,7.5-3.3,7.5-7.5c-0.1-53.6-43.5-97-97.1-97.1c-4.1,0-7.5,3.3-7.5,7.5
	S282.8,152.5,286.9,152.5z M286.9,197.3c20.6,0,37.3,16.7,37.3,37.3c0,4.1,3.3,7.5,7.5,7.5c4.1,0,7.5-3.3,7.5-7.5
	c0-28.9-23.4-52.3-52.3-52.3c-4.1,0-7.5,3.3-7.5,7.5S282.8,197.3,286.9,197.3z"/>
</svg>
