<?xml version="1.0" encoding="utf-8"?>
<!-- Generator: Adobe Illustrator 25.1.0, SVG Export Plug-In . SVG Version: 6.00 Build 0)  -->
<svg version="1.1" id="Capa_1" xmlns="http://www.w3.org/2000/svg" xmlns:xlink="http://www.w3.org/1999/xlink" x="0px" y="0px"
	 width="512px" height="512px" viewBox="0 0 512 512" style="enable-background:new 0 0 512 512;" xml:space="preserve">
<style type="text/css">
	.st0{fill:url(#SVGID_1_);}
	.st1{fill:#5E35B1;}
	.st2{fill:url(#SVGID_2_);}
	.st3{fill:url(#SVGID_3_);}
	.st4{fill:url(#SVGID_4_);}
</style>
<g id="Fax">
	<g>
		
			<linearGradient id="SVGID_1_" gradientUnits="userSpaceOnUse" x1="231.5" y1="67.083" x2="231.5" y2="10.416" gradientTransform="matrix(8 0 0 8 -1596 -54)">
			<stop  offset="0" style="stop-color:#5E35B1"/>
			<stop  offset="1" style="stop-color:#F50057"/>
		</linearGradient>
		<path class="st0" d="M488,152h-64V80c0-4.4-3.6-8-8-8l0,0h-48V48c0-4.4-3.6-8-8-8l0,0H152c-4.4,0-8,3.6-8,8l0,0v24H96
			c-4.4,0-8,3.6-8,8l0,0v72H24c-4.4,0-8,3.6-8,8l0,0v224c0,4.4,3.6,8,8,8l0,0h8v24c0,4.4,3.6,8,8,8l0,0h48c4.4,0,8-3.6,8-8l0,0v-24
			h48v72c0,4.4,3.6,8,8,8l0,0h208c4.4,0,8-3.6,8-8l0,0v-72h48v24c0,4.4,3.6,8,8,8l0,0h48c4.4,0,8-3.6,8-8l0,0v-24h8c4.4,0,8-3.6,8-8
			l0,0V160C496,155.6,492.4,152,488,152L488,152z M408,88v64h-40V88H408z M160,56h192v96h-16V96c0-4.4-3.6-8-8-8l0,0H184
			c-4.4,0-8,3.6-8,8l0,0v56h-16V56z M320,152H192v-48h128V152z M104,88h40v64h-40V88z M80,408H48v-16h32V408z M144,344h-32v-32h32
			V344z M352,456H160V312h16v40c0,4.4,3.6,8,8,8l0,0h144c4.4,0,8-3.6,8-8l0,0v-40h16V456z M192,312h128v32H192V312z M400,312v32h-32
			v-32H400z M464,408h-32v-16h32V408z M480,376H368v-16h40c4.4,0,8-3.6,8-8l0,0v-48c0-4.4-3.6-8-8-8l0,0H104c-4.4,0-8,3.6-8,8l0,0
			v48c0,4.4,3.6,8,8,8l0,0h40v16H32V168h448V376z"/>
		<path class="st1" d="M328,408H184c-4.4,0-8,3.6-8,8s3.6,8,8,8h144c4.4,0,8-3.6,8-8S332.4,408,328,408z"/>
		<path class="st1" d="M328,376H184c-4.4,0-8,3.6-8,8s3.6,8,8,8h144c4.4,0,8-3.6,8-8S332.4,376,328,376z"/>
	</g>
	
		<linearGradient id="SVGID_2_" gradientUnits="userSpaceOnUse" x1="254.5" y1="61.083" x2="254.5" y2="4.416" gradientTransform="matrix(8 0 0 8 -1596 -54)">
		<stop  offset="0" style="stop-color:#5E35B1"/>
		<stop  offset="1" style="stop-color:#F50057"/>
	</linearGradient>
	<path class="st2" d="M416,248c0,4.4,3.6,8,8,8l0,0h32c4.4,0,8-3.6,8-8l0,0v-32c0-4.4-3.6-8-8-8l0,0h-32c-4.4,0-8,3.6-8,8l0,0V248z
		 M432,224h16v16h-16V224z"/>
	
		<linearGradient id="SVGID_3_" gradientUnits="userSpaceOnUse" x1="246.5" y1="61.083" x2="246.5" y2="4.416" gradientTransform="matrix(8 0 0 8 -1596 -54)">
		<stop  offset="0" style="stop-color:#5E35B1"/>
		<stop  offset="1" style="stop-color:#F50057"/>
	</linearGradient>
	<path class="st3" d="M392,208h-32c-4.4,0-8,3.6-8,8l0,0v32c0,4.4,3.6,8,8,8l0,0h32c4.4,0,8-3.6,8-8l0,0v-32
		C400,211.6,396.4,208,392,208L392,208z M384,240h-16v-16h16V240z"/>
	
		<linearGradient id="SVGID_4_" gradientUnits="userSpaceOnUse" x1="209.5" y1="61.083" x2="209.5" y2="4.416" gradientTransform="matrix(8 0 0 8 -1596 -54)">
		<stop  offset="0" style="stop-color:#5E35B1"/>
		<stop  offset="1" style="stop-color:#F50057"/>
	</linearGradient>
	<path class="st4" d="M80,200c-17.7,0-32,14.3-32,32s14.3,32,32,32s32-14.3,32-32S97.7,200,80,200z M80,248c-8.8,0-16-7.2-16-16
		s7.2-16,16-16s16,7.2,16,16S88.8,248,80,248z"/>
</g>
</svg>
