<?xml version="1.0" encoding="utf-8"?>
<!-- Generator: Adobe Illustrator 25.1.0, SVG Export Plug-In . SVG Version: 6.00 Build 0)  -->
<svg version="1.1" id="Capa_1" xmlns="http://www.w3.org/2000/svg" xmlns:xlink="http://www.w3.org/1999/xlink" x="0px" y="0px"
	 width="2202.2px" height="771.1px" viewBox="0 0 2202.2 771.1" style="enable-background:new 0 0 2202.2 771.1;"
	 xml:space="preserve">
<style type="text/css">
	.st0{fill:#880E4F;}
	.st1{fill-rule:evenodd;clip-rule:evenodd;fill:#070508;}
	.st2{fill-rule:evenodd;clip-rule:evenodd;fill:#FFFFFF;}
	.st3{fill-rule:evenodd;clip-rule:evenodd;fill:#E7E6E5;}
	.st4{fill-rule:evenodd;clip-rule:evenodd;fill:#880E4F;}
	.st5{fill:#070508;}
	.st6{enable-background:new    ;}
</style>
<path class="st0" d="M585.7,423.2c39.5-22.8,66.1-59.6,77.1-100.6l0.1-0.4c11-41,6.4-86.2-16.5-125.7
	c-22.9-39.7-59.7-66.3-100.8-77.3c-41-11-86.2-6.3-125.9,16.6s-66.3,59.7-77.3,100.8c-11,41-6.3,86.2,16.6,125.9
	s59.8,66.3,100.8,77.3C500.8,450.8,546,446.2,585.7,423.2 M753.1,327.6c0.6-3.2,1.2-6.5,1.7-9.7c3.9-17.6,12.3-34.4,25.4-48.7
	c39.7-43.5,107.1-46.5,150.6-6.8c43.4,39.7,46.5,107.1,6.8,150.6c-39.7,43.4-107.1,46.5-150.6,6.7
	C760.4,395.4,748.9,360.8,753.1,327.6z M1023.5,443.5c-6.2,9.9-13.4,19.4-21.5,28.4c-35.9,39.2-84.5,60.3-134.2,62.6h-0.2h-0.2
	c-49.7,2.1-100-14.5-139.3-50.4c-12.6-11.5-23.3-24.3-32.1-37.9c-18.2,21.1-40.1,39.6-65.5,54.2c-61,35.2-130.5,42.4-193.6,25.5
	S317.2,468,282,407c-4.6-7.9-8.7-16-12.3-24.2c0,0-38.4-124.4,0-206.8c6.2-29.2,57-89.5,105.7-117.5C436.4,23.3,506,16.1,569,33
	c62.9,17,119.5,58,154.7,119c19.5,33.7,30.3,70.1,33.2,106.6c4.3-27.1,4.3-54.9-0.3-82.4c28.6-17.7,60.9-27.4,93.5-28.9
	c49.6-2.2,100,14.5,139.5,50.6c13.4,12.3,24.7,26,33.8,40.8L1023.5,443.5L1023.5,443.5z M1015.4,422.1c-6.2,9.9-13.4,19.4-21.5,28.4
	c-35.9,39.2-84.5,60.3-134.2,62.6h-0.2h-0.2c-49.7,2.1-100-14.5-139.3-50.4c-12.6-11.5-23.3-24.3-32.1-37.9
	c-18.2,21.1-40.1,39.6-65.5,54.2c-61,35.2-130.5,42.4-193.6,25.5c-63.1-16.9-119.7-57.9-154.9-118.9c-4.6-7.9-8.7-16-12.3-24.2
	c0,0-48.2-74.2,0-206.8c6.2-29.2,57-89.5,105.7-117.5C428.1,2,497.6-5.2,560.7,11.7s119.7,57.9,154.9,118.9
	c19.5,33.7,30.3,70.1,33.2,106.6c4.3-27.1,4.3-54.9-0.3-82.4c28.6-17.7,60.9-27.4,93.5-28.9c49.6-2.2,100,14.5,139.5,50.6
	c13.4,12.3,24.7,26,33.8,40.8v204.8L1015.4,422.1L1015.4,422.1z"/>
<circle class="st0" cx="487" cy="267" r="264.8"/>
<path class="st1" d="M545.1,352.5c19.9-11.5,33.4-29.9,39.1-50.5c-7.4,2.8-15.4,4.3-23.8,4.3c-37,0-67-30-67-67
	c0-16.7,6.1-32,16.3-43.8c-16.4-1.3-33.4,2.2-48.7,11c-40.3,23.3-54.1,74.8-30.8,115C453.3,361.9,504.8,375.7,545.1,352.5"/>
<path class="st1" d="M883.6,384.2c11.8-6.8,19.8-17.7,23.1-29.9c-4.4,1.7-9.1,2.6-14.1,2.6c-21.9,0-39.7-17.8-39.7-39.7
	c0-9.9,3.6-19,9.7-25.9c-9.7-0.8-19.8,1.3-28.9,6.5c-23.9,13.8-32.1,44.3-18.3,68.2C829.2,389.8,859.7,397.9,883.6,384.2"/>
<path class="st2" d="M359,362.5c22.9,39.7,59.8,66.3,100.8,77.3s86.2,6.3,125.9-16.6c39.5-22.8,66.1-59.6,77.1-100.6l0.1-0.4
	c11-41,6.4-86.2-16.5-125.7c-22.9-39.7-59.7-66.3-100.8-77.3c-41-11-86.2-6.3-125.9,16.6s-66.3,59.7-77.3,100.8
	C331.5,277.6,336.2,322.8,359,362.5 M493.3,239.3c0,37,30,67,67,67c8.4,0,16.4-1.5,23.8-4.3c-5.7,20.5-19.1,38.9-39.1,50.5
	c-40.3,23.3-91.8,9.4-115-30.8c-23.3-40.3-9.5-91.8,30.8-115c15.4-8.9,32.3-12.3,48.7-11C499.5,207.3,493.3,222.6,493.3,239.3z"/>
<path class="st2" d="M852.9,317.1c0,21.9,17.8,39.7,39.7,39.7c5,0,9.7-0.9,14.1-2.6c-3.4,12.2-11.3,23.1-23.1,29.9
	c-23.9,13.8-54.4,5.6-68.2-18.3s-5.6-54.4,18.3-68.2c9.1-5.2,19.2-7.3,28.9-6.5C856.6,298.1,852.9,307.2,852.9,317.1 M780.2,269.1
	c-13,14.2-21.4,31.1-25.4,48.6c-0.5,3.3-1.1,6.6-1.7,9.9c-4.2,33.2,7.3,67.8,33.8,92c43.4,39.7,110.8,36.7,150.6-6.7
	c39.7-43.5,36.7-110.9-6.8-150.6C887.3,222.7,819.9,225.7,780.2,269.1z"/>
<path class="st3" d="M585.7,399.1c-39.7,22.9-84.9,27.6-125.9,16.6S382,378.1,359,338.4c-12.9-22.4-20-46.6-21.8-70.8
	c-2.3,32,4.6,65,21.8,94.9c22.9,39.7,59.8,66.3,100.8,77.3s86.2,6.3,125.9-16.6c39.5-22.8,66.1-59.6,77.1-100.6l0.1-0.4
	c4.8-17.9,6.6-36.6,5.2-55.3c-0.8,10.5-2.5,20.9-5.2,31.1l-0.1,0.4C651.8,339.5,625.3,376.3,585.7,399.1"/>
<path class="st3" d="M786.9,419.7c43.4,39.7,110.8,36.7,150.6-6.7c21.6-23.7,30.6-54.4,27.2-84c-2.4,21.6-11.5,42.6-27.2,59.8
	c-39.7,43.4-107.1,46.5-150.6,6.7c-19.8-18.1-31.2-41.9-34-66.6C749.2,361.7,760.7,395.7,786.9,419.7"/>
<path class="st4" d="M708.1,462.9c-0.1-0.1-0.3-0.2-0.4-0.4c6.1,7.6,12.9,14.8,20.3,21.6c39.2,35.9,89.6,52.5,139.3,50.4h0.2h0.2
	c49.7-2.3,98.4-23.4,134.2-62.6c8.2-8.9,15.4-18.4,21.5-28.4c0.1-10,0-35.9,0-45.7C971.4,517.4,817.3,562.8,708.1,462.9z"/>
<path class="st4" d="M446.1,512.3c-66-17.7-125.2-60.5-162-124.3c-5.5-9.5-10.3-19.1-14.5-29c-13.5-31.7-20.4-64.9-21.2-97.9
	c-3,40.7,3.8,82.6,21.2,121.8c3.6,8.2,7.7,16.2,12.3,24.2c35.2,61,91.9,102,154.9,118.9c63.1,16.9,132.6,9.7,193.6-25.5
	c15.4-8.9,29.5-19.1,42.3-30.5c-7.7,5.6-15.7,10.8-24.1,15.7C584.7,522.5,512,530,446.1,512.3z"/>
<path class="st5" d="M252,429.3l12.5,76.2c-23.9,9.3-47.9,15.9-71.8,19.8c-15.6,2.9-31.3,4.4-46.9,4.4c-7.8,0-15.9-0.5-24.2-1.5
	c-23.4-2-44.1-7.7-61.9-17.2s-32.2-24.7-43.2-45.4C5.5,444.8,0,419.1,0,388.3V153.2C0,116.1,5.2,88,15.8,68.9
	c10.5-19,26.5-35.2,48-48.3c22-12.2,48.1-18.3,78.4-18.3c2.9,0,6.1,0,9.5,0c34.2,1.5,65.7,9.5,94.5,24.2l-22.7,73.3
	c-22.5-8.3-47.1-12.5-74-12.5c-20.5,0-37.1,5.6-49.8,16.8s-19,25.4-19,42.5v240.3c0,8.8,1,16.7,2.9,23.8c1.9,7.1,5.1,12.8,9.5,17.2
	c4.4,4.4,8.8,8.3,13.2,11.7c4.4,3.4,10.5,5.6,18.3,6.6s14.4,1.8,19.8,2.6c5.4,0.7,12.8,0.4,22.3-1.1s17-2.6,22.3-3.3
	c5.4-0.7,13.1-2.3,23.1-4.8c10-2.4,17-4.1,20.9-5.1C236.9,433.5,243.2,431.8,252,429.3z"/>
<path class="st5" d="M1365.3,530.7h-94l-67.5-267.6l-66,267.6h-97L939.2,0h91.7l62.2,339.7L1174.2,0h59.1l81.1,339.7L1371.3,0h95.5
	L1365.3,530.7z"/>
<path class="st5" d="M1758.4,530.7h-83.6V150.2h77.5l6.1,3c16.7-5.6,33.7-8.6,50.9-9.1c5.6,0,10.6,0,15.2,0c9.6,0,16.7,0.3,21.3,0.8
	c7.1,1,21,3.8,41.8,8.4l-19.7,81.3c-14.2-7.1-27.9-10.6-41-10.6c-11.1,0-22,2.3-32.7,6.8c-23.8,10.6-35.7,29.1-35.7,55.5v244.4
	L1758.4,530.7L1758.4,530.7z"/>
<path class="st5" d="M2202.2,532.4h-100.8l-109.6-185.6l-10.2,10.2v175.3h-80.4V21h80.4v232.3l108.9-100.8l59.2,56.3l-95.7,81.1
	C2125,407.2,2174.4,488.1,2202.2,532.4z"/>
<path class="st5" d="M1676.5,288.9v97.5c0,41.4-11.3,75.6-34,102.7s-56.9,40.6-102.7,40.6c-45.8,0-80.4-13.7-103.8-41
	s-35.1-61.4-35.1-102.3v-97.5c0-46.8,11.9-82.6,35.8-107.5s58.2-37.3,103.1-37.3c42.8,0,76.3,12.9,100.5,38.8
	C1664.4,208.7,1676.5,244.1,1676.5,288.9z M1595.9,393.8V288.9c0-14.3-1.7-26-5.2-35.1s-8.5-15.5-15.1-19.2s-12.6-6-17.7-7
	c-5.2-1-11.2-1.5-18.1-1.5c-38.4,0-57.6,20.9-57.6,62.8v104.9c0,37.4,19.2,56.1,57.6,56.1c16.3,0,29.7-4.7,40.3-14
	C1590.6,426.6,1595.9,412.5,1595.9,393.8z"/>
<g class="st6">
	<path class="st5" d="M372.2,723.3h-21.6l-14.8-55l-15,55h-22l-33.2-103.2h24.7l18.7,63l16.7-63H347l17.3,63l16.9-63h24.3
		L372.2,723.3z"/>
	<path class="st5" d="M494.8,658.2v27.2c0,11.5-3.2,21.1-9.5,28.6c-6.3,7.6-15.9,11.3-28.6,11.3c-12.8,0-22.4-3.8-28.9-11.4
		c-6.5-7.6-9.8-17.1-9.8-28.5v-27.2c0-13,3.3-23,10-30c6.7-6.9,16.2-10.4,28.7-10.4c11.9,0,21.3,3.6,28,10.8
		C491.4,635.8,494.8,645.7,494.8,658.2z M472.3,687.4v-29.3c0-4-0.5-7.2-1.4-9.8c-1-2.5-2.4-4.3-4.2-5.4c-1.9-1-3.5-1.7-4.9-2
		s-3.1-0.4-5-0.4c-10.7,0-16.1,5.8-16.1,17.5v29.3c0,10.4,5.4,15.7,16.1,15.7c4.5,0,8.3-1.3,11.2-3.9
		C470.8,696.6,472.3,692.6,472.3,687.4z"/>
	<path class="st5" d="M538,723.3h-22.7V620.1h21l1.6,0.8c4.5-1.5,9.1-2.3,13.8-2.5c1.5,0,2.9,0,4.1,0c2.6,0,4.5,0.1,5.8,0.2
		c1.9,0.3,5.7,1,11.3,2.3l-5.4,22c-3.8-1.9-7.6-2.9-11.1-2.9c-3,0-6,0.6-8.9,1.9c-6.5,2.9-9.7,7.9-9.7,15v66.4H538z"/>
	<path class="st5" d="M668.8,723.3h-28.4L609.5,671l-2.9,2.9v49.4h-22.7V579.1h22.7v65.5l30.7-28.4L654,632l-27,22.9
		C647,688,661,710.8,668.8,723.3z"/>
	<path class="st5" d="M707.1,762l-22.7,4.5V620.1h21.4l1.2,1.4c4.5-2.1,9.8-3.1,15.9-3.1c12.8,0,22.5,3.7,29.1,11.1
		c6.7,7.4,10,17,10,28.8V687c0,12.5-3.5,22.1-10.5,28.7c-7,6.7-16.3,10-27.8,10c-3.3,0-5.9-0.1-7.8-0.4c-1.9-0.3-3.8-0.8-5.7-1.4
		c-1.9-0.7-2.9-1-3.2-1L707.1,762L707.1,762z M739.5,681.6v-24.1c0-11.3-5.2-16.9-15.7-16.9c-5.6,0-9.8,1.4-12.6,4.2
		c-2.7,2.8-4.1,6.7-4.1,11.6v28c0,12.4,5.6,18.5,16.7,18.5c6.3,0,10.5-1.6,12.6-4.9C738.4,694.8,739.5,689.3,739.5,681.6z"/>
	<path class="st5" d="M808.9,723.3h-22.7V579.1h22.7V723.3z"/>
	<path class="st5" d="M908,661.9v61.4c-14.3,1.4-25.7,2.1-34.2,2.1c-3.8,0-7.1-0.1-9.7-0.4c-22.5-2.5-34.3-13.7-35.4-33.6
		c0-1,0-1.9,0-2.9v-17.1c0-13.6,4.7-22.7,14.2-27.4c4-2.2,8.5-3.3,13.6-3.3c0.8,0,1.6,0.1,2.3,0.2c6,0.3,11.3,1,15.7,2.2
		s8,2.6,10.9,4.2c0-8.8-7.3-13.2-22-13.2l1.9-15.7c5.2,0,9.9,0.3,14.1,0.9c4.2,0.6,7.7,1.6,10.6,3.1c2.9,1.4,5.4,2.9,7.6,4.4
		c2.2,1.5,3.9,3.5,5.2,6c1.2,2.5,2.3,4.6,3.1,6.5s1.4,4.4,1.6,7.5c0.3,3.2,0.4,5.6,0.5,7.4C907.9,656,908,658.6,908,661.9z
		 M885.3,703.3v-31.9c-2.2-1.5-5-2.9-8.5-4.2s-7.2-2.3-11.2-3c-1.1-0.1-2.2-0.2-3.3-0.2c-2.5,0-4.7,0.6-6.6,1.6
		c-2.7,1.6-4.1,4.5-4.1,8.7v11.3c0,12.6,7.3,19,21.8,19C876.9,704.5,880.9,704.1,885.3,703.3z"/>
	<path class="st5" d="M983,699.8l6.2,22.2c-8.8,2.3-17,3.5-24.5,3.5c-6.7,0-13-0.9-18.7-2.7c-8.1-2.7-14-7-17.6-12.7
		s-5.5-13.7-5.5-24v-26.4c0-9.7,1.9-17.9,5.8-24.5c3.8-6.6,8.9-11.2,15.2-13.8c5.2-2.2,11-3.3,17.3-3.3c1.2,0,2.5,0.1,3.9,0.2
		c7.8,0.5,15.7,2.7,23.7,6.4l-6.2,19.6c-7.1-2.5-13.3-3.7-18.3-3.7c-3.7,0-6.8,0.6-9.3,1.9c-6.3,3-9.5,8.4-9.5,16.1v29.9
		c0,4.5,1.6,8,4.7,10.4c3.2,2.4,6.9,3.7,11.3,3.8c0.8,0,1.7,0,2.7,0c3.4,0,6.7-0.2,9.7-0.6C977.7,701.5,980.8,700.7,983,699.8z"/>
	<path class="st5" d="M1075.7,684.1l-51.3,2.7v5.8c0,7,3.2,11,9.5,11.9c1,0.1,1.9,0.2,2.9,0.2c6.2,0,14.7-2.7,25.5-8.2l8.2,19.6
		c-10.2,6.2-21.5,9.4-34,9.7c-0.6,0-1.1,0-1.6,0c-9.9,0-17.9-2.3-23.9-7c-6.3-5.1-9.5-12.8-9.5-23.1v-42.2c0-11.1,3.5-19.8,10.4-26
		s16.1-9.3,27.5-9.3s20.3,3.1,26.7,9.2c6.4,6.1,9.6,14.6,9.6,25.4L1075.7,684.1L1075.7,684.1z M1052.8,664.1v-10.9
		c0-4.1-1.3-7.3-3.9-9.5s-5.8-3.3-9.7-3.3c-5.2,0-9,1.4-11.3,4.1c-2.3,2.7-3.5,5.8-3.5,9.1V666L1052.8,664.1z"/>
	<path class="st5" d="M1285.6,723.3h-22.7v-62.6c0-10.2-2-16.6-6-19.4c-1.8-1.1-4-1.6-6.6-1.6c-3.4,0-7.7,1-12.8,2.9l-3.5,1.4
		c0.5,1.4,0.8,3.4,0.8,6v73.3h-22.7v-62c0-9.9-3.2-16.4-9.7-19.6c-2.5-1.4-5.1-2.1-8-2.1c-4.5,0-9.5,1.6-14.8,4.7v78.9H1157V620.1
		h20l2.7,1.4c3.7-1.6,7.9-2.7,12.6-3.1c1-0.1,1.9-0.2,2.9-0.2c3.8,0,7.8,0.7,11.9,2.1c5.2,1.6,9.6,4.3,13.2,8
		c1.9-1.1,4.8-2.6,8.7-4.5c8.8-3.6,17-5.4,24.5-5.4c1,0,1.9,0,2.9,0c8.5,0.5,15.5,3.8,21,9.9c5.5,6,8.2,13.9,8.2,23.7L1285.6,723.3
		L1285.6,723.3z"/>
	<path class="st5" d="M1380.5,661.9v61.4c-14.3,1.4-25.7,2.1-34.2,2.1c-3.8,0-7.1-0.1-9.7-0.4c-22.5-2.5-34.3-13.7-35.4-33.6
		c0-1,0-1.9,0-2.9v-17.1c0-13.6,4.7-22.7,14.2-27.4c4-2.2,8.5-3.3,13.6-3.3c0.8,0,1.6,0.1,2.3,0.2c6,0.3,11.3,1,15.7,2.2
		c4.4,1.2,8,2.6,10.9,4.2c0-8.8-7.3-13.2-22-13.2l1.9-15.7c5.2,0,9.9,0.3,14.1,0.9c4.2,0.6,7.7,1.6,10.6,3.1
		c2.9,1.4,5.4,2.9,7.6,4.4s3.9,3.5,5.2,6c1.2,2.5,2.3,4.6,3.1,6.5c0.8,1.9,1.4,4.4,1.6,7.5c0.3,3.2,0.4,5.6,0.5,7.4
		C1380.5,656,1380.5,658.6,1380.5,661.9z M1357.9,703.3v-31.9c-2.2-1.5-5-2.9-8.5-4.2s-7.2-2.3-11.2-3c-1.1-0.1-2.2-0.2-3.3-0.2
		c-2.5,0-4.7,0.6-6.6,1.6c-2.7,1.6-4.1,4.5-4.1,8.7v11.3c0,12.6,7.3,19,21.8,19C1349.5,704.5,1353.5,704.1,1357.9,703.3z"/>
	<path class="st5" d="M1477.2,723.3h-22.7v-64.9c0-8-3-13.5-8.9-16.5c-2.5-1.2-5.1-1.9-8-1.9c-4.3,0-8.9,1.2-14,3.7v79.5h-22.5
		V620.1h20l2.7,1.2c6.3-2.1,12.3-3.1,17.9-3.1c6.3,0,12.3,1.3,17.9,3.9c11.7,5.4,17.5,15.3,17.5,29.9L1477.2,723.3L1477.2,723.3z"/>
	<path class="st5" d="M1577.9,661.9v61.4c-14.3,1.4-25.7,2.1-34.2,2.1c-3.8,0-7.1-0.1-9.7-0.4c-22.5-2.5-34.3-13.7-35.4-33.6
		c0-1,0-1.9,0-2.9v-17.1c0-13.6,4.7-22.7,14.2-27.4c4-2.2,8.5-3.3,13.6-3.3c0.8,0,1.6,0.1,2.3,0.2c6,0.3,11.3,1,15.7,2.2
		c4.4,1.2,8,2.6,10.9,4.2c0-8.8-7.3-13.2-22-13.2l1.9-15.7c5.2,0,9.9,0.3,14.1,0.9c4.2,0.6,7.7,1.6,10.6,3.1
		c2.9,1.4,5.4,2.9,7.6,4.4s3.9,3.5,5.2,6c1.2,2.5,2.3,4.6,3.1,6.5c0.8,1.9,1.4,4.4,1.6,7.5c0.3,3.2,0.4,5.6,0.5,7.4
		C1577.8,656,1577.9,658.6,1577.9,661.9z M1555.2,703.3v-31.9c-2.2-1.5-5-2.9-8.5-4.2s-7.2-2.3-11.2-3c-1.1-0.1-2.2-0.2-3.3-0.2
		c-2.5,0-4.7,0.6-6.6,1.6c-2.7,1.6-4.1,4.5-4.1,8.7v11.3c0,12.6,7.3,19,21.8,19C1546.8,704.5,1550.8,704.1,1555.2,703.3z"/>
	<path class="st5" d="M1642.4,766.5l-5.4-17.7c4.7,0,8.3-1.3,11-4s4-6.7,4-12.1v-11.1c-3.7,2.7-9.3,4.1-16.7,4.1
		c-12.1,0-21.5-3.3-28.2-9.9c-6.7-6.6-10.1-16.2-10.1-28.8v-30.7c0-12.1,3.5-21.5,10.6-28.1c7.1-6.7,16.6-10,28.5-10
		c3.8,0,7.3,0.4,10.3,1.3c3,0.9,4.9,1.8,5.8,2.8l4.3-2.3h18.1v116.4C1674.7,756.5,1663.9,766.5,1642.4,766.5z M1652,675.7v-17.3
		c0-11.8-5.6-17.7-16.7-17.7c-5.6,0-9.7,1.6-12.1,4.8s-3.6,7.2-3.6,11.8v26.6c0,13.3,5.2,20,15.7,20c6.7,0,11.2-2.2,13.4-6.6
		C1650.9,692.9,1652,685.7,1652,675.7z"/>
	<path class="st5" d="M1769.3,684.1l-51.3,2.7v5.8c0,7,3.2,11,9.5,11.9c1,0.1,1.9,0.2,2.9,0.2c6.2,0,14.7-2.7,25.5-8.2l8.2,19.6
		c-10.2,6.2-21.5,9.4-34,9.7c-0.6,0-1.1,0-1.6,0c-9.9,0-17.9-2.3-23.9-7c-6.3-5.1-9.5-12.8-9.5-23.1v-42.2c0-11.1,3.5-19.8,10.4-26
		s16.1-9.3,27.5-9.3s20.3,3.1,26.7,9.2c6.4,6.1,9.6,14.6,9.6,25.4L1769.3,684.1L1769.3,684.1z M1746.4,664.1v-10.9
		c0-4.1-1.3-7.3-3.9-9.5s-5.8-3.3-9.7-3.3c-5.2,0-9,1.4-11.3,4.1c-2.3,2.7-3.5,5.8-3.5,9.1V666L1746.4,664.1z"/>
	<path class="st5" d="M1921.9,723.3h-22.7v-62.6c0-10.2-2-16.6-6-19.4c-1.8-1.1-4-1.6-6.6-1.6c-3.4,0-7.7,1-12.8,2.9l-3.5,1.4
		c0.5,1.4,0.8,3.4,0.8,6v73.3h-22.7v-62c0-9.9-3.2-16.4-9.7-19.6c-2.5-1.4-5.1-2.1-8-2.1c-4.5,0-9.5,1.6-14.8,4.7v78.9h-22.7V620.1
		h20l2.7,1.4c3.7-1.6,7.9-2.7,12.6-3.1c1-0.1,1.9-0.2,2.9-0.2c3.8,0,7.8,0.7,11.9,2.1c5.2,1.6,9.6,4.3,13.2,8
		c1.9-1.1,4.8-2.6,8.7-4.5c8.8-3.6,17-5.4,24.5-5.4c1,0,1.9,0,2.9,0c8.5,0.5,15.5,3.8,21,9.9c5.5,6,8.2,13.9,8.2,23.7L1921.9,723.3
		L1921.9,723.3z"/>
	<path class="st5" d="M2011.3,684.1l-51.3,2.7v5.8c0,7,3.2,11,9.5,11.9c1,0.1,1.9,0.2,2.9,0.2c6.2,0,14.7-2.7,25.5-8.2l8.2,19.6
		c-10.2,6.2-21.5,9.4-34,9.7c-0.6,0-1.1,0-1.6,0c-9.9,0-17.9-2.3-23.9-7c-6.3-5.1-9.5-12.8-9.5-23.1v-42.2c0-11.1,3.5-19.8,10.4-26
		s16.1-9.3,27.5-9.3s20.3,3.1,26.7,9.2c6.4,6.1,9.6,14.6,9.6,25.4L2011.3,684.1L2011.3,684.1z M1988.4,664.1v-10.9
		c0-4.1-1.3-7.3-3.9-9.5s-5.8-3.3-9.7-3.3c-5.2,0-9,1.4-11.3,4.1c-2.3,2.7-3.5,5.8-3.5,9.1V666L1988.4,664.1z"/>
	<path class="st5" d="M2108.5,723.3h-22.7v-64.9c0-8-3-13.5-8.9-16.5c-2.5-1.2-5.1-1.9-8-1.9c-4.3,0-8.9,1.2-14,3.7v79.5h-22.5
		V620.1h20l2.7,1.2c6.3-2.1,12.3-3.1,17.9-3.1c6.3,0,12.3,1.3,17.9,3.9c11.7,5.4,17.5,15.3,17.5,29.9v71.3L2108.5,723.3
		L2108.5,723.3z"/>
	<path class="st5" d="M2169.5,707.8l-6.8,18.1c-20.9-0.4-31.3-10.4-31.3-29.9V579h23.1v41h19.6l-4.9,21.2h-14.6V696
		c0,4.7,1.3,7.8,3.9,9.4C2161,707,2164.7,707.8,2169.5,707.8z"/>
</g>
</svg>
